<svg xmlns="http://www.w3.org/2000/svg" width="1453" height="592" fill="none" viewBox="0 0 1453 592"><mask id="b" width="1453" height="630" x="0" y="-38" maskUnits="userSpaceOnUse" style="mask-type:alpha"><path fill="url(#a)" d="M0-38h1453v630H0z"/></mask><g stroke="#EDE9FE" mask="url(#b)"><path fill="#fff" d="M52.249-36.7a2.5 2.5 0 0 1 2.502 0l39 22.548A2.5 2.5 0 0 1 95-11.988v45.1a2.5 2.5 0 0 1-1.249 2.165l-39 22.547a2.5 2.5 0 0 1-2.502 0l-39-22.547A2.5 2.5 0 0 1 12 33.113v-45.1a2.5 2.5 0 0 1 1.249-2.165z"/><path fill="#fff" d="M135.249-36.7a2.5 2.5 0 0 1 2.502 0l39 22.548A2.5 2.5 0 0 1 178-11.988v45.1a2.5 2.5 0 0 1-1.249 2.165l-39 22.547a2.5 2.5 0 0 1-2.502 0l-39-22.547A2.5 2.5 0 0 1 95 33.113v-45.1a2.5 2.5 0 0 1 1.249-2.165z"/><path fill="#fff" d="M218.249-36.7a2.5 2.5 0 0 1 2.502 0l39 22.548A2.5 2.5 0 0 1 261-11.988v45.1a2.5 2.5 0 0 1-1.249 2.165l-39 22.547a2.5 2.5 0 0 1-2.502 0l-39-22.547A2.5 2.5 0 0 1 178 33.113v-45.1a2.5 2.5 0 0 1 1.249-2.165z"/><path fill="#fff" d="M301.249-36.7a2.5 2.5 0 0 1 2.502 0l39 22.548A2.5 2.5 0 0 1 344-11.988v45.1a2.5 2.5 0 0 1-1.249 2.165l-39 22.547a2.5 2.5 0 0 1-2.502 0l-39-22.547A2.5 2.5 0 0 1 261 33.113v-45.1a2.5 2.5 0 0 1 1.249-2.165z"/><path fill="#fff" d="M384.249-36.7a2.5 2.5 0 0 1 2.502 0l39 22.548A2.5 2.5 0 0 1 427-11.988v45.1a2.5 2.5 0 0 1-1.249 2.165l-39 22.547a2.5 2.5 0 0 1-2.502 0l-39-22.547A2.5 2.5 0 0 1 344 33.113v-45.1a2.5 2.5 0 0 1 1.249-2.165z"/><path fill="#fff" d="M467.249-36.7a2.5 2.5 0 0 1 2.502 0l39 22.548A2.5 2.5 0 0 1 510-11.988v45.1a2.5 2.5 0 0 1-1.249 2.165l-39 22.547a2.5 2.5 0 0 1-2.502 0l-39-22.547A2.5 2.5 0 0 1 427 33.113v-45.1a2.5 2.5 0 0 1 1.249-2.165z"/><path fill="#fff" d="M550.249-36.7a2.5 2.5 0 0 1 2.502 0l39 22.548A2.5 2.5 0 0 1 593-11.988v45.1a2.5 2.5 0 0 1-1.249 2.165l-39 22.547a2.5 2.5 0 0 1-2.502 0l-39-22.547A2.5 2.5 0 0 1 510 33.113v-45.1a2.5 2.5 0 0 1 1.249-2.165z"/><path fill="#fff" d="M633.249-36.7a2.5 2.5 0 0 1 2.502 0l39 22.548A2.5 2.5 0 0 1 676-11.988v45.1a2.5 2.5 0 0 1-1.249 2.165l-39 22.547a2.5 2.5 0 0 1-2.502 0l-39-22.547A2.5 2.5 0 0 1 593 33.113v-45.1a2.5 2.5 0 0 1 1.249-2.165z"/><path fill="#fff" d="M716.249-36.7a2.5 2.5 0 0 1 2.502 0l39 22.548A2.5 2.5 0 0 1 759-11.988v45.1a2.5 2.5 0 0 1-1.249 2.165l-39 22.547a2.5 2.5 0 0 1-2.502 0l-39-22.547A2.5 2.5 0 0 1 676 33.113v-45.1a2.5 2.5 0 0 1 1.249-2.165z"/><path fill="#F5F3FF" d="M799.249-36.7a2.5 2.5 0 0 1 2.502 0l39 22.548A2.5 2.5 0 0 1 842-11.988v45.1a2.5 2.5 0 0 1-1.249 2.165l-39 22.547a2.5 2.5 0 0 1-2.502 0l-39-22.547A2.5 2.5 0 0 1 759 33.113v-45.1a2.5 2.5 0 0 1 1.249-2.165z"/><path fill="#fff" d="M882.249-36.7a2.5 2.5 0 0 1 2.502 0l39 22.548A2.5 2.5 0 0 1 925-11.988v45.1a2.5 2.5 0 0 1-1.249 2.165l-39 22.547a2.5 2.5 0 0 1-2.502 0l-39-22.547A2.5 2.5 0 0 1 842 33.113v-45.1a2.5 2.5 0 0 1 1.249-2.165z"/><path fill="#fff" d="M965.249-36.7a2.5 2.5 0 0 1 2.502 0l38.999 22.548a2.51 2.51 0 0 1 1.25 2.164v45.1c0 .893-.48 1.718-1.25 2.165l-38.999 22.547a2.5 2.5 0 0 1-2.502 0l-39-22.547A2.5 2.5 0 0 1 925 33.113v-45.1a2.5 2.5 0 0 1 1.249-2.165zm83.001 0a2.5 2.5 0 0 1 2.5 0l39 22.548a2.51 2.51 0 0 1 1.25 2.164v45.1c0 .893-.48 1.718-1.25 2.165l-39 22.547c-.77.448-1.73.448-2.5 0l-39-22.547a2.51 2.51 0 0 1-1.25-2.164v-45.1c0-.893.48-1.718 1.25-2.165zm83 0a2.5 2.5 0 0 1 2.5 0l39 22.548a2.51 2.51 0 0 1 1.25 2.164v45.1c0 .893-.48 1.718-1.25 2.165l-39 22.547c-.77.448-1.73.448-2.5 0l-39-22.547a2.51 2.51 0 0 1-1.25-2.164v-45.1c0-.893.48-1.718 1.25-2.165zm83 0a2.5 2.5 0 0 1 2.5 0l39 22.548a2.51 2.51 0 0 1 1.25 2.164v45.1c0 .893-.48 1.718-1.25 2.165l-39 22.547c-.77.448-1.73.448-2.5 0l-39-22.547a2.51 2.51 0 0 1-1.25-2.164v-45.1c0-.893.48-1.718 1.25-2.165zm83 0a2.5 2.5 0 0 1 2.5 0l39 22.548a2.51 2.51 0 0 1 1.25 2.164v45.1c0 .893-.48 1.718-1.25 2.165l-39 22.547c-.77.448-1.73.448-2.5 0l-39-22.547a2.51 2.51 0 0 1-1.25-2.164v-45.1c0-.893.48-1.718 1.25-2.165zm83 0a2.5 2.5 0 0 1 2.5 0l39 22.548a2.51 2.51 0 0 1 1.25 2.164v45.1c0 .893-.48 1.718-1.25 2.165l-39 22.547c-.77.448-1.73.448-2.5 0l-39-22.547a2.51 2.51 0 0 1-1.25-2.164v-45.1c0-.893.48-1.718 1.25-2.165zm83 0a2.5 2.5 0 0 1 2.5 0l39 22.548a2.51 2.51 0 0 1 1.25 2.164v45.1c0 .893-.48 1.718-1.25 2.165l-39 22.547c-.77.448-1.73.448-2.5 0l-39-22.547a2.51 2.51 0 0 1-1.25-2.164v-45.1c0-.893.48-1.718 1.25-2.165zM10.749 34.426a2.5 2.5 0 0 1 2.502 0l39 22.547a2.5 2.5 0 0 1 1.249 2.164v45.101a2.5 2.5 0 0 1-1.249 2.164l-39 22.547a2.5 2.5 0 0 1-2.502 0l-39-22.547a2.5 2.5 0 0 1-1.249-2.164v-45.1a2.5 2.5 0 0 1 1.249-2.165z"/><path fill="#fff" d="M93.749 34.426a2.5 2.5 0 0 1 2.502 0l39 22.547a2.5 2.5 0 0 1 1.249 2.164v45.101a2.5 2.5 0 0 1-1.249 2.164l-39 22.547a2.5 2.5 0 0 1-2.502 0l-39-22.547a2.5 2.5 0 0 1-1.249-2.164v-45.1a2.5 2.5 0 0 1 1.249-2.165z"/><path fill="#fff" d="M176.749 34.426a2.5 2.5 0 0 1 2.502 0l39 22.547a2.5 2.5 0 0 1 1.249 2.164v45.101a2.5 2.5 0 0 1-1.249 2.164l-39 22.547a2.5 2.5 0 0 1-2.502 0l-39-22.547a2.5 2.5 0 0 1-1.249-2.164v-45.1a2.5 2.5 0 0 1 1.249-2.165z"/><path fill="#fff" d="M259.749 34.426a2.5 2.5 0 0 1 2.502 0l39 22.547a2.5 2.5 0 0 1 1.249 2.164v45.101a2.5 2.5 0 0 1-1.249 2.164l-39 22.547a2.5 2.5 0 0 1-2.502 0l-39-22.547a2.5 2.5 0 0 1-1.249-2.164v-45.1a2.5 2.5 0 0 1 1.249-2.165z"/><path fill="#fff" d="M342.749 34.426a2.5 2.5 0 0 1 2.502 0l39 22.547a2.5 2.5 0 0 1 1.249 2.164v45.101a2.5 2.5 0 0 1-1.249 2.164l-39 22.547a2.5 2.5 0 0 1-2.502 0l-39-22.547a2.5 2.5 0 0 1-1.249-2.164v-45.1a2.5 2.5 0 0 1 1.249-2.165z"/><path fill="#fff" d="M425.749 34.426a2.5 2.5 0 0 1 2.502 0l39 22.547a2.5 2.5 0 0 1 1.249 2.164v45.101a2.5 2.5 0 0 1-1.249 2.164l-39 22.547a2.5 2.5 0 0 1-2.502 0l-39-22.547a2.5 2.5 0 0 1-1.249-2.164v-45.1a2.5 2.5 0 0 1 1.249-2.165z"/><path fill="#fff" d="M508.749 34.426a2.5 2.5 0 0 1 2.502 0l39 22.547a2.5 2.5 0 0 1 1.249 2.164v45.101a2.5 2.5 0 0 1-1.249 2.164l-39 22.547a2.5 2.5 0 0 1-2.502 0l-39-22.547a2.5 2.5 0 0 1-1.249-2.164v-45.1a2.5 2.5 0 0 1 1.249-2.165z"/><path fill="#fff" d="M591.749 34.426a2.5 2.5 0 0 1 2.502 0l39 22.547a2.5 2.5 0 0 1 1.249 2.164v45.101a2.5 2.5 0 0 1-1.249 2.164l-39 22.547a2.5 2.5 0 0 1-2.502 0l-39-22.547a2.5 2.5 0 0 1-1.249-2.164v-45.1a2.5 2.5 0 0 1 1.249-2.165z"/><path fill="#fff" d="M674.749 34.426a2.5 2.5 0 0 1 2.502 0l39 22.547a2.5 2.5 0 0 1 1.249 2.164v45.101a2.5 2.5 0 0 1-1.249 2.164l-39 22.547a2.5 2.5 0 0 1-2.502 0l-39-22.547a2.5 2.5 0 0 1-1.249-2.164v-45.1a2.5 2.5 0 0 1 1.249-2.165z"/><path fill="#fff" d="M757.749 34.426a2.5 2.5 0 0 1 2.502 0l39 22.547a2.5 2.5 0 0 1 1.249 2.164v45.101a2.5 2.5 0 0 1-1.249 2.164l-39 22.547a2.5 2.5 0 0 1-2.502 0l-39-22.547a2.5 2.5 0 0 1-1.249-2.164v-45.1a2.5 2.5 0 0 1 1.249-2.165z"/><path fill="#fff" d="M840.749 34.426a2.5 2.5 0 0 1 2.502 0l39 22.547a2.5 2.5 0 0 1 1.249 2.164v45.101a2.5 2.5 0 0 1-1.249 2.164l-39 22.547a2.5 2.5 0 0 1-2.502 0l-39-22.547a2.5 2.5 0 0 1-1.249-2.164v-45.1a2.5 2.5 0 0 1 1.249-2.165z"/><path fill="#fff" d="M923.749 34.426a2.5 2.5 0 0 1 2.502 0l39 22.547a2.5 2.5 0 0 1 1.249 2.164v45.101a2.5 2.5 0 0 1-1.249 2.164l-39 22.547a2.5 2.5 0 0 1-2.502 0l-39-22.547a2.5 2.5 0 0 1-1.249-2.164v-45.1a2.5 2.5 0 0 1 1.249-2.165z"/><path fill="#fff" d="M1006.75 34.426a2.5 2.5 0 0 1 2.5 0l39 22.547a2.51 2.51 0 0 1 1.25 2.164v45.101c0 .893-.48 1.717-1.25 2.164l-39 22.547c-.77.448-1.73.448-2.5 0l-39.001-22.547a2.5 2.5 0 0 1-1.249-2.164v-45.1a2.5 2.5 0 0 1 1.249-2.165zm83 0a2.5 2.5 0 0 1 2.5 0l39 22.547a2.51 2.51 0 0 1 1.25 2.164v45.101c0 .893-.48 1.717-1.25 2.164l-39 22.547c-.77.448-1.73.448-2.5 0l-39-22.547a2.5 2.5 0 0 1-1.25-2.164v-45.1c0-.893.48-1.718 1.25-2.165zm83 0a2.5 2.5 0 0 1 2.5 0l39 22.547a2.51 2.51 0 0 1 1.25 2.164v45.101c0 .893-.48 1.717-1.25 2.164l-39 22.547c-.77.448-1.73.448-2.5 0l-39-22.547a2.5 2.5 0 0 1-1.25-2.164v-45.1c0-.893.48-1.718 1.25-2.165zm83 0a2.5 2.5 0 0 1 2.5 0l39 22.547a2.51 2.51 0 0 1 1.25 2.164v45.101c0 .893-.48 1.717-1.25 2.164l-39 22.547c-.77.448-1.73.448-2.5 0l-39-22.547a2.5 2.5 0 0 1-1.25-2.164v-45.1c0-.893.48-1.718 1.25-2.165zm83 0a2.5 2.5 0 0 1 2.5 0l39 22.547a2.51 2.51 0 0 1 1.25 2.164v45.101c0 .893-.48 1.717-1.25 2.164l-39 22.547c-.77.448-1.73.448-2.5 0l-39-22.547a2.5 2.5 0 0 1-1.25-2.164v-45.1c0-.893.48-1.718 1.25-2.165zm83 0a2.5 2.5 0 0 1 2.5 0l39 22.547a2.51 2.51 0 0 1 1.25 2.164v45.101c0 .893-.48 1.717-1.25 2.164l-39 22.547c-.77.448-1.73.448-2.5 0l-39-22.547a2.5 2.5 0 0 1-1.25-2.164v-45.1c0-.893.48-1.718 1.25-2.165zM52.249 105.551a2.5 2.5 0 0 1 2.502 0l39 22.547A2.5 2.5 0 0 1 95 130.262v45.101a2.5 2.5 0 0 1-1.249 2.164l-39 22.547a2.5 2.5 0 0 1-2.502 0l-39-22.547A2.5 2.5 0 0 1 12 175.363v-45.101a2.5 2.5 0 0 1 1.249-2.164zm83 0a2.5 2.5 0 0 1 2.502 0l39 22.547a2.5 2.5 0 0 1 1.249 2.164v45.101a2.5 2.5 0 0 1-1.249 2.164l-39 22.547a2.5 2.5 0 0 1-2.502 0l-39-22.547A2.5 2.5 0 0 1 95 175.363v-45.101a2.5 2.5 0 0 1 1.249-2.164z"/><path fill="#fff" d="M218.249 105.551a2.5 2.5 0 0 1 2.502 0l39 22.547a2.5 2.5 0 0 1 1.249 2.164v45.101a2.5 2.5 0 0 1-1.249 2.164l-39 22.547a2.5 2.5 0 0 1-2.502 0l-39-22.547a2.5 2.5 0 0 1-1.249-2.164v-45.101a2.5 2.5 0 0 1 1.249-2.164zm83 0a2.5 2.5 0 0 1 2.502 0l39 22.547a2.5 2.5 0 0 1 1.249 2.164v45.101a2.5 2.5 0 0 1-1.249 2.164l-39 22.547a2.5 2.5 0 0 1-2.502 0l-39-22.547a2.5 2.5 0 0 1-1.249-2.164v-45.101a2.5 2.5 0 0 1 1.249-2.164z"/><path fill="#F5F3FF" d="M384.249 105.551a2.5 2.5 0 0 1 2.502 0l39 22.547a2.5 2.5 0 0 1 1.249 2.164v45.101a2.5 2.5 0 0 1-1.249 2.164l-39 22.547a2.5 2.5 0 0 1-2.502 0l-39-22.547a2.5 2.5 0 0 1-1.249-2.164v-45.101a2.5 2.5 0 0 1 1.249-2.164z"/><path fill="#fff" d="M467.249 105.551a2.5 2.5 0 0 1 2.502 0l39 22.547a2.5 2.5 0 0 1 1.249 2.164v45.101a2.5 2.5 0 0 1-1.249 2.164l-39 22.547a2.5 2.5 0 0 1-2.502 0l-39-22.547a2.5 2.5 0 0 1-1.249-2.164v-45.101a2.5 2.5 0 0 1 1.249-2.164z"/><path fill="#fff" d="M550.249 105.551a2.5 2.5 0 0 1 2.502 0l39 22.547a2.5 2.5 0 0 1 1.249 2.164v45.101a2.5 2.5 0 0 1-1.249 2.164l-39 22.547a2.5 2.5 0 0 1-2.502 0l-39-22.547a2.5 2.5 0 0 1-1.249-2.164v-45.101a2.5 2.5 0 0 1 1.249-2.164zm83 0a2.5 2.5 0 0 1 2.502 0l39 22.547a2.5 2.5 0 0 1 1.249 2.164v45.101a2.5 2.5 0 0 1-1.249 2.164l-39 22.547a2.5 2.5 0 0 1-2.502 0l-39-22.547a2.5 2.5 0 0 1-1.249-2.164v-45.101a2.5 2.5 0 0 1 1.249-2.164zm83 0a2.5 2.5 0 0 1 2.502 0l39 22.547a2.5 2.5 0 0 1 1.249 2.164v45.101a2.5 2.5 0 0 1-1.249 2.164l-39 22.547a2.5 2.5 0 0 1-2.502 0l-39-22.547a2.5 2.5 0 0 1-1.249-2.164v-45.101a2.5 2.5 0 0 1 1.249-2.164zm83 0a2.5 2.5 0 0 1 2.502 0l39 22.547a2.5 2.5 0 0 1 1.249 2.164v45.101a2.5 2.5 0 0 1-1.249 2.164l-39 22.547a2.5 2.5 0 0 1-2.502 0l-39-22.547a2.5 2.5 0 0 1-1.249-2.164v-45.101a2.5 2.5 0 0 1 1.249-2.164zm83 0a2.5 2.5 0 0 1 2.502 0l39 22.547a2.5 2.5 0 0 1 1.249 2.164v45.101a2.5 2.5 0 0 1-1.249 2.164l-39 22.547a2.5 2.5 0 0 1-2.502 0l-39-22.547a2.5 2.5 0 0 1-1.249-2.164v-45.101a2.5 2.5 0 0 1 1.249-2.164zm83 0a2.5 2.5 0 0 1 2.502 0l38.999 22.547a2.5 2.5 0 0 1 1.25 2.164v45.101c0 .893-.48 1.717-1.25 2.164l-38.999 22.547a2.5 2.5 0 0 1-2.502 0l-39-22.547a2.5 2.5 0 0 1-1.249-2.164v-45.101a2.5 2.5 0 0 1 1.249-2.164zm83.001 0a2.49 2.49 0 0 1 2.5 0l39 22.547a2.5 2.5 0 0 1 1.25 2.164v45.101c0 .893-.48 1.717-1.25 2.164l-39 22.547c-.77.448-1.73.448-2.5 0l-39-22.547a2.5 2.5 0 0 1-1.25-2.164v-45.101c0-.893.48-1.717 1.25-2.164z"/><path fill="#F5F3FF" d="M1131.25 105.551a2.49 2.49 0 0 1 2.5 0l39 22.547a2.5 2.5 0 0 1 1.25 2.164v45.101c0 .893-.48 1.717-1.25 2.164l-39 22.547c-.77.448-1.73.448-2.5 0l-39-22.547a2.5 2.5 0 0 1-1.25-2.164v-45.101c0-.893.48-1.717 1.25-2.164z"/><path fill="#fff" d="M1214.25 105.551a2.49 2.49 0 0 1 2.5 0l39 22.547a2.5 2.5 0 0 1 1.25 2.164v45.101c0 .893-.48 1.717-1.25 2.164l-39 22.547c-.77.448-1.73.448-2.5 0l-39-22.547a2.5 2.5 0 0 1-1.25-2.164v-45.101c0-.893.48-1.717 1.25-2.164zm83 0a2.49 2.49 0 0 1 2.5 0l39 22.547a2.5 2.5 0 0 1 1.25 2.164v45.101c0 .893-.48 1.717-1.25 2.164l-39 22.547c-.77.448-1.73.448-2.5 0l-39-22.547a2.5 2.5 0 0 1-1.25-2.164v-45.101c0-.893.48-1.717 1.25-2.164zm83 0a2.49 2.49 0 0 1 2.5 0l39 22.547a2.5 2.5 0 0 1 1.25 2.164v45.101c0 .893-.48 1.717-1.25 2.164l-39 22.547c-.77.448-1.73.448-2.5 0l-39-22.547a2.5 2.5 0 0 1-1.25-2.164v-45.101c0-.893.48-1.717 1.25-2.164zm83 0a2.49 2.49 0 0 1 2.5 0l39 22.547a2.5 2.5 0 0 1 1.25 2.164v45.101c0 .893-.48 1.717-1.25 2.164l-39 22.547c-.77.448-1.73.448-2.5 0l-39-22.547a2.5 2.5 0 0 1-1.25-2.164v-45.101c0-.893.48-1.717 1.25-2.164zM10.749 176.676a2.5 2.5 0 0 1 2.502 0l39 22.547a2.5 2.5 0 0 1 1.249 2.164v45.101a2.5 2.5 0 0 1-1.249 2.164l-39 22.547a2.5 2.5 0 0 1-2.502 0l-39-22.547a2.5 2.5 0 0 1-1.249-2.164v-45.101a2.5 2.5 0 0 1 1.249-2.164z"/><path fill="#fff" d="M93.749 176.676a2.5 2.5 0 0 1 2.502 0l39 22.547a2.5 2.5 0 0 1 1.249 2.164v45.101a2.5 2.5 0 0 1-1.249 2.164l-39 22.547a2.5 2.5 0 0 1-2.502 0l-39-22.547a2.5 2.5 0 0 1-1.249-2.164v-45.101a2.5 2.5 0 0 1 1.249-2.164zm83 0a2.5 2.5 0 0 1 2.502 0l39 22.547a2.5 2.5 0 0 1 1.249 2.164v45.101a2.5 2.5 0 0 1-1.249 2.164l-39 22.547a2.5 2.5 0 0 1-2.502 0l-39-22.547a2.5 2.5 0 0 1-1.249-2.164v-45.101a2.5 2.5 0 0 1 1.249-2.164zm83 0a2.5 2.5 0 0 1 2.502 0l39 22.547a2.5 2.5 0 0 1 1.249 2.164v45.101a2.5 2.5 0 0 1-1.249 2.164l-39 22.547a2.5 2.5 0 0 1-2.502 0l-39-22.547a2.5 2.5 0 0 1-1.249-2.164v-45.101a2.5 2.5 0 0 1 1.249-2.164z"/><path fill="#fff" d="M342.749 176.676a2.5 2.5 0 0 1 2.502 0l39 22.547a2.5 2.5 0 0 1 1.249 2.164v45.101a2.5 2.5 0 0 1-1.249 2.164l-39 22.547a2.5 2.5 0 0 1-2.502 0l-39-22.547a2.5 2.5 0 0 1-1.249-2.164v-45.101a2.5 2.5 0 0 1 1.249-2.164z"/><path fill="#fff" d="M425.749 176.676a2.5 2.5 0 0 1 2.502 0l39 22.547a2.5 2.5 0 0 1 1.249 2.164v45.101a2.5 2.5 0 0 1-1.249 2.164l-39 22.547a2.5 2.5 0 0 1-2.502 0l-39-22.547a2.5 2.5 0 0 1-1.249-2.164v-45.101a2.5 2.5 0 0 1 1.249-2.164z"/><path fill="#fff" d="M508.749 176.676a2.5 2.5 0 0 1 2.502 0l39 22.547a2.5 2.5 0 0 1 1.249 2.164v45.101a2.5 2.5 0 0 1-1.249 2.164l-39 22.547a2.5 2.5 0 0 1-2.502 0l-39-22.547a2.5 2.5 0 0 1-1.249-2.164v-45.101a2.5 2.5 0 0 1 1.249-2.164zm83 0a2.5 2.5 0 0 1 2.502 0l39 22.547a2.5 2.5 0 0 1 1.249 2.164v45.101a2.5 2.5 0 0 1-1.249 2.164l-39 22.547a2.5 2.5 0 0 1-2.502 0l-39-22.547a2.5 2.5 0 0 1-1.249-2.164v-45.101a2.5 2.5 0 0 1 1.249-2.164zm83 0a2.5 2.5 0 0 1 2.502 0l39 22.547a2.5 2.5 0 0 1 1.249 2.164v45.101a2.5 2.5 0 0 1-1.249 2.164l-39 22.547a2.5 2.5 0 0 1-2.502 0l-39-22.547a2.5 2.5 0 0 1-1.249-2.164v-45.101a2.5 2.5 0 0 1 1.249-2.164zm83 0a2.5 2.5 0 0 1 2.502 0l39 22.547a2.5 2.5 0 0 1 1.249 2.164v45.101a2.5 2.5 0 0 1-1.249 2.164l-39 22.547a2.5 2.5 0 0 1-2.502 0l-39-22.547a2.5 2.5 0 0 1-1.249-2.164v-45.101a2.5 2.5 0 0 1 1.249-2.164zm83 0a2.5 2.5 0 0 1 2.502 0l39 22.547a2.5 2.5 0 0 1 1.249 2.164v45.101a2.5 2.5 0 0 1-1.249 2.164l-39 22.547a2.5 2.5 0 0 1-2.502 0l-39-22.547a2.5 2.5 0 0 1-1.249-2.164v-45.101a2.5 2.5 0 0 1 1.249-2.164zm83 0a2.5 2.5 0 0 1 2.502 0l39 22.547a2.5 2.5 0 0 1 1.249 2.164v45.101a2.5 2.5 0 0 1-1.249 2.164l-39 22.547a2.5 2.5 0 0 1-2.502 0l-39-22.547a2.5 2.5 0 0 1-1.249-2.164v-45.101a2.5 2.5 0 0 1 1.249-2.164zm83.001 0a2.49 2.49 0 0 1 2.5 0l39 22.547a2.5 2.5 0 0 1 1.25 2.164v45.101c0 .893-.48 1.717-1.25 2.164l-39 22.547c-.77.448-1.73.448-2.5 0l-39.001-22.547a2.5 2.5 0 0 1-1.249-2.164v-45.101a2.5 2.5 0 0 1 1.249-2.164zm83 0a2.49 2.49 0 0 1 2.5 0l39 22.547a2.5 2.5 0 0 1 1.25 2.164v45.101c0 .893-.48 1.717-1.25 2.164l-39 22.547c-.77.448-1.73.448-2.5 0l-39-22.547a2.5 2.5 0 0 1-1.25-2.164v-45.101c0-.893.48-1.717 1.25-2.164zm83 0a2.49 2.49 0 0 1 2.5 0l39 22.547a2.5 2.5 0 0 1 1.25 2.164v45.101c0 .893-.48 1.717-1.25 2.164l-39 22.547c-.77.448-1.73.448-2.5 0l-39-22.547a2.5 2.5 0 0 1-1.25-2.164v-45.101c0-.893.48-1.717 1.25-2.164zm83 0a2.49 2.49 0 0 1 2.5 0l39 22.547a2.5 2.5 0 0 1 1.25 2.164v45.101c0 .893-.48 1.717-1.25 2.164l-39 22.547c-.77.448-1.73.448-2.5 0l-39-22.547a2.5 2.5 0 0 1-1.25-2.164v-45.101c0-.893.48-1.717 1.25-2.164zm83 0a2.49 2.49 0 0 1 2.5 0l39 22.547a2.5 2.5 0 0 1 1.25 2.164v45.101c0 .893-.48 1.717-1.25 2.164l-39 22.547c-.77.448-1.73.448-2.5 0l-39-22.547a2.5 2.5 0 0 1-1.25-2.164v-45.101c0-.893.48-1.717 1.25-2.164zm83 0a2.49 2.49 0 0 1 2.5 0l39 22.547a2.5 2.5 0 0 1 1.25 2.164v45.101c0 .893-.48 1.717-1.25 2.164l-39 22.547c-.77.448-1.73.448-2.5 0l-39-22.547a2.5 2.5 0 0 1-1.25-2.164v-45.101c0-.893.48-1.717 1.25-2.164zM52.249 247.801a2.5 2.5 0 0 1 2.502 0l39 22.547A2.5 2.5 0 0 1 95 272.512v45.101a2.5 2.5 0 0 1-1.249 2.164l-39 22.547a2.5 2.5 0 0 1-2.502 0l-39-22.547A2.5 2.5 0 0 1 12 317.613v-45.101a2.5 2.5 0 0 1 1.249-2.164zm83 0a2.5 2.5 0 0 1 2.502 0l39 22.547a2.5 2.5 0 0 1 1.249 2.164v45.101a2.5 2.5 0 0 1-1.249 2.164l-39 22.547a2.5 2.5 0 0 1-2.502 0l-39-22.547A2.5 2.5 0 0 1 95 317.613v-45.101a2.5 2.5 0 0 1 1.249-2.164z"/><path fill="#fff" d="M218.249 247.801a2.5 2.5 0 0 1 2.502 0l39 22.547a2.5 2.5 0 0 1 1.249 2.164v45.101a2.5 2.5 0 0 1-1.249 2.164l-39 22.547a2.5 2.5 0 0 1-2.502 0l-39-22.547a2.5 2.5 0 0 1-1.249-2.164v-45.101a2.5 2.5 0 0 1 1.249-2.164zm83 0a2.5 2.5 0 0 1 2.502 0l39 22.547a2.5 2.5 0 0 1 1.249 2.164v45.101a2.5 2.5 0 0 1-1.249 2.164l-39 22.547a2.5 2.5 0 0 1-2.502 0l-39-22.547a2.5 2.5 0 0 1-1.249-2.164v-45.101a2.5 2.5 0 0 1 1.249-2.164z"/><path fill="#fff" d="M384.249 247.801a2.5 2.5 0 0 1 2.502 0l39 22.547a2.5 2.5 0 0 1 1.249 2.164v45.101a2.5 2.5 0 0 1-1.249 2.164l-39 22.547a2.5 2.5 0 0 1-2.502 0l-39-22.547a2.5 2.5 0 0 1-1.249-2.164v-45.101a2.5 2.5 0 0 1 1.249-2.164z"/><path fill="#fff" d="M467.249 247.801a2.5 2.5 0 0 1 2.502 0l39 22.547a2.5 2.5 0 0 1 1.249 2.164v45.101a2.5 2.5 0 0 1-1.249 2.164l-39 22.547a2.5 2.5 0 0 1-2.502 0l-39-22.547a2.5 2.5 0 0 1-1.249-2.164v-45.101a2.5 2.5 0 0 1 1.249-2.164z"/><path fill="#F5F3FF" d="M550.249 247.801a2.5 2.5 0 0 1 2.502 0l39 22.547a2.5 2.5 0 0 1 1.249 2.164v45.101a2.5 2.5 0 0 1-1.249 2.164l-39 22.547a2.5 2.5 0 0 1-2.502 0l-39-22.547a2.5 2.5 0 0 1-1.249-2.164v-45.101a2.5 2.5 0 0 1 1.249-2.164z"/><path fill="#fff" d="M633.249 247.801a2.5 2.5 0 0 1 2.502 0l39 22.547a2.5 2.5 0 0 1 1.249 2.164v45.101a2.5 2.5 0 0 1-1.249 2.164l-39 22.547a2.5 2.5 0 0 1-2.502 0l-39-22.547a2.5 2.5 0 0 1-1.249-2.164v-45.101a2.5 2.5 0 0 1 1.249-2.164zm83 0a2.5 2.5 0 0 1 2.502 0l39 22.547a2.5 2.5 0 0 1 1.249 2.164v45.101a2.5 2.5 0 0 1-1.249 2.164l-39 22.547a2.5 2.5 0 0 1-2.502 0l-39-22.547a2.5 2.5 0 0 1-1.249-2.164v-45.101a2.5 2.5 0 0 1 1.249-2.164zm83 0a2.5 2.5 0 0 1 2.502 0l39 22.547a2.5 2.5 0 0 1 1.249 2.164v45.101a2.5 2.5 0 0 1-1.249 2.164l-39 22.547a2.5 2.5 0 0 1-2.502 0l-39-22.547a2.5 2.5 0 0 1-1.249-2.164v-45.101a2.5 2.5 0 0 1 1.249-2.164zm83 0a2.5 2.5 0 0 1 2.502 0l39 22.547a2.5 2.5 0 0 1 1.249 2.164v45.101a2.5 2.5 0 0 1-1.249 2.164l-39 22.547a2.5 2.5 0 0 1-2.502 0l-39-22.547a2.5 2.5 0 0 1-1.249-2.164v-45.101a2.5 2.5 0 0 1 1.249-2.164zm83 0a2.5 2.5 0 0 1 2.502 0l38.999 22.547a2.5 2.5 0 0 1 1.25 2.164v45.101c0 .893-.48 1.717-1.25 2.164l-38.999 22.547a2.5 2.5 0 0 1-2.502 0l-39-22.547a2.5 2.5 0 0 1-1.249-2.164v-45.101a2.5 2.5 0 0 1 1.249-2.164zm83.001 0a2.49 2.49 0 0 1 2.5 0l39 22.547a2.5 2.5 0 0 1 1.25 2.164v45.101c0 .893-.48 1.717-1.25 2.164l-39 22.547c-.77.448-1.73.448-2.5 0l-39-22.547a2.5 2.5 0 0 1-1.25-2.164v-45.101c0-.893.48-1.717 1.25-2.164zm83 0a2.49 2.49 0 0 1 2.5 0l39 22.547a2.5 2.5 0 0 1 1.25 2.164v45.101c0 .893-.48 1.717-1.25 2.164l-39 22.547c-.77.448-1.73.448-2.5 0l-39-22.547a2.5 2.5 0 0 1-1.25-2.164v-45.101c0-.893.48-1.717 1.25-2.164zm83 0a2.49 2.49 0 0 1 2.5 0l39 22.547a2.5 2.5 0 0 1 1.25 2.164v45.101c0 .893-.48 1.717-1.25 2.164l-39 22.547c-.77.448-1.73.448-2.5 0l-39-22.547a2.5 2.5 0 0 1-1.25-2.164v-45.101c0-.893.48-1.717 1.25-2.164zm83 0a2.49 2.49 0 0 1 2.5 0l39 22.547a2.5 2.5 0 0 1 1.25 2.164v45.101c0 .893-.48 1.717-1.25 2.164l-39 22.547c-.77.448-1.73.448-2.5 0l-39-22.547a2.5 2.5 0 0 1-1.25-2.164v-45.101c0-.893.48-1.717 1.25-2.164zm83 0a2.49 2.49 0 0 1 2.5 0l39 22.547a2.5 2.5 0 0 1 1.25 2.164v45.101c0 .893-.48 1.717-1.25 2.164l-39 22.547c-.77.448-1.73.448-2.5 0l-39-22.547a2.5 2.5 0 0 1-1.25-2.164v-45.101c0-.893.48-1.717 1.25-2.164zm83 0a2.49 2.49 0 0 1 2.5 0l39 22.547a2.5 2.5 0 0 1 1.25 2.164v45.101c0 .893-.48 1.717-1.25 2.164l-39 22.547c-.77.448-1.73.448-2.5 0l-39-22.547a2.5 2.5 0 0 1-1.25-2.164v-45.101c0-.893.48-1.717 1.25-2.164zM10.749 318.926a2.5 2.5 0 0 1 2.502 0l39 22.547a2.5 2.5 0 0 1 1.249 2.164v45.101a2.5 2.5 0 0 1-1.249 2.164l-39 22.547a2.5 2.5 0 0 1-2.502 0l-39-22.547a2.5 2.5 0 0 1-1.249-2.164v-45.101a2.5 2.5 0 0 1 1.249-2.164z"/><path fill="#fff" d="M93.749 318.926a2.5 2.5 0 0 1 2.502 0l39 22.547a2.5 2.5 0 0 1 1.249 2.164v45.101a2.5 2.5 0 0 1-1.249 2.164l-39 22.547a2.5 2.5 0 0 1-2.502 0l-39-22.547a2.5 2.5 0 0 1-1.249-2.164v-45.101a2.5 2.5 0 0 1 1.249-2.164zm83 0a2.5 2.5 0 0 1 2.502 0l39 22.547a2.5 2.5 0 0 1 1.249 2.164v45.101a2.5 2.5 0 0 1-1.249 2.164l-39 22.547a2.5 2.5 0 0 1-2.502 0l-39-22.547a2.5 2.5 0 0 1-1.249-2.164v-45.101a2.5 2.5 0 0 1 1.249-2.164zm83 0a2.5 2.5 0 0 1 2.502 0l39 22.547a2.5 2.5 0 0 1 1.249 2.164v45.101a2.5 2.5 0 0 1-1.249 2.164l-39 22.547a2.5 2.5 0 0 1-2.502 0l-39-22.547a2.5 2.5 0 0 1-1.249-2.164v-45.101a2.5 2.5 0 0 1 1.249-2.164z"/><path fill="#fff" d="M342.749 318.926a2.5 2.5 0 0 1 2.502 0l39 22.547a2.5 2.5 0 0 1 1.249 2.164v45.101a2.5 2.5 0 0 1-1.249 2.164l-39 22.547a2.5 2.5 0 0 1-2.502 0l-39-22.547a2.5 2.5 0 0 1-1.249-2.164v-45.101a2.5 2.5 0 0 1 1.249-2.164z"/><path fill="#fff" d="M425.749 318.926a2.5 2.5 0 0 1 2.502 0l39 22.547a2.5 2.5 0 0 1 1.249 2.164v45.101a2.5 2.5 0 0 1-1.249 2.164l-39 22.547a2.5 2.5 0 0 1-2.502 0l-39-22.547a2.5 2.5 0 0 1-1.249-2.164v-45.101a2.5 2.5 0 0 1 1.249-2.164z"/><path fill="#fff" d="M508.749 318.926a2.5 2.5 0 0 1 2.502 0l39 22.547a2.5 2.5 0 0 1 1.249 2.164v45.101a2.5 2.5 0 0 1-1.249 2.164l-39 22.547a2.5 2.5 0 0 1-2.502 0l-39-22.547a2.5 2.5 0 0 1-1.249-2.164v-45.101a2.5 2.5 0 0 1 1.249-2.164zm83 0a2.5 2.5 0 0 1 2.502 0l39 22.547a2.5 2.5 0 0 1 1.249 2.164v45.101a2.5 2.5 0 0 1-1.249 2.164l-39 22.547a2.5 2.5 0 0 1-2.502 0l-39-22.547a2.5 2.5 0 0 1-1.249-2.164v-45.101a2.5 2.5 0 0 1 1.249-2.164zm83 0a2.5 2.5 0 0 1 2.502 0l39 22.547a2.5 2.5 0 0 1 1.249 2.164v45.101a2.5 2.5 0 0 1-1.249 2.164l-39 22.547a2.5 2.5 0 0 1-2.502 0l-39-22.547a2.5 2.5 0 0 1-1.249-2.164v-45.101a2.5 2.5 0 0 1 1.249-2.164zm83 0a2.5 2.5 0 0 1 2.502 0l39 22.547a2.5 2.5 0 0 1 1.249 2.164v45.101a2.5 2.5 0 0 1-1.249 2.164l-39 22.547a2.5 2.5 0 0 1-2.502 0l-39-22.547a2.5 2.5 0 0 1-1.249-2.164v-45.101a2.5 2.5 0 0 1 1.249-2.164z"/><path fill="#F5F3FF" d="M840.749 318.926a2.5 2.5 0 0 1 2.502 0l39 22.547a2.5 2.5 0 0 1 1.249 2.164v45.101a2.5 2.5 0 0 1-1.249 2.164l-39 22.547a2.5 2.5 0 0 1-2.502 0l-39-22.547a2.5 2.5 0 0 1-1.249-2.164v-45.101a2.5 2.5 0 0 1 1.249-2.164zm83 0a2.5 2.5 0 0 1 2.502 0l39 22.547a2.5 2.5 0 0 1 1.249 2.164v45.101a2.5 2.5 0 0 1-1.249 2.164l-39 22.547a2.5 2.5 0 0 1-2.502 0l-39-22.547a2.5 2.5 0 0 1-1.249-2.164v-45.101a2.5 2.5 0 0 1 1.249-2.164z"/><path fill="#fff" d="M1006.75 318.926a2.49 2.49 0 0 1 2.5 0l39 22.547a2.5 2.5 0 0 1 1.25 2.164v45.101c0 .893-.48 1.717-1.25 2.164l-39 22.547c-.77.448-1.73.448-2.5 0l-39.001-22.547a2.5 2.5 0 0 1-1.249-2.164v-45.101a2.5 2.5 0 0 1 1.249-2.164zm83 0a2.49 2.49 0 0 1 2.5 0l39 22.547a2.5 2.5 0 0 1 1.25 2.164v45.101c0 .893-.48 1.717-1.25 2.164l-39 22.547c-.77.448-1.73.448-2.5 0l-39-22.547a2.5 2.5 0 0 1-1.25-2.164v-45.101c0-.893.48-1.717 1.25-2.164zm83 0a2.49 2.49 0 0 1 2.5 0l39 22.547a2.5 2.5 0 0 1 1.25 2.164v45.101c0 .893-.48 1.717-1.25 2.164l-39 22.547c-.77.448-1.73.448-2.5 0l-39-22.547a2.5 2.5 0 0 1-1.25-2.164v-45.101c0-.893.48-1.717 1.25-2.164zm83 0a2.49 2.49 0 0 1 2.5 0l39 22.547a2.5 2.5 0 0 1 1.25 2.164v45.101c0 .893-.48 1.717-1.25 2.164l-39 22.547c-.77.448-1.73.448-2.5 0l-39-22.547a2.5 2.5 0 0 1-1.25-2.164v-45.101c0-.893.48-1.717 1.25-2.164zm83 0a2.49 2.49 0 0 1 2.5 0l39 22.547a2.5 2.5 0 0 1 1.25 2.164v45.101c0 .893-.48 1.717-1.25 2.164l-39 22.547c-.77.448-1.73.448-2.5 0l-39-22.547a2.5 2.5 0 0 1-1.25-2.164v-45.101c0-.893.48-1.717 1.25-2.164zm83 0a2.49 2.49 0 0 1 2.5 0l39 22.547a2.5 2.5 0 0 1 1.25 2.164v45.101c0 .893-.48 1.717-1.25 2.164l-39 22.547c-.77.448-1.73.448-2.5 0l-39-22.547a2.5 2.5 0 0 1-1.25-2.164v-45.101c0-.893.48-1.717 1.25-2.164zM52.249 390.051a2.5 2.5 0 0 1 2.502 0l39 22.547A2.5 2.5 0 0 1 95 414.762v45.101a2.5 2.5 0 0 1-1.249 2.164l-39 22.547a2.5 2.5 0 0 1-2.502 0l-39-22.547A2.5 2.5 0 0 1 12 459.863v-45.101a2.5 2.5 0 0 1 1.249-2.164zm83 0a2.5 2.5 0 0 1 2.502 0l39 22.547a2.5 2.5 0 0 1 1.249 2.164v45.101a2.5 2.5 0 0 1-1.249 2.164l-39 22.547a2.5 2.5 0 0 1-2.502 0l-39-22.547A2.5 2.5 0 0 1 95 459.863v-45.101a2.5 2.5 0 0 1 1.249-2.164z"/><path fill="#fff" d="M218.249 390.051a2.5 2.5 0 0 1 2.502 0l39 22.547a2.5 2.5 0 0 1 1.249 2.164v45.101a2.5 2.5 0 0 1-1.249 2.164l-39 22.547a2.5 2.5 0 0 1-2.502 0l-39-22.547a2.5 2.5 0 0 1-1.249-2.164v-45.101a2.5 2.5 0 0 1 1.249-2.164zm83 0a2.5 2.5 0 0 1 2.502 0l39 22.547a2.5 2.5 0 0 1 1.249 2.164v45.101a2.5 2.5 0 0 1-1.249 2.164l-39 22.547a2.5 2.5 0 0 1-2.502 0l-39-22.547a2.5 2.5 0 0 1-1.249-2.164v-45.101a2.5 2.5 0 0 1 1.249-2.164z"/><path fill="#fff" d="M384.249 390.051a2.5 2.5 0 0 1 2.502 0l39 22.547a2.5 2.5 0 0 1 1.249 2.164v45.101a2.5 2.5 0 0 1-1.249 2.164l-39 22.547a2.5 2.5 0 0 1-2.502 0l-39-22.547a2.5 2.5 0 0 1-1.249-2.164v-45.101a2.5 2.5 0 0 1 1.249-2.164z"/><path fill="#fff" d="M467.249 390.051a2.5 2.5 0 0 1 2.502 0l39 22.547a2.5 2.5 0 0 1 1.249 2.164v45.101a2.5 2.5 0 0 1-1.249 2.164l-39 22.547a2.5 2.5 0 0 1-2.502 0l-39-22.547a2.5 2.5 0 0 1-1.249-2.164v-45.101a2.5 2.5 0 0 1 1.249-2.164z"/><path fill="#fff" d="M550.249 390.051a2.5 2.5 0 0 1 2.502 0l39 22.547a2.5 2.5 0 0 1 1.249 2.164v45.101a2.5 2.5 0 0 1-1.249 2.164l-39 22.547a2.5 2.5 0 0 1-2.502 0l-39-22.547a2.5 2.5 0 0 1-1.249-2.164v-45.101a2.5 2.5 0 0 1 1.249-2.164zm83 0a2.5 2.5 0 0 1 2.502 0l39 22.547a2.5 2.5 0 0 1 1.249 2.164v45.101a2.5 2.5 0 0 1-1.249 2.164l-39 22.547a2.5 2.5 0 0 1-2.502 0l-39-22.547a2.5 2.5 0 0 1-1.249-2.164v-45.101a2.5 2.5 0 0 1 1.249-2.164zm83 0a2.5 2.5 0 0 1 2.502 0l39 22.547a2.5 2.5 0 0 1 1.249 2.164v45.101a2.5 2.5 0 0 1-1.249 2.164l-39 22.547a2.5 2.5 0 0 1-2.502 0l-39-22.547a2.5 2.5 0 0 1-1.249-2.164v-45.101a2.5 2.5 0 0 1 1.249-2.164zm83 0a2.5 2.5 0 0 1 2.502 0l39 22.547a2.5 2.5 0 0 1 1.249 2.164v45.101a2.5 2.5 0 0 1-1.249 2.164l-39 22.547a2.5 2.5 0 0 1-2.502 0l-39-22.547a2.5 2.5 0 0 1-1.249-2.164v-45.101a2.5 2.5 0 0 1 1.249-2.164zm83 0a2.5 2.5 0 0 1 2.502 0l39 22.547a2.5 2.5 0 0 1 1.249 2.164v45.101a2.5 2.5 0 0 1-1.249 2.164l-39 22.547a2.5 2.5 0 0 1-2.502 0l-39-22.547a2.5 2.5 0 0 1-1.249-2.164v-45.101a2.5 2.5 0 0 1 1.249-2.164zm83 0a2.5 2.5 0 0 1 2.502 0l38.999 22.547a2.5 2.5 0 0 1 1.25 2.164v45.101c0 .893-.48 1.717-1.25 2.164l-38.999 22.547a2.5 2.5 0 0 1-2.502 0l-39-22.547a2.5 2.5 0 0 1-1.249-2.164v-45.101a2.5 2.5 0 0 1 1.249-2.164zm83.001 0a2.49 2.49 0 0 1 2.5 0l39 22.547a2.5 2.5 0 0 1 1.25 2.164v45.101c0 .893-.48 1.717-1.25 2.164l-39 22.547c-.77.448-1.73.448-2.5 0l-39-22.547a2.5 2.5 0 0 1-1.25-2.164v-45.101c0-.893.48-1.717 1.25-2.164zm83 0a2.49 2.49 0 0 1 2.5 0l39 22.547a2.5 2.5 0 0 1 1.25 2.164v45.101c0 .893-.48 1.717-1.25 2.164l-39 22.547c-.77.448-1.73.448-2.5 0l-39-22.547a2.5 2.5 0 0 1-1.25-2.164v-45.101c0-.893.48-1.717 1.25-2.164zm83 0a2.49 2.49 0 0 1 2.5 0l39 22.547a2.5 2.5 0 0 1 1.25 2.164v45.101c0 .893-.48 1.717-1.25 2.164l-39 22.547c-.77.448-1.73.448-2.5 0l-39-22.547a2.5 2.5 0 0 1-1.25-2.164v-45.101c0-.893.48-1.717 1.25-2.164zm83 0a2.49 2.49 0 0 1 2.5 0l39 22.547a2.5 2.5 0 0 1 1.25 2.164v45.101c0 .893-.48 1.717-1.25 2.164l-39 22.547c-.77.448-1.73.448-2.5 0l-39-22.547a2.5 2.5 0 0 1-1.25-2.164v-45.101c0-.893.48-1.717 1.25-2.164zm83 0a2.49 2.49 0 0 1 2.5 0l39 22.547a2.5 2.5 0 0 1 1.25 2.164v45.101c0 .893-.48 1.717-1.25 2.164l-39 22.547c-.77.448-1.73.448-2.5 0l-39-22.547a2.5 2.5 0 0 1-1.25-2.164v-45.101c0-.893.48-1.717 1.25-2.164zm83 0a2.49 2.49 0 0 1 2.5 0l39 22.547a2.5 2.5 0 0 1 1.25 2.164v45.101c0 .893-.48 1.717-1.25 2.164l-39 22.547c-.77.448-1.73.448-2.5 0l-39-22.547a2.5 2.5 0 0 1-1.25-2.164v-45.101c0-.893.48-1.717 1.25-2.164zM10.749 461.176a2.5 2.5 0 0 1 2.502 0l39 22.547a2.5 2.5 0 0 1 1.249 2.164v45.101a2.5 2.5 0 0 1-1.249 2.164l-39 22.547a2.5 2.5 0 0 1-2.502 0l-39-22.547a2.5 2.5 0 0 1-1.249-2.164v-45.101a2.5 2.5 0 0 1 1.249-2.164z"/><path fill="#fff" d="M93.749 461.176a2.5 2.5 0 0 1 2.502 0l39 22.547a2.5 2.5 0 0 1 1.249 2.164v45.101a2.5 2.5 0 0 1-1.249 2.164l-39 22.547a2.5 2.5 0 0 1-2.502 0l-39-22.547a2.5 2.5 0 0 1-1.249-2.164v-45.101a2.5 2.5 0 0 1 1.249-2.164zm83 0a2.5 2.5 0 0 1 2.502 0l39 22.547a2.5 2.5 0 0 1 1.249 2.164v45.101a2.5 2.5 0 0 1-1.249 2.164l-39 22.547a2.5 2.5 0 0 1-2.502 0l-39-22.547a2.5 2.5 0 0 1-1.249-2.164v-45.101a2.5 2.5 0 0 1 1.249-2.164zm83 0a2.5 2.5 0 0 1 2.502 0l39 22.547a2.5 2.5 0 0 1 1.249 2.164v45.101a2.5 2.5 0 0 1-1.249 2.164l-39 22.547a2.5 2.5 0 0 1-2.502 0l-39-22.547a2.5 2.5 0 0 1-1.249-2.164v-45.101a2.5 2.5 0 0 1 1.249-2.164z"/><path fill="#fff" d="M342.749 461.176a2.5 2.5 0 0 1 2.502 0l39 22.547a2.5 2.5 0 0 1 1.249 2.164v45.101a2.5 2.5 0 0 1-1.249 2.164l-39 22.547a2.5 2.5 0 0 1-2.502 0l-39-22.547a2.5 2.5 0 0 1-1.249-2.164v-45.101a2.5 2.5 0 0 1 1.249-2.164z"/><path fill="#fff" d="M425.749 461.176a2.5 2.5 0 0 1 2.502 0l39 22.547a2.5 2.5 0 0 1 1.249 2.164v45.101a2.5 2.5 0 0 1-1.249 2.164l-39 22.547a2.5 2.5 0 0 1-2.502 0l-39-22.547a2.5 2.5 0 0 1-1.249-2.164v-45.101a2.5 2.5 0 0 1 1.249-2.164z"/><path fill="#fff" d="M508.749 461.176a2.5 2.5 0 0 1 2.502 0l39 22.547a2.5 2.5 0 0 1 1.249 2.164v45.101a2.5 2.5 0 0 1-1.249 2.164l-39 22.547a2.5 2.5 0 0 1-2.502 0l-39-22.547a2.5 2.5 0 0 1-1.249-2.164v-45.101a2.5 2.5 0 0 1 1.249-2.164zm83 0a2.5 2.5 0 0 1 2.502 0l39 22.547a2.5 2.5 0 0 1 1.249 2.164v45.101a2.5 2.5 0 0 1-1.249 2.164l-39 22.547a2.5 2.5 0 0 1-2.502 0l-39-22.547a2.5 2.5 0 0 1-1.249-2.164v-45.101a2.5 2.5 0 0 1 1.249-2.164zm83 0a2.5 2.5 0 0 1 2.502 0l39 22.547a2.5 2.5 0 0 1 1.249 2.164v45.101a2.5 2.5 0 0 1-1.249 2.164l-39 22.547a2.5 2.5 0 0 1-2.502 0l-39-22.547a2.5 2.5 0 0 1-1.249-2.164v-45.101a2.5 2.5 0 0 1 1.249-2.164zm83 0a2.5 2.5 0 0 1 2.502 0l39 22.547a2.5 2.5 0 0 1 1.249 2.164v45.101a2.5 2.5 0 0 1-1.249 2.164l-39 22.547a2.5 2.5 0 0 1-2.502 0l-39-22.547a2.5 2.5 0 0 1-1.249-2.164v-45.101a2.5 2.5 0 0 1 1.249-2.164zm83 0a2.5 2.5 0 0 1 2.502 0l39 22.547a2.5 2.5 0 0 1 1.249 2.164v45.101a2.5 2.5 0 0 1-1.249 2.164l-39 22.547a2.5 2.5 0 0 1-2.502 0l-39-22.547a2.5 2.5 0 0 1-1.249-2.164v-45.101a2.5 2.5 0 0 1 1.249-2.164zm83 0a2.5 2.5 0 0 1 2.502 0l39 22.547a2.5 2.5 0 0 1 1.249 2.164v45.101a2.5 2.5 0 0 1-1.249 2.164l-39 22.547a2.5 2.5 0 0 1-2.502 0l-39-22.547a2.5 2.5 0 0 1-1.249-2.164v-45.101a2.5 2.5 0 0 1 1.249-2.164zm83.001 0a2.49 2.49 0 0 1 2.5 0l39 22.547a2.5 2.5 0 0 1 1.25 2.164v45.101c0 .893-.48 1.717-1.25 2.164l-39 22.547c-.77.448-1.73.448-2.5 0l-39.001-22.547a2.5 2.5 0 0 1-1.249-2.164v-45.101a2.5 2.5 0 0 1 1.249-2.164zm83 0a2.49 2.49 0 0 1 2.5 0l39 22.547a2.5 2.5 0 0 1 1.25 2.164v45.101c0 .893-.48 1.717-1.25 2.164l-39 22.547c-.77.448-1.73.448-2.5 0l-39-22.547a2.5 2.5 0 0 1-1.25-2.164v-45.101c0-.893.48-1.717 1.25-2.164zm83 0a2.49 2.49 0 0 1 2.5 0l39 22.547a2.5 2.5 0 0 1 1.25 2.164v45.101c0 .893-.48 1.717-1.25 2.164l-39 22.547c-.77.448-1.73.448-2.5 0l-39-22.547a2.5 2.5 0 0 1-1.25-2.164v-45.101c0-.893.48-1.717 1.25-2.164zm83 0a2.49 2.49 0 0 1 2.5 0l39 22.547a2.5 2.5 0 0 1 1.25 2.164v45.101c0 .893-.48 1.717-1.25 2.164l-39 22.547c-.77.448-1.73.448-2.5 0l-39-22.547a2.5 2.5 0 0 1-1.25-2.164v-45.101c0-.893.48-1.717 1.25-2.164zm83 0a2.49 2.49 0 0 1 2.5 0l39 22.547a2.5 2.5 0 0 1 1.25 2.164v45.101c0 .893-.48 1.717-1.25 2.164l-39 22.547c-.77.448-1.73.448-2.5 0l-39-22.547a2.5 2.5 0 0 1-1.25-2.164v-45.101c0-.893.48-1.717 1.25-2.164zm83 0a2.49 2.49 0 0 1 2.5 0l39 22.547a2.5 2.5 0 0 1 1.25 2.164v45.101c0 .893-.48 1.717-1.25 2.164l-39 22.547c-.77.448-1.73.448-2.5 0l-39-22.547a2.5 2.5 0 0 1-1.25-2.164v-45.101c0-.893.48-1.717 1.25-2.164zM52.249 532.301a2.5 2.5 0 0 1 2.502 0l39 22.547A2.5 2.5 0 0 1 95 557.012v45.101a2.5 2.5 0 0 1-1.249 2.164l-39 22.547a2.5 2.5 0 0 1-2.502 0l-39-22.547A2.5 2.5 0 0 1 12 602.113v-45.101a2.5 2.5 0 0 1 1.249-2.164zm83 0a2.5 2.5 0 0 1 2.502 0l39 22.547a2.5 2.5 0 0 1 1.249 2.164v45.101a2.5 2.5 0 0 1-1.249 2.164l-39 22.547a2.5 2.5 0 0 1-2.502 0l-39-22.547A2.5 2.5 0 0 1 95 602.113v-45.101a2.5 2.5 0 0 1 1.249-2.164z"/><path fill="#fff" d="M218.249 532.301a2.5 2.5 0 0 1 2.502 0l39 22.547a2.5 2.5 0 0 1 1.249 2.164v45.101a2.5 2.5 0 0 1-1.249 2.164l-39 22.547a2.5 2.5 0 0 1-2.502 0l-39-22.547a2.5 2.5 0 0 1-1.249-2.164v-45.101a2.5 2.5 0 0 1 1.249-2.164zm83 0a2.5 2.5 0 0 1 2.502 0l39 22.547a2.5 2.5 0 0 1 1.249 2.164v45.101a2.5 2.5 0 0 1-1.249 2.164l-39 22.547a2.5 2.5 0 0 1-2.502 0l-39-22.547a2.5 2.5 0 0 1-1.249-2.164v-45.101a2.5 2.5 0 0 1 1.249-2.164z"/><path fill="#fff" d="M384.249 532.301a2.5 2.5 0 0 1 2.502 0l39 22.547a2.5 2.5 0 0 1 1.249 2.164v45.101a2.5 2.5 0 0 1-1.249 2.164l-39 22.547a2.5 2.5 0 0 1-2.502 0l-39-22.547a2.5 2.5 0 0 1-1.249-2.164v-45.101a2.5 2.5 0 0 1 1.249-2.164z"/><path fill="#fff" d="M467.249 532.301a2.5 2.5 0 0 1 2.502 0l39 22.547a2.5 2.5 0 0 1 1.249 2.164v45.101a2.5 2.5 0 0 1-1.249 2.164l-39 22.547a2.5 2.5 0 0 1-2.502 0l-39-22.547a2.5 2.5 0 0 1-1.249-2.164v-45.101a2.5 2.5 0 0 1 1.249-2.164z"/><path fill="#fff" d="M550.249 532.301a2.5 2.5 0 0 1 2.502 0l39 22.547a2.5 2.5 0 0 1 1.249 2.164v45.101a2.5 2.5 0 0 1-1.249 2.164l-39 22.547a2.5 2.5 0 0 1-2.502 0l-39-22.547a2.5 2.5 0 0 1-1.249-2.164v-45.101a2.5 2.5 0 0 1 1.249-2.164zm83 0a2.5 2.5 0 0 1 2.502 0l39 22.547a2.5 2.5 0 0 1 1.249 2.164v45.101a2.5 2.5 0 0 1-1.249 2.164l-39 22.547a2.5 2.5 0 0 1-2.502 0l-39-22.547a2.5 2.5 0 0 1-1.249-2.164v-45.101a2.5 2.5 0 0 1 1.249-2.164zm83 0a2.5 2.5 0 0 1 2.502 0l39 22.547a2.5 2.5 0 0 1 1.249 2.164v45.101a2.5 2.5 0 0 1-1.249 2.164l-39 22.547a2.5 2.5 0 0 1-2.502 0l-39-22.547a2.5 2.5 0 0 1-1.249-2.164v-45.101a2.5 2.5 0 0 1 1.249-2.164zm83 0a2.5 2.5 0 0 1 2.502 0l39 22.547a2.5 2.5 0 0 1 1.249 2.164v45.101a2.5 2.5 0 0 1-1.249 2.164l-39 22.547a2.5 2.5 0 0 1-2.502 0l-39-22.547a2.5 2.5 0 0 1-1.249-2.164v-45.101a2.5 2.5 0 0 1 1.249-2.164zm83 0a2.5 2.5 0 0 1 2.502 0l39 22.547a2.5 2.5 0 0 1 1.249 2.164v45.101a2.5 2.5 0 0 1-1.249 2.164l-39 22.547a2.5 2.5 0 0 1-2.502 0l-39-22.547a2.5 2.5 0 0 1-1.249-2.164v-45.101a2.5 2.5 0 0 1 1.249-2.164zm83 0a2.5 2.5 0 0 1 2.502 0l38.999 22.547a2.5 2.5 0 0 1 1.25 2.164v45.101c0 .893-.48 1.717-1.25 2.164l-38.999 22.547a2.5 2.5 0 0 1-2.502 0l-39-22.547a2.5 2.5 0 0 1-1.249-2.164v-45.101a2.5 2.5 0 0 1 1.249-2.164zm83.001 0a2.49 2.49 0 0 1 2.5 0l39 22.547a2.5 2.5 0 0 1 1.25 2.164v45.101c0 .893-.48 1.717-1.25 2.164l-39 22.547c-.77.448-1.73.448-2.5 0l-39-22.547a2.5 2.5 0 0 1-1.25-2.164v-45.101c0-.893.48-1.717 1.25-2.164zm83 0a2.49 2.49 0 0 1 2.5 0l39 22.547a2.5 2.5 0 0 1 1.25 2.164v45.101c0 .893-.48 1.717-1.25 2.164l-39 22.547c-.77.448-1.73.448-2.5 0l-39-22.547a2.5 2.5 0 0 1-1.25-2.164v-45.101c0-.893.48-1.717 1.25-2.164zm83 0a2.49 2.49 0 0 1 2.5 0l39 22.547a2.5 2.5 0 0 1 1.25 2.164v45.101c0 .893-.48 1.717-1.25 2.164l-39 22.547c-.77.448-1.73.448-2.5 0l-39-22.547a2.5 2.5 0 0 1-1.25-2.164v-45.101c0-.893.48-1.717 1.25-2.164zm83 0a2.49 2.49 0 0 1 2.5 0l39 22.547a2.5 2.5 0 0 1 1.25 2.164v45.101c0 .893-.48 1.717-1.25 2.164l-39 22.547c-.77.448-1.73.448-2.5 0l-39-22.547a2.5 2.5 0 0 1-1.25-2.164v-45.101c0-.893.48-1.717 1.25-2.164zm83 0a2.49 2.49 0 0 1 2.5 0l39 22.547a2.5 2.5 0 0 1 1.25 2.164v45.101c0 .893-.48 1.717-1.25 2.164l-39 22.547c-.77.448-1.73.448-2.5 0l-39-22.547a2.5 2.5 0 0 1-1.25-2.164v-45.101c0-.893.48-1.717 1.25-2.164zm83 0a2.49 2.49 0 0 1 2.5 0l39 22.547a2.5 2.5 0 0 1 1.25 2.164v45.101c0 .893-.48 1.717-1.25 2.164l-39 22.547c-.77.448-1.73.448-2.5 0l-39-22.547a2.5 2.5 0 0 1-1.25-2.164v-45.101c0-.893.48-1.717 1.25-2.164z"/></g><defs><linearGradient id="a" x1="726.5" x2="726.5" y1="-38" y2="592" gradientUnits="userSpaceOnUse"><stop offset="0%" stop-color="#2563EB"/><stop offset=".706" stop-color="#6246EC" stop-opacity="0"/><stop offset="1" stop-color="#7C3AED" stop-opacity="0"/></linearGradient></defs></svg>