<svg xmlns="http://www.w3.org/2000/svg" width="1453" height="630" fill="none" viewBox="0 0 1453 630"><mask id="b" width="1453" height="630" x="0" y="0" maskUnits="userSpaceOnUse" style="mask-type:alpha"><path fill="url(#a)" d="M0 0h1453v630H0z"/></mask><g mask="url(#b)"><path fill="#171717" d="M51.999.868a3 3 0 0 1 3.002 0l39 22.547a3 3 0 0 1 1.499 2.597v45.1a3 3 0 0 1-1.499 2.598l-39 22.547a3 3 0 0 1-3.002 0l-39-22.547a3 3 0 0 1-1.499-2.597v-45.1a3 3 0 0 1 1.499-2.598z"/><path stroke="#4C1D95" stroke-opacity=".3" d="M52.249 1.3a2.5 2.5 0 0 1 2.502 0l39 22.548A2.5 2.5 0 0 1 95 26.012v45.1a2.5 2.5 0 0 1-1.249 2.165l-39 22.547a2.5 2.5 0 0 1-2.502 0l-39-22.547A2.5 2.5 0 0 1 12 71.113v-45.1a2.5 2.5 0 0 1 1.249-2.165z"/><path fill="#171717" d="M134.998.868a3 3 0 0 1 3.004 0l39 22.547a3 3 0 0 1 1.498 2.597v45.1a3 3 0 0 1-1.498 2.598l-39 22.547a3 3 0 0 1-3.004 0l-39-22.547a3 3 0 0 1-1.498-2.597v-45.1a3 3 0 0 1 1.499-2.598z"/><path stroke="#4C1D95" stroke-opacity=".3" d="M135.249 1.3a2.5 2.5 0 0 1 2.502 0l39 22.548A2.5 2.5 0 0 1 178 26.012v45.1a2.5 2.5 0 0 1-1.249 2.165l-39 22.547a2.5 2.5 0 0 1-2.502 0l-39-22.547A2.5 2.5 0 0 1 95 71.113v-45.1a2.5 2.5 0 0 1 1.249-2.165z"/><path fill="#171717" d="M217.998.868a3 3 0 0 1 3.004 0l39 22.547a3 3 0 0 1 1.498 2.597v45.1a3 3 0 0 1-1.498 2.598l-39 22.547a3 3 0 0 1-3.004 0l-39-22.547a3 3 0 0 1-1.498-2.597v-45.1a3 3 0 0 1 1.498-2.598z"/><path stroke="#4C1D95" stroke-opacity=".3" d="M218.249 1.3a2.5 2.5 0 0 1 2.502 0l39 22.548A2.5 2.5 0 0 1 261 26.012v45.1a2.5 2.5 0 0 1-1.249 2.165l-39 22.547a2.5 2.5 0 0 1-2.502 0l-39-22.547A2.5 2.5 0 0 1 178 71.113v-45.1a2.5 2.5 0 0 1 1.249-2.165z"/><path fill="#171717" d="M300.998.868a3 3 0 0 1 3.004 0l39 22.547a3 3 0 0 1 1.498 2.597v45.1a3 3 0 0 1-1.498 2.598l-39 22.547a3 3 0 0 1-3.004 0l-39-22.547a3 3 0 0 1-1.498-2.597v-45.1a3 3 0 0 1 1.498-2.598z"/><path stroke="#4C1D95" stroke-opacity=".3" d="M301.249 1.3a2.5 2.5 0 0 1 2.502 0l39 22.548A2.5 2.5 0 0 1 344 26.012v45.1a2.5 2.5 0 0 1-1.249 2.165l-39 22.547a2.5 2.5 0 0 1-2.502 0l-39-22.547A2.5 2.5 0 0 1 261 71.113v-45.1a2.5 2.5 0 0 1 1.249-2.165z"/><path fill="#171717" d="M383.998.868a3 3 0 0 1 3.004 0l39 22.547a3 3 0 0 1 1.498 2.597v45.1a3 3 0 0 1-1.498 2.598l-39 22.547a3 3 0 0 1-3.004 0l-39-22.547a3 3 0 0 1-1.498-2.597v-45.1a3 3 0 0 1 1.498-2.598z"/><path stroke="#4C1D95" stroke-opacity=".3" d="M384.249 1.3a2.5 2.5 0 0 1 2.502 0l39 22.548A2.5 2.5 0 0 1 427 26.012v45.1a2.5 2.5 0 0 1-1.249 2.165l-39 22.547a2.5 2.5 0 0 1-2.502 0l-39-22.547A2.5 2.5 0 0 1 344 71.113v-45.1a2.5 2.5 0 0 1 1.249-2.165z"/><path fill="#171717" d="M466.998.868a3 3 0 0 1 3.004 0l39 22.547a3 3 0 0 1 1.498 2.597v45.1a3 3 0 0 1-1.498 2.598l-39 22.547a3 3 0 0 1-3.004 0l-39-22.547a3 3 0 0 1-1.498-2.597v-45.1a3 3 0 0 1 1.498-2.598z"/><path stroke="#4C1D95" stroke-opacity=".3" d="M467.249 1.3a2.5 2.5 0 0 1 2.502 0l39 22.548A2.5 2.5 0 0 1 510 26.012v45.1a2.5 2.5 0 0 1-1.249 2.165l-39 22.547a2.5 2.5 0 0 1-2.502 0l-39-22.547A2.5 2.5 0 0 1 427 71.113v-45.1a2.5 2.5 0 0 1 1.249-2.165z"/><path fill="#171717" d="M549.998.868a3 3 0 0 1 3.004 0l39 22.547a3 3 0 0 1 1.498 2.597v45.1a3 3 0 0 1-1.498 2.598l-39 22.547a3 3 0 0 1-3.004 0l-39-22.547a3 3 0 0 1-1.498-2.597v-45.1a3 3 0 0 1 1.498-2.598z"/><path stroke="#4C1D95" stroke-opacity=".3" d="M550.249 1.3a2.5 2.5 0 0 1 2.502 0l39 22.548A2.5 2.5 0 0 1 593 26.012v45.1a2.5 2.5 0 0 1-1.249 2.165l-39 22.547a2.5 2.5 0 0 1-2.502 0l-39-22.547A2.5 2.5 0 0 1 510 71.113v-45.1a2.5 2.5 0 0 1 1.249-2.165z"/><path fill="#171717" d="M632.998.868a3 3 0 0 1 3.004 0l39 22.547a3 3 0 0 1 1.498 2.597v45.1a3 3 0 0 1-1.498 2.598l-39 22.547a3 3 0 0 1-3.004 0l-39-22.547a3 3 0 0 1-1.498-2.597v-45.1a3 3 0 0 1 1.498-2.598z"/><path stroke="#4C1D95" stroke-opacity=".3" d="M633.249 1.3a2.5 2.5 0 0 1 2.502 0l39 22.548A2.5 2.5 0 0 1 676 26.012v45.1a2.5 2.5 0 0 1-1.249 2.165l-39 22.547a2.5 2.5 0 0 1-2.502 0l-39-22.547A2.5 2.5 0 0 1 593 71.113v-45.1a2.5 2.5 0 0 1 1.249-2.165z"/><path fill="#171717" d="M715.998.868a3 3 0 0 1 3.004 0l39 22.547a3 3 0 0 1 1.498 2.597v45.1a3 3 0 0 1-1.498 2.598l-39 22.547a3 3 0 0 1-3.004 0l-39-22.547a3 3 0 0 1-1.498-2.597v-45.1a3 3 0 0 1 1.498-2.598z"/><path stroke="#4C1D95" stroke-opacity=".3" d="M716.249 1.3a2.5 2.5 0 0 1 2.502 0l39 22.548A2.5 2.5 0 0 1 759 26.012v45.1a2.5 2.5 0 0 1-1.249 2.165l-39 22.547a2.5 2.5 0 0 1-2.502 0l-39-22.547A2.5 2.5 0 0 1 676 71.113v-45.1a2.5 2.5 0 0 1 1.249-2.165z"/><path fill="#4C1D95" fill-opacity=".12" d="M798.998.868a3 3 0 0 1 3.004 0l39 22.547a3 3 0 0 1 1.498 2.597v45.1a3 3 0 0 1-1.498 2.598l-39 22.547a3 3 0 0 1-3.004 0l-39-22.547a3 3 0 0 1-1.498-2.597v-45.1a3 3 0 0 1 1.498-2.598z"/><path stroke="#4C1D95" stroke-opacity=".3" d="M799.249 1.3a2.5 2.5 0 0 1 2.502 0l39 22.548A2.5 2.5 0 0 1 842 26.012v45.1a2.5 2.5 0 0 1-1.249 2.165l-39 22.547a2.5 2.5 0 0 1-2.502 0l-39-22.547A2.5 2.5 0 0 1 759 71.113v-45.1a2.5 2.5 0 0 1 1.249-2.165z"/><path fill="#171717" d="M881.998.868a3 3 0 0 1 3.004 0l39 22.547a3 3 0 0 1 1.498 2.597v45.1a3 3 0 0 1-1.498 2.598l-39 22.547a3 3 0 0 1-3.004 0l-39-22.547a3 3 0 0 1-1.498-2.597v-45.1a3 3 0 0 1 1.498-2.598z"/><path stroke="#4C1D95" stroke-opacity=".3" d="M882.249 1.3a2.5 2.5 0 0 1 2.502 0l39 22.548A2.5 2.5 0 0 1 925 26.012v45.1a2.5 2.5 0 0 1-1.249 2.165l-39 22.547a2.5 2.5 0 0 1-2.502 0l-39-22.547A2.5 2.5 0 0 1 842 71.113v-45.1a2.5 2.5 0 0 1 1.249-2.165z"/><path fill="#171717" d="M964.998.868a3 3 0 0 1 3.004 0L1007 23.415c.93.536 1.5 1.526 1.5 2.597v45.1c0 1.072-.57 2.062-1.5 2.598l-38.998 22.547a3 3 0 0 1-3.004 0l-39-22.547a3 3 0 0 1-1.498-2.597v-45.1a3 3 0 0 1 1.498-2.598z"/><path stroke="#4C1D95" stroke-opacity=".3" d="M965.249 1.3a2.5 2.5 0 0 1 2.502 0l38.999 22.548a2.51 2.51 0 0 1 1.25 2.164v45.1c0 .894-.48 1.718-1.25 2.165l-38.999 22.547a2.5 2.5 0 0 1-2.502 0l-39-22.547A2.5 2.5 0 0 1 925 71.113v-45.1a2.5 2.5 0 0 1 1.249-2.165z"/><path fill="#171717" d="M1048 .868a3 3 0 0 1 3 0l39 22.547c.93.536 1.5 1.526 1.5 2.597v45.1c0 1.072-.57 2.062-1.5 2.598l-39 22.547c-.93.537-2.07.537-3 0l-39-22.547a3 3 0 0 1-1.5-2.597v-45.1c0-1.072.57-2.062 1.5-2.598z"/><path stroke="#4C1D95" stroke-opacity=".3" d="M1048.25 1.3a2.5 2.5 0 0 1 2.5 0l39 22.548a2.51 2.51 0 0 1 1.25 2.164v45.1c0 .894-.48 1.718-1.25 2.165l-39 22.547c-.77.448-1.73.448-2.5 0l-39-22.547a2.51 2.51 0 0 1-1.25-2.164v-45.1c0-.894.48-1.718 1.25-2.165z"/><path fill="#171717" d="M1131 .868a3 3 0 0 1 3 0l39 22.547c.93.536 1.5 1.526 1.5 2.597v45.1c0 1.072-.57 2.062-1.5 2.598l-39 22.547c-.93.537-2.07.537-3 0l-39-22.547a3 3 0 0 1-1.5-2.597v-45.1c0-1.072.57-2.062 1.5-2.598z"/><path stroke="#4C1D95" stroke-opacity=".3" d="M1131.25 1.3a2.5 2.5 0 0 1 2.5 0l39 22.548a2.51 2.51 0 0 1 1.25 2.164v45.1c0 .894-.48 1.718-1.25 2.165l-39 22.547c-.77.448-1.73.448-2.5 0l-39-22.547a2.51 2.51 0 0 1-1.25-2.164v-45.1c0-.894.48-1.718 1.25-2.165z"/><path fill="#171717" d="M1214 .868a3 3 0 0 1 3 0l39 22.547c.93.536 1.5 1.526 1.5 2.597v45.1c0 1.072-.57 2.062-1.5 2.598l-39 22.547c-.93.537-2.07.537-3 0l-39-22.547a3 3 0 0 1-1.5-2.597v-45.1c0-1.072.57-2.062 1.5-2.598z"/><path stroke="#4C1D95" stroke-opacity=".3" d="M1214.25 1.3a2.5 2.5 0 0 1 2.5 0l39 22.548a2.51 2.51 0 0 1 1.25 2.164v45.1c0 .894-.48 1.718-1.25 2.165l-39 22.547c-.77.448-1.73.448-2.5 0l-39-22.547a2.51 2.51 0 0 1-1.25-2.164v-45.1c0-.894.48-1.718 1.25-2.165z"/><path fill="#171717" d="M1297 .868a3 3 0 0 1 3 0l39 22.547c.93.536 1.5 1.526 1.5 2.597v45.1c0 1.072-.57 2.062-1.5 2.598l-39 22.547c-.93.537-2.07.537-3 0l-39-22.547a3 3 0 0 1-1.5-2.597v-45.1c0-1.072.57-2.062 1.5-2.598z"/><path stroke="#4C1D95" stroke-opacity=".3" d="M1297.25 1.3a2.5 2.5 0 0 1 2.5 0l39 22.548a2.51 2.51 0 0 1 1.25 2.164v45.1c0 .894-.48 1.718-1.25 2.165l-39 22.547c-.77.448-1.73.448-2.5 0l-39-22.547a2.51 2.51 0 0 1-1.25-2.164v-45.1c0-.894.48-1.718 1.25-2.165z"/><path fill="#171717" d="M1380 .868a3 3 0 0 1 3 0l39 22.547c.93.536 1.5 1.526 1.5 2.597v45.1c0 1.072-.57 2.062-1.5 2.598l-39 22.547c-.93.537-2.07.537-3 0l-39-22.547a3 3 0 0 1-1.5-2.597v-45.1c0-1.072.57-2.062 1.5-2.598z"/><path stroke="#4C1D95" stroke-opacity=".3" d="M1380.25 1.3a2.5 2.5 0 0 1 2.5 0l39 22.548a2.51 2.51 0 0 1 1.25 2.164v45.1c0 .894-.48 1.718-1.25 2.165l-39 22.547c-.77.448-1.73.448-2.5 0l-39-22.547a2.51 2.51 0 0 1-1.25-2.164v-45.1c0-.894.48-1.718 1.25-2.165z"/><path fill="#171717" d="M1463 .868a3 3 0 0 1 3 0l39 22.547c.93.536 1.5 1.526 1.5 2.597v45.1c0 1.072-.57 2.062-1.5 2.598l-39 22.547c-.93.537-2.07.537-3 0l-39-22.547a3 3 0 0 1-1.5-2.597v-45.1c0-1.072.57-2.062 1.5-2.598z"/><path stroke="#4C1D95" stroke-opacity=".3" d="M1463.25 1.3a2.5 2.5 0 0 1 2.5 0l39 22.548a2.51 2.51 0 0 1 1.25 2.164v45.1c0 .894-.48 1.718-1.25 2.165l-39 22.547c-.77.448-1.73.448-2.5 0l-39-22.547a2.51 2.51 0 0 1-1.25-2.164v-45.1c0-.894.48-1.718 1.25-2.165z"/><path fill="#171717" d="M10.499 71.993a3 3 0 0 1 3.002 0l39 22.547A3 3 0 0 1 54 97.137v45.101a3 3 0 0 1-1.498 2.597l-39 22.547a3 3 0 0 1-3.004 0l-39-22.547A3 3 0 0 1-30 142.238v-45.1a3 3 0 0 1 1.499-2.598z"/><path stroke="#4C1D95" stroke-opacity=".3" d="M10.749 72.426a2.5 2.5 0 0 1 2.502 0l39 22.547a2.5 2.5 0 0 1 1.249 2.164v45.101a2.5 2.5 0 0 1-1.249 2.164l-39 22.547a2.5 2.5 0 0 1-2.502 0l-39-22.547a2.5 2.5 0 0 1-1.249-2.164v-45.1a2.5 2.5 0 0 1 1.249-2.165z"/><path fill="#171717" d="M93.499 71.993a3 3 0 0 1 3.002 0l39.001 22.547A3 3 0 0 1 137 97.137v45.101a3 3 0 0 1-1.498 2.597l-39 22.547a3 3 0 0 1-3.003 0l-39-22.547A3 3 0 0 1 53 142.238v-45.1a3 3 0 0 1 1.499-2.598z"/><path stroke="#4C1D95" stroke-opacity=".3" d="M93.749 72.426a2.5 2.5 0 0 1 2.502 0l39 22.547a2.5 2.5 0 0 1 1.249 2.164v45.101a2.5 2.5 0 0 1-1.249 2.164l-39 22.547a2.5 2.5 0 0 1-2.502 0l-39-22.547a2.5 2.5 0 0 1-1.249-2.164v-45.1a2.5 2.5 0 0 1 1.249-2.165z"/><path fill="#171717" d="M176.498 71.993a3 3 0 0 1 3.004 0l39 22.547A3 3 0 0 1 220 97.137v45.101a3 3 0 0 1-1.498 2.597l-39 22.547a3 3 0 0 1-3.004 0l-39-22.547a3 3 0 0 1-1.498-2.597v-45.1a3 3 0 0 1 1.498-2.598z"/><path stroke="#4C1D95" stroke-opacity=".3" d="M176.749 72.426a2.5 2.5 0 0 1 2.502 0l39 22.547a2.5 2.5 0 0 1 1.249 2.164v45.101a2.5 2.5 0 0 1-1.249 2.164l-39 22.547a2.5 2.5 0 0 1-2.502 0l-39-22.547a2.5 2.5 0 0 1-1.249-2.164v-45.1a2.5 2.5 0 0 1 1.249-2.165z"/><path fill="#171717" d="M259.498 71.993a3 3 0 0 1 3.004 0l39 22.547A3 3 0 0 1 303 97.137v45.101a3 3 0 0 1-1.498 2.597l-39 22.547a3 3 0 0 1-3.004 0l-39-22.547a3 3 0 0 1-1.498-2.597v-45.1a3 3 0 0 1 1.498-2.598z"/><path stroke="#4C1D95" stroke-opacity=".3" d="M259.749 72.426a2.5 2.5 0 0 1 2.502 0l39 22.547a2.5 2.5 0 0 1 1.249 2.164v45.101a2.5 2.5 0 0 1-1.249 2.164l-39 22.547a2.5 2.5 0 0 1-2.502 0l-39-22.547a2.5 2.5 0 0 1-1.249-2.164v-45.1a2.5 2.5 0 0 1 1.249-2.165z"/><path fill="#171717" d="M342.498 71.993a3 3 0 0 1 3.004 0l39 22.547A3 3 0 0 1 386 97.137v45.101a3 3 0 0 1-1.498 2.597l-39 22.547a3 3 0 0 1-3.004 0l-39-22.547a3 3 0 0 1-1.498-2.597v-45.1a3 3 0 0 1 1.498-2.598z"/><path stroke="#4C1D95" stroke-opacity=".3" d="M342.749 72.426a2.5 2.5 0 0 1 2.502 0l39 22.547a2.5 2.5 0 0 1 1.249 2.164v45.101a2.5 2.5 0 0 1-1.249 2.164l-39 22.547a2.5 2.5 0 0 1-2.502 0l-39-22.547a2.5 2.5 0 0 1-1.249-2.164v-45.1a2.5 2.5 0 0 1 1.249-2.165z"/><path fill="#171717" d="M425.498 71.993a3 3 0 0 1 3.004 0l39 22.547A3 3 0 0 1 469 97.137v45.101a3 3 0 0 1-1.498 2.597l-39 22.547a3 3 0 0 1-3.004 0l-39-22.547a3 3 0 0 1-1.498-2.597v-45.1a3 3 0 0 1 1.498-2.598z"/><path stroke="#4C1D95" stroke-opacity=".3" d="M425.749 72.426a2.5 2.5 0 0 1 2.502 0l39 22.547a2.5 2.5 0 0 1 1.249 2.164v45.101a2.5 2.5 0 0 1-1.249 2.164l-39 22.547a2.5 2.5 0 0 1-2.502 0l-39-22.547a2.5 2.5 0 0 1-1.249-2.164v-45.1a2.5 2.5 0 0 1 1.249-2.165z"/><path fill="#171717" d="M508.498 71.993a3 3 0 0 1 3.004 0l39 22.547A3 3 0 0 1 552 97.137v45.101a3 3 0 0 1-1.498 2.597l-39 22.547a3 3 0 0 1-3.004 0l-39-22.547a3 3 0 0 1-1.498-2.597v-45.1a3 3 0 0 1 1.498-2.598z"/><path stroke="#4C1D95" stroke-opacity=".3" d="M508.749 72.426a2.5 2.5 0 0 1 2.502 0l39 22.547a2.5 2.5 0 0 1 1.249 2.164v45.101a2.5 2.5 0 0 1-1.249 2.164l-39 22.547a2.5 2.5 0 0 1-2.502 0l-39-22.547a2.5 2.5 0 0 1-1.249-2.164v-45.1a2.5 2.5 0 0 1 1.249-2.165z"/><path fill="#171717" d="M591.498 71.993a3 3 0 0 1 3.004 0l39 22.547A3 3 0 0 1 635 97.137v45.101a3 3 0 0 1-1.498 2.597l-39 22.547a3 3 0 0 1-3.004 0l-39-22.547a3 3 0 0 1-1.498-2.597v-45.1a3 3 0 0 1 1.498-2.598z"/><path stroke="#4C1D95" stroke-opacity=".3" d="M591.749 72.426a2.5 2.5 0 0 1 2.502 0l39 22.547a2.5 2.5 0 0 1 1.249 2.164v45.101a2.5 2.5 0 0 1-1.249 2.164l-39 22.547a2.5 2.5 0 0 1-2.502 0l-39-22.547a2.5 2.5 0 0 1-1.249-2.164v-45.1a2.5 2.5 0 0 1 1.249-2.165z"/><path fill="#171717" d="M674.498 71.993a3 3 0 0 1 3.004 0l39 22.547A3 3 0 0 1 718 97.137v45.101a3 3 0 0 1-1.498 2.597l-39 22.547a3 3 0 0 1-3.004 0l-39-22.547a3 3 0 0 1-1.498-2.597v-45.1a3 3 0 0 1 1.498-2.598z"/><path stroke="#4C1D95" stroke-opacity=".3" d="M674.749 72.426a2.5 2.5 0 0 1 2.502 0l39 22.547a2.5 2.5 0 0 1 1.249 2.164v45.101a2.5 2.5 0 0 1-1.249 2.164l-39 22.547a2.5 2.5 0 0 1-2.502 0l-39-22.547a2.5 2.5 0 0 1-1.249-2.164v-45.1a2.5 2.5 0 0 1 1.249-2.165z"/><path fill="#171717" d="M757.498 71.993a3 3 0 0 1 3.004 0l39 22.547A3 3 0 0 1 801 97.137v45.101a3 3 0 0 1-1.498 2.597l-39 22.547a3 3 0 0 1-3.004 0l-39-22.547a3 3 0 0 1-1.498-2.597v-45.1a3 3 0 0 1 1.498-2.598z"/><path stroke="#4C1D95" stroke-opacity=".3" d="M757.749 72.426a2.5 2.5 0 0 1 2.502 0l39 22.547a2.5 2.5 0 0 1 1.249 2.164v45.101a2.5 2.5 0 0 1-1.249 2.164l-39 22.547a2.5 2.5 0 0 1-2.502 0l-39-22.547a2.5 2.5 0 0 1-1.249-2.164v-45.1a2.5 2.5 0 0 1 1.249-2.165z"/><path fill="#171717" d="M840.498 71.993a3 3 0 0 1 3.004 0l39 22.547A3 3 0 0 1 884 97.137v45.101a3 3 0 0 1-1.498 2.597l-39 22.547a3 3 0 0 1-3.004 0l-39-22.547a3 3 0 0 1-1.498-2.597v-45.1a3 3 0 0 1 1.498-2.598z"/><path stroke="#4C1D95" stroke-opacity=".3" d="M840.749 72.426a2.5 2.5 0 0 1 2.502 0l39 22.547a2.5 2.5 0 0 1 1.249 2.164v45.101a2.5 2.5 0 0 1-1.249 2.164l-39 22.547a2.5 2.5 0 0 1-2.502 0l-39-22.547a2.5 2.5 0 0 1-1.249-2.164v-45.1a2.5 2.5 0 0 1 1.249-2.165z"/><path fill="#171717" d="M923.498 71.993a3 3 0 0 1 3.004 0l39 22.547A3 3 0 0 1 967 97.137v45.101a3 3 0 0 1-1.498 2.597l-39 22.547a3 3 0 0 1-3.004 0l-39-22.547a3 3 0 0 1-1.498-2.597v-45.1a3 3 0 0 1 1.498-2.598z"/><path stroke="#4C1D95" stroke-opacity=".3" d="M923.749 72.426a2.5 2.5 0 0 1 2.502 0l39 22.547a2.5 2.5 0 0 1 1.249 2.164v45.101a2.5 2.5 0 0 1-1.249 2.164l-39 22.547a2.5 2.5 0 0 1-2.502 0l-39-22.547a2.5 2.5 0 0 1-1.249-2.164v-45.1a2.5 2.5 0 0 1 1.249-2.165z"/><path fill="#171717" d="M1006.5 71.993a3 3 0 0 1 3 0l39 22.547c.93.536 1.5 1.526 1.5 2.597v45.101c0 1.071-.57 2.061-1.5 2.597l-39 22.547c-.93.537-2.07.537-3 0l-39.002-22.547a3 3 0 0 1-1.498-2.597v-45.1a3 3 0 0 1 1.498-2.598z"/><path stroke="#4C1D95" stroke-opacity=".3" d="M1006.75 72.426a2.5 2.5 0 0 1 2.5 0l39 22.547a2.51 2.51 0 0 1 1.25 2.164v45.101c0 .893-.48 1.717-1.25 2.164l-39 22.547c-.77.448-1.73.448-2.5 0l-39.001-22.547a2.5 2.5 0 0 1-1.249-2.164v-45.1a2.5 2.5 0 0 1 1.249-2.165z"/><path fill="#171717" d="M1089.5 71.993a3 3 0 0 1 3 0l39 22.547c.93.536 1.5 1.526 1.5 2.597v45.101c0 1.071-.57 2.061-1.5 2.597l-39 22.547c-.93.537-2.07.537-3 0l-39-22.547a3 3 0 0 1-1.5-2.597v-45.1c0-1.072.57-2.062 1.5-2.598z"/><path stroke="#4C1D95" stroke-opacity=".3" d="M1089.75 72.426a2.5 2.5 0 0 1 2.5 0l39 22.547a2.51 2.51 0 0 1 1.25 2.164v45.101c0 .893-.48 1.717-1.25 2.164l-39 22.547c-.77.448-1.73.448-2.5 0l-39-22.547a2.5 2.5 0 0 1-1.25-2.164v-45.1c0-.894.48-1.718 1.25-2.165z"/><path fill="#171717" d="M1172.5 71.993a3 3 0 0 1 3 0l39 22.547c.93.536 1.5 1.526 1.5 2.597v45.101c0 1.071-.57 2.061-1.5 2.597l-39 22.547c-.93.537-2.07.537-3 0l-39-22.547a3 3 0 0 1-1.5-2.597v-45.1c0-1.072.57-2.062 1.5-2.598z"/><path stroke="#4C1D95" stroke-opacity=".3" d="M1172.75 72.426a2.5 2.5 0 0 1 2.5 0l39 22.547a2.51 2.51 0 0 1 1.25 2.164v45.101c0 .893-.48 1.717-1.25 2.164l-39 22.547c-.77.448-1.73.448-2.5 0l-39-22.547a2.5 2.5 0 0 1-1.25-2.164v-45.1c0-.894.48-1.718 1.25-2.165z"/><path fill="#171717" d="M1255.5 71.993a3 3 0 0 1 3 0l39 22.547c.93.536 1.5 1.526 1.5 2.597v45.101c0 1.071-.57 2.061-1.5 2.597l-39 22.547c-.93.537-2.07.537-3 0l-39-22.547a3 3 0 0 1-1.5-2.597v-45.1c0-1.072.57-2.062 1.5-2.598z"/><path stroke="#4C1D95" stroke-opacity=".3" d="M1255.75 72.426a2.5 2.5 0 0 1 2.5 0l39 22.547a2.51 2.51 0 0 1 1.25 2.164v45.101c0 .893-.48 1.717-1.25 2.164l-39 22.547c-.77.448-1.73.448-2.5 0l-39-22.547a2.5 2.5 0 0 1-1.25-2.164v-45.1c0-.894.48-1.718 1.25-2.165z"/><path fill="#171717" d="M1338.5 71.993a3 3 0 0 1 3 0l39 22.547c.93.536 1.5 1.526 1.5 2.597v45.101c0 1.071-.57 2.061-1.5 2.597l-39 22.547c-.93.537-2.07.537-3 0l-39-22.547a3 3 0 0 1-1.5-2.597v-45.1c0-1.072.57-2.062 1.5-2.598z"/><path stroke="#4C1D95" stroke-opacity=".3" d="M1338.75 72.426a2.5 2.5 0 0 1 2.5 0l39 22.547a2.51 2.51 0 0 1 1.25 2.164v45.101c0 .893-.48 1.717-1.25 2.164l-39 22.547c-.77.448-1.73.448-2.5 0l-39-22.547a2.5 2.5 0 0 1-1.25-2.164v-45.1c0-.894.48-1.718 1.25-2.165z"/><path fill="#171717" d="M1421.5 71.993a3 3 0 0 1 3 0l39 22.547c.93.536 1.5 1.526 1.5 2.597v45.101c0 1.071-.57 2.061-1.5 2.597l-39 22.547c-.93.537-2.07.537-3 0l-39-22.547a3 3 0 0 1-1.5-2.597v-45.1c0-1.072.57-2.062 1.5-2.598z"/><path stroke="#4C1D95" stroke-opacity=".3" d="M1421.75 72.426a2.5 2.5 0 0 1 2.5 0l39 22.547a2.51 2.51 0 0 1 1.25 2.164v45.101c0 .893-.48 1.717-1.25 2.164l-39 22.547c-.77.448-1.73.448-2.5 0l-39-22.547a2.5 2.5 0 0 1-1.25-2.164v-45.1c0-.894.48-1.718 1.25-2.165z"/><path fill="#171717" d="M51.999 143.118a3 3 0 0 1 3.002 0l39 22.547a3 3 0 0 1 1.499 2.597v45.101a3 3 0 0 1-1.499 2.597l-39 22.547a3 3 0 0 1-3.002 0l-39-22.547a3 3 0 0 1-1.499-2.597v-45.101a3 3 0 0 1 1.499-2.597z"/><path stroke="#4C1D95" stroke-opacity=".3" d="M52.249 143.551a2.5 2.5 0 0 1 2.502 0l39 22.547A2.5 2.5 0 0 1 95 168.262v45.101a2.5 2.5 0 0 1-1.249 2.164l-39 22.547a2.5 2.5 0 0 1-2.502 0l-39-22.547A2.5 2.5 0 0 1 12 213.363v-45.101a2.5 2.5 0 0 1 1.249-2.164z"/><path fill="#171717" d="M134.998 143.118a3 3 0 0 1 3.004 0l39 22.547a3 3 0 0 1 1.498 2.597v45.101a3 3 0 0 1-1.498 2.597l-39 22.547a3 3 0 0 1-3.004 0l-39-22.547a3 3 0 0 1-1.498-2.597v-45.101a3 3 0 0 1 1.499-2.597z"/><path stroke="#4C1D95" stroke-opacity=".3" d="M135.249 143.551a2.5 2.5 0 0 1 2.502 0l39 22.547a2.5 2.5 0 0 1 1.249 2.164v45.101a2.5 2.5 0 0 1-1.249 2.164l-39 22.547a2.5 2.5 0 0 1-2.502 0l-39-22.547A2.5 2.5 0 0 1 95 213.363v-45.101a2.5 2.5 0 0 1 1.249-2.164z"/><path fill="#171717" d="M217.998 143.118a3 3 0 0 1 3.004 0l39 22.547a3 3 0 0 1 1.498 2.597v45.101a3 3 0 0 1-1.498 2.597l-39 22.547a3 3 0 0 1-3.004 0l-39-22.547a3 3 0 0 1-1.498-2.597v-45.101a3 3 0 0 1 1.498-2.597z"/><path stroke="#4C1D95" stroke-opacity=".3" d="M218.249 143.551a2.5 2.5 0 0 1 2.502 0l39 22.547a2.5 2.5 0 0 1 1.249 2.164v45.101a2.5 2.5 0 0 1-1.249 2.164l-39 22.547a2.5 2.5 0 0 1-2.502 0l-39-22.547a2.5 2.5 0 0 1-1.249-2.164v-45.101a2.5 2.5 0 0 1 1.249-2.164z"/><path fill="#171717" d="M300.998 143.118a3 3 0 0 1 3.004 0l39 22.547a3 3 0 0 1 1.498 2.597v45.101a3 3 0 0 1-1.498 2.597l-39 22.547a3 3 0 0 1-3.004 0l-39-22.547a3 3 0 0 1-1.498-2.597v-45.101a3 3 0 0 1 1.498-2.597z"/><path stroke="#4C1D95" stroke-opacity=".3" d="M301.249 143.551a2.5 2.5 0 0 1 2.502 0l39 22.547a2.5 2.5 0 0 1 1.249 2.164v45.101a2.5 2.5 0 0 1-1.249 2.164l-39 22.547a2.5 2.5 0 0 1-2.502 0l-39-22.547a2.5 2.5 0 0 1-1.249-2.164v-45.101a2.5 2.5 0 0 1 1.249-2.164z"/><path fill="#4C1D95" fill-opacity=".12" d="M383.998 143.118a3 3 0 0 1 3.004 0l39 22.547a3 3 0 0 1 1.498 2.597v45.101a3 3 0 0 1-1.498 2.597l-39 22.547a3 3 0 0 1-3.004 0l-39-22.547a3 3 0 0 1-1.498-2.597v-45.101a3 3 0 0 1 1.498-2.597z"/><path stroke="#4C1D95" stroke-opacity=".3" d="M384.249 143.551a2.5 2.5 0 0 1 2.502 0l39 22.547a2.5 2.5 0 0 1 1.249 2.164v45.101a2.5 2.5 0 0 1-1.249 2.164l-39 22.547a2.5 2.5 0 0 1-2.502 0l-39-22.547a2.5 2.5 0 0 1-1.249-2.164v-45.101a2.5 2.5 0 0 1 1.249-2.164z"/><path fill="#171717" d="M466.998 143.118a3 3 0 0 1 3.004 0l39 22.547a3 3 0 0 1 1.498 2.597v45.101a3 3 0 0 1-1.498 2.597l-39 22.547a3 3 0 0 1-3.004 0l-39-22.547a3 3 0 0 1-1.498-2.597v-45.101a3 3 0 0 1 1.498-2.597z"/><path stroke="#4C1D95" stroke-opacity=".3" d="M467.249 143.551a2.5 2.5 0 0 1 2.502 0l39 22.547a2.5 2.5 0 0 1 1.249 2.164v45.101a2.5 2.5 0 0 1-1.249 2.164l-39 22.547a2.5 2.5 0 0 1-2.502 0l-39-22.547a2.5 2.5 0 0 1-1.249-2.164v-45.101a2.5 2.5 0 0 1 1.249-2.164z"/><path fill="#171717" d="M549.998 143.118a3 3 0 0 1 3.004 0l39 22.547a3 3 0 0 1 1.498 2.597v45.101a3 3 0 0 1-1.498 2.597l-39 22.547a3 3 0 0 1-3.004 0l-39-22.547a3 3 0 0 1-1.498-2.597v-45.101a3 3 0 0 1 1.498-2.597z"/><path stroke="#4C1D95" stroke-opacity=".3" d="M550.249 143.551a2.5 2.5 0 0 1 2.502 0l39 22.547a2.5 2.5 0 0 1 1.249 2.164v45.101a2.5 2.5 0 0 1-1.249 2.164l-39 22.547a2.5 2.5 0 0 1-2.502 0l-39-22.547a2.5 2.5 0 0 1-1.249-2.164v-45.101a2.5 2.5 0 0 1 1.249-2.164z"/><path fill="#171717" d="M632.998 143.118a3 3 0 0 1 3.004 0l39 22.547a3 3 0 0 1 1.498 2.597v45.101a3 3 0 0 1-1.498 2.597l-39 22.547a3 3 0 0 1-3.004 0l-39-22.547a3 3 0 0 1-1.498-2.597v-45.101a3 3 0 0 1 1.498-2.597z"/><path stroke="#4C1D95" stroke-opacity=".3" d="M633.249 143.551a2.5 2.5 0 0 1 2.502 0l39 22.547a2.5 2.5 0 0 1 1.249 2.164v45.101a2.5 2.5 0 0 1-1.249 2.164l-39 22.547a2.5 2.5 0 0 1-2.502 0l-39-22.547a2.5 2.5 0 0 1-1.249-2.164v-45.101a2.5 2.5 0 0 1 1.249-2.164z"/><path fill="#171717" d="M715.998 143.118a3 3 0 0 1 3.004 0l39 22.547a3 3 0 0 1 1.498 2.597v45.101a3 3 0 0 1-1.498 2.597l-39 22.547a3 3 0 0 1-3.004 0l-39-22.547a3 3 0 0 1-1.498-2.597v-45.101a3 3 0 0 1 1.498-2.597z"/><path stroke="#4C1D95" stroke-opacity=".3" d="M716.249 143.551a2.5 2.5 0 0 1 2.502 0l39 22.547a2.5 2.5 0 0 1 1.249 2.164v45.101a2.5 2.5 0 0 1-1.249 2.164l-39 22.547a2.5 2.5 0 0 1-2.502 0l-39-22.547a2.5 2.5 0 0 1-1.249-2.164v-45.101a2.5 2.5 0 0 1 1.249-2.164z"/><path fill="#171717" d="M798.998 143.118a3 3 0 0 1 3.004 0l39 22.547a3 3 0 0 1 1.498 2.597v45.101a3 3 0 0 1-1.498 2.597l-39 22.547a3 3 0 0 1-3.004 0l-39-22.547a3 3 0 0 1-1.498-2.597v-45.101a3 3 0 0 1 1.498-2.597z"/><path stroke="#4C1D95" stroke-opacity=".3" d="M799.249 143.551a2.5 2.5 0 0 1 2.502 0l39 22.547a2.5 2.5 0 0 1 1.249 2.164v45.101a2.5 2.5 0 0 1-1.249 2.164l-39 22.547a2.5 2.5 0 0 1-2.502 0l-39-22.547a2.5 2.5 0 0 1-1.249-2.164v-45.101a2.5 2.5 0 0 1 1.249-2.164z"/><path fill="#171717" d="M881.998 143.118a3 3 0 0 1 3.004 0l39 22.547a3 3 0 0 1 1.498 2.597v45.101a3 3 0 0 1-1.498 2.597l-39 22.547a3 3 0 0 1-3.004 0l-39-22.547a3 3 0 0 1-1.498-2.597v-45.101a3 3 0 0 1 1.498-2.597z"/><path stroke="#4C1D95" stroke-opacity=".3" d="M882.249 143.551a2.5 2.5 0 0 1 2.502 0l39 22.547a2.5 2.5 0 0 1 1.249 2.164v45.101a2.5 2.5 0 0 1-1.249 2.164l-39 22.547a2.5 2.5 0 0 1-2.502 0l-39-22.547a2.5 2.5 0 0 1-1.249-2.164v-45.101a2.5 2.5 0 0 1 1.249-2.164z"/><path fill="#171717" d="M964.998 143.118a3 3 0 0 1 3.004 0L1007 165.665c.93.536 1.5 1.526 1.5 2.597v45.101c0 1.071-.57 2.061-1.5 2.597l-38.998 22.547a3 3 0 0 1-3.004 0l-39-22.547a3 3 0 0 1-1.498-2.597v-45.101a3 3 0 0 1 1.498-2.597z"/><path stroke="#4C1D95" stroke-opacity=".3" d="M965.249 143.551a2.5 2.5 0 0 1 2.502 0l38.999 22.547a2.5 2.5 0 0 1 1.25 2.164v45.101c0 .893-.48 1.717-1.25 2.164l-38.999 22.547a2.5 2.5 0 0 1-2.502 0l-39-22.547a2.5 2.5 0 0 1-1.249-2.164v-45.101a2.5 2.5 0 0 1 1.249-2.164z"/><path fill="#171717" d="M1048 143.118a3 3 0 0 1 3 0l39 22.547c.93.536 1.5 1.526 1.5 2.597v45.101c0 1.071-.57 2.061-1.5 2.597l-39 22.547c-.93.537-2.07.537-3 0l-39-22.547a3 3 0 0 1-1.5-2.597v-45.101c0-1.071.57-2.061 1.5-2.597z"/><path stroke="#4C1D95" stroke-opacity=".3" d="M1048.25 143.551a2.49 2.49 0 0 1 2.5 0l39 22.547a2.5 2.5 0 0 1 1.25 2.164v45.101c0 .893-.48 1.717-1.25 2.164l-39 22.547c-.77.448-1.73.448-2.5 0l-39-22.547a2.5 2.5 0 0 1-1.25-2.164v-45.101c0-.893.48-1.717 1.25-2.164z"/><path fill="#4C1D95" fill-opacity=".12" d="M1131 143.118a3 3 0 0 1 3 0l39 22.547c.93.536 1.5 1.526 1.5 2.597v45.101c0 1.071-.57 2.061-1.5 2.597l-39 22.547c-.93.537-2.07.537-3 0l-39-22.547a3 3 0 0 1-1.5-2.597v-45.101c0-1.071.57-2.061 1.5-2.597z"/><path stroke="#4C1D95" stroke-opacity=".3" d="M1131.25 143.551a2.49 2.49 0 0 1 2.5 0l39 22.547a2.5 2.5 0 0 1 1.25 2.164v45.101c0 .893-.48 1.717-1.25 2.164l-39 22.547c-.77.448-1.73.448-2.5 0l-39-22.547a2.5 2.5 0 0 1-1.25-2.164v-45.101c0-.893.48-1.717 1.25-2.164z"/><path fill="#171717" d="M1214 143.118a3 3 0 0 1 3 0l39 22.547c.93.536 1.5 1.526 1.5 2.597v45.101c0 1.071-.57 2.061-1.5 2.597l-39 22.547c-.93.537-2.07.537-3 0l-39-22.547a3 3 0 0 1-1.5-2.597v-45.101c0-1.071.57-2.061 1.5-2.597z"/><path stroke="#4C1D95" stroke-opacity=".3" d="M1214.25 143.551a2.49 2.49 0 0 1 2.5 0l39 22.547a2.5 2.5 0 0 1 1.25 2.164v45.101c0 .893-.48 1.717-1.25 2.164l-39 22.547c-.77.448-1.73.448-2.5 0l-39-22.547a2.5 2.5 0 0 1-1.25-2.164v-45.101c0-.893.48-1.717 1.25-2.164z"/><path fill="#171717" d="M1297 143.118a3 3 0 0 1 3 0l39 22.547c.93.536 1.5 1.526 1.5 2.597v45.101c0 1.071-.57 2.061-1.5 2.597l-39 22.547c-.93.537-2.07.537-3 0l-39-22.547a3 3 0 0 1-1.5-2.597v-45.101c0-1.071.57-2.061 1.5-2.597z"/><path stroke="#4C1D95" stroke-opacity=".3" d="M1297.25 143.551a2.49 2.49 0 0 1 2.5 0l39 22.547a2.5 2.5 0 0 1 1.25 2.164v45.101c0 .893-.48 1.717-1.25 2.164l-39 22.547c-.77.448-1.73.448-2.5 0l-39-22.547a2.5 2.5 0 0 1-1.25-2.164v-45.101c0-.893.48-1.717 1.25-2.164z"/><path fill="#171717" d="M1380 143.118a3 3 0 0 1 3 0l39 22.547c.93.536 1.5 1.526 1.5 2.597v45.101c0 1.071-.57 2.061-1.5 2.597l-39 22.547c-.93.537-2.07.537-3 0l-39-22.547a3 3 0 0 1-1.5-2.597v-45.101c0-1.071.57-2.061 1.5-2.597z"/><path stroke="#4C1D95" stroke-opacity=".3" d="M1380.25 143.551a2.49 2.49 0 0 1 2.5 0l39 22.547a2.5 2.5 0 0 1 1.25 2.164v45.101c0 .893-.48 1.717-1.25 2.164l-39 22.547c-.77.448-1.73.448-2.5 0l-39-22.547a2.5 2.5 0 0 1-1.25-2.164v-45.101c0-.893.48-1.717 1.25-2.164z"/><path fill="#171717" d="M1463 143.118a3 3 0 0 1 3 0l39 22.547c.93.536 1.5 1.526 1.5 2.597v45.101c0 1.071-.57 2.061-1.5 2.597l-39 22.547c-.93.537-2.07.537-3 0l-39-22.547a3 3 0 0 1-1.5-2.597v-45.101c0-1.071.57-2.061 1.5-2.597z"/><path stroke="#4C1D95" stroke-opacity=".3" d="M1463.25 143.551a2.49 2.49 0 0 1 2.5 0l39 22.547a2.5 2.5 0 0 1 1.25 2.164v45.101c0 .893-.48 1.717-1.25 2.164l-39 22.547c-.77.448-1.73.448-2.5 0l-39-22.547a2.5 2.5 0 0 1-1.25-2.164v-45.101c0-.893.48-1.717 1.25-2.164z"/><path fill="#171717" d="M10.499 214.243a3 3 0 0 1 3.002 0l39 22.547A3 3 0 0 1 54 239.387v45.101a3 3 0 0 1-1.498 2.597l-39 22.547a3 3 0 0 1-3.004 0l-39-22.547A3 3 0 0 1-30 284.488v-45.101a3 3 0 0 1 1.499-2.597z"/><path stroke="#4C1D95" stroke-opacity=".3" d="M10.749 214.676a2.5 2.5 0 0 1 2.502 0l39 22.547a2.5 2.5 0 0 1 1.249 2.164v45.101a2.5 2.5 0 0 1-1.249 2.164l-39 22.547a2.5 2.5 0 0 1-2.502 0l-39-22.547a2.5 2.5 0 0 1-1.249-2.164v-45.101a2.5 2.5 0 0 1 1.249-2.164z"/><path fill="#171717" d="M93.499 214.243a3 3 0 0 1 3.002 0l39.001 22.547a3 3 0 0 1 1.498 2.597v45.101a3 3 0 0 1-1.498 2.597l-39 22.547a3 3 0 0 1-3.003 0l-39-22.547A3 3 0 0 1 53 284.488v-45.101a3 3 0 0 1 1.499-2.597z"/><path stroke="#4C1D95" stroke-opacity=".3" d="M93.749 214.676a2.5 2.5 0 0 1 2.502 0l39 22.547a2.5 2.5 0 0 1 1.249 2.164v45.101a2.5 2.5 0 0 1-1.249 2.164l-39 22.547a2.5 2.5 0 0 1-2.502 0l-39-22.547a2.5 2.5 0 0 1-1.249-2.164v-45.101a2.5 2.5 0 0 1 1.249-2.164z"/><path fill="#171717" d="M176.498 214.243a3 3 0 0 1 3.004 0l39 22.547a3 3 0 0 1 1.498 2.597v45.101a3 3 0 0 1-1.498 2.597l-39 22.547a3 3 0 0 1-3.004 0l-39-22.547a3 3 0 0 1-1.498-2.597v-45.101a3 3 0 0 1 1.498-2.597z"/><path stroke="#4C1D95" stroke-opacity=".3" d="M176.749 214.676a2.5 2.5 0 0 1 2.502 0l39 22.547a2.5 2.5 0 0 1 1.249 2.164v45.101a2.5 2.5 0 0 1-1.249 2.164l-39 22.547a2.5 2.5 0 0 1-2.502 0l-39-22.547a2.5 2.5 0 0 1-1.249-2.164v-45.101a2.5 2.5 0 0 1 1.249-2.164z"/><path fill="#171717" d="M259.498 214.243a3 3 0 0 1 3.004 0l39 22.547a3 3 0 0 1 1.498 2.597v45.101a3 3 0 0 1-1.498 2.597l-39 22.547a3 3 0 0 1-3.004 0l-39-22.547a3 3 0 0 1-1.498-2.597v-45.101a3 3 0 0 1 1.498-2.597z"/><path stroke="#4C1D95" stroke-opacity=".3" d="M259.749 214.676a2.5 2.5 0 0 1 2.502 0l39 22.547a2.5 2.5 0 0 1 1.249 2.164v45.101a2.5 2.5 0 0 1-1.249 2.164l-39 22.547a2.5 2.5 0 0 1-2.502 0l-39-22.547a2.5 2.5 0 0 1-1.249-2.164v-45.101a2.5 2.5 0 0 1 1.249-2.164z"/><path fill="#171717" d="M342.498 214.243a3 3 0 0 1 3.004 0l39 22.547a3 3 0 0 1 1.498 2.597v45.101a3 3 0 0 1-1.498 2.597l-39 22.547a3 3 0 0 1-3.004 0l-39-22.547a3 3 0 0 1-1.498-2.597v-45.101a3 3 0 0 1 1.498-2.597z"/><path stroke="#4C1D95" stroke-opacity=".3" d="M342.749 214.676a2.5 2.5 0 0 1 2.502 0l39 22.547a2.5 2.5 0 0 1 1.249 2.164v45.101a2.5 2.5 0 0 1-1.249 2.164l-39 22.547a2.5 2.5 0 0 1-2.502 0l-39-22.547a2.5 2.5 0 0 1-1.249-2.164v-45.101a2.5 2.5 0 0 1 1.249-2.164z"/><path fill="#171717" d="M425.498 214.243a3 3 0 0 1 3.004 0l39 22.547a3 3 0 0 1 1.498 2.597v45.101a3 3 0 0 1-1.498 2.597l-39 22.547a3 3 0 0 1-3.004 0l-39-22.547a3 3 0 0 1-1.498-2.597v-45.101a3 3 0 0 1 1.498-2.597z"/><path stroke="#4C1D95" stroke-opacity=".3" d="M425.749 214.676a2.5 2.5 0 0 1 2.502 0l39 22.547a2.5 2.5 0 0 1 1.249 2.164v45.101a2.5 2.5 0 0 1-1.249 2.164l-39 22.547a2.5 2.5 0 0 1-2.502 0l-39-22.547a2.5 2.5 0 0 1-1.249-2.164v-45.101a2.5 2.5 0 0 1 1.249-2.164z"/><path fill="#171717" d="M508.498 214.243a3 3 0 0 1 3.004 0l39 22.547a3 3 0 0 1 1.498 2.597v45.101a3 3 0 0 1-1.498 2.597l-39 22.547a3 3 0 0 1-3.004 0l-39-22.547a3 3 0 0 1-1.498-2.597v-45.101a3 3 0 0 1 1.498-2.597z"/><path stroke="#4C1D95" stroke-opacity=".3" d="M508.749 214.676a2.5 2.5 0 0 1 2.502 0l39 22.547a2.5 2.5 0 0 1 1.249 2.164v45.101a2.5 2.5 0 0 1-1.249 2.164l-39 22.547a2.5 2.5 0 0 1-2.502 0l-39-22.547a2.5 2.5 0 0 1-1.249-2.164v-45.101a2.5 2.5 0 0 1 1.249-2.164z"/><path fill="#171717" d="M591.498 214.243a3 3 0 0 1 3.004 0l39 22.547a3 3 0 0 1 1.498 2.597v45.101a3 3 0 0 1-1.498 2.597l-39 22.547a3 3 0 0 1-3.004 0l-39-22.547a3 3 0 0 1-1.498-2.597v-45.101a3 3 0 0 1 1.498-2.597z"/><path stroke="#4C1D95" stroke-opacity=".3" d="M591.749 214.676a2.5 2.5 0 0 1 2.502 0l39 22.547a2.5 2.5 0 0 1 1.249 2.164v45.101a2.5 2.5 0 0 1-1.249 2.164l-39 22.547a2.5 2.5 0 0 1-2.502 0l-39-22.547a2.5 2.5 0 0 1-1.249-2.164v-45.101a2.5 2.5 0 0 1 1.249-2.164z"/><path fill="#171717" d="M674.498 214.243a3 3 0 0 1 3.004 0l39 22.547a3 3 0 0 1 1.498 2.597v45.101a3 3 0 0 1-1.498 2.597l-39 22.547a3 3 0 0 1-3.004 0l-39-22.547a3 3 0 0 1-1.498-2.597v-45.101a3 3 0 0 1 1.498-2.597z"/><path stroke="#4C1D95" stroke-opacity=".3" d="M674.749 214.676a2.5 2.5 0 0 1 2.502 0l39 22.547a2.5 2.5 0 0 1 1.249 2.164v45.101a2.5 2.5 0 0 1-1.249 2.164l-39 22.547a2.5 2.5 0 0 1-2.502 0l-39-22.547a2.5 2.5 0 0 1-1.249-2.164v-45.101a2.5 2.5 0 0 1 1.249-2.164z"/><path fill="#171717" d="M757.498 214.243a3 3 0 0 1 3.004 0l39 22.547a3 3 0 0 1 1.498 2.597v45.101a3 3 0 0 1-1.498 2.597l-39 22.547a3 3 0 0 1-3.004 0l-39-22.547a3 3 0 0 1-1.498-2.597v-45.101a3 3 0 0 1 1.498-2.597z"/><path stroke="#4C1D95" stroke-opacity=".3" d="M757.749 214.676a2.5 2.5 0 0 1 2.502 0l39 22.547a2.5 2.5 0 0 1 1.249 2.164v45.101a2.5 2.5 0 0 1-1.249 2.164l-39 22.547a2.5 2.5 0 0 1-2.502 0l-39-22.547a2.5 2.5 0 0 1-1.249-2.164v-45.101a2.5 2.5 0 0 1 1.249-2.164z"/><path fill="#171717" d="M840.498 214.243a3 3 0 0 1 3.004 0l39 22.547a3 3 0 0 1 1.498 2.597v45.101a3 3 0 0 1-1.498 2.597l-39 22.547a3 3 0 0 1-3.004 0l-39-22.547a3 3 0 0 1-1.498-2.597v-45.101a3 3 0 0 1 1.498-2.597z"/><path stroke="#4C1D95" stroke-opacity=".3" d="M840.749 214.676a2.5 2.5 0 0 1 2.502 0l39 22.547a2.5 2.5 0 0 1 1.249 2.164v45.101a2.5 2.5 0 0 1-1.249 2.164l-39 22.547a2.5 2.5 0 0 1-2.502 0l-39-22.547a2.5 2.5 0 0 1-1.249-2.164v-45.101a2.5 2.5 0 0 1 1.249-2.164z"/><path fill="#171717" d="M923.498 214.243a3 3 0 0 1 3.004 0l39 22.547a3 3 0 0 1 1.498 2.597v45.101a3 3 0 0 1-1.498 2.597l-39 22.547a3 3 0 0 1-3.004 0l-39-22.547a3 3 0 0 1-1.498-2.597v-45.101a3 3 0 0 1 1.498-2.597z"/><path stroke="#4C1D95" stroke-opacity=".3" d="M923.749 214.676a2.5 2.5 0 0 1 2.502 0l39 22.547a2.5 2.5 0 0 1 1.249 2.164v45.101a2.5 2.5 0 0 1-1.249 2.164l-39 22.547a2.5 2.5 0 0 1-2.502 0l-39-22.547a2.5 2.5 0 0 1-1.249-2.164v-45.101a2.5 2.5 0 0 1 1.249-2.164z"/><path fill="#171717" d="M1006.5 214.243a3 3 0 0 1 3 0l39 22.547c.93.536 1.5 1.526 1.5 2.597v45.101c0 1.071-.57 2.061-1.5 2.597l-39 22.547c-.93.537-2.07.537-3 0l-39.002-22.547a3 3 0 0 1-1.498-2.597v-45.101a3 3 0 0 1 1.498-2.597z"/><path stroke="#4C1D95" stroke-opacity=".3" d="M1006.75 214.676a2.49 2.49 0 0 1 2.5 0l39 22.547a2.5 2.5 0 0 1 1.25 2.164v45.101c0 .893-.48 1.717-1.25 2.164l-39 22.547c-.77.448-1.73.448-2.5 0l-39.001-22.547a2.5 2.5 0 0 1-1.249-2.164v-45.101a2.5 2.5 0 0 1 1.249-2.164z"/><path fill="#171717" d="M1089.5 214.243a3 3 0 0 1 3 0l39 22.547c.93.536 1.5 1.526 1.5 2.597v45.101c0 1.071-.57 2.061-1.5 2.597l-39 22.547c-.93.537-2.07.537-3 0l-39-22.547a3 3 0 0 1-1.5-2.597v-45.101c0-1.071.57-2.061 1.5-2.597z"/><path stroke="#4C1D95" stroke-opacity=".3" d="M1089.75 214.676a2.49 2.49 0 0 1 2.5 0l39 22.547a2.5 2.5 0 0 1 1.25 2.164v45.101c0 .893-.48 1.717-1.25 2.164l-39 22.547c-.77.448-1.73.448-2.5 0l-39-22.547a2.5 2.5 0 0 1-1.25-2.164v-45.101c0-.893.48-1.717 1.25-2.164z"/><path fill="#171717" d="M1172.5 214.243a3 3 0 0 1 3 0l39 22.547c.93.536 1.5 1.526 1.5 2.597v45.101c0 1.071-.57 2.061-1.5 2.597l-39 22.547c-.93.537-2.07.537-3 0l-39-22.547a3 3 0 0 1-1.5-2.597v-45.101c0-1.071.57-2.061 1.5-2.597z"/><path stroke="#4C1D95" stroke-opacity=".3" d="M1172.75 214.676a2.49 2.49 0 0 1 2.5 0l39 22.547a2.5 2.5 0 0 1 1.25 2.164v45.101c0 .893-.48 1.717-1.25 2.164l-39 22.547c-.77.448-1.73.448-2.5 0l-39-22.547a2.5 2.5 0 0 1-1.25-2.164v-45.101c0-.893.48-1.717 1.25-2.164z"/><path fill="#171717" d="M1255.5 214.243a3 3 0 0 1 3 0l39 22.547c.93.536 1.5 1.526 1.5 2.597v45.101c0 1.071-.57 2.061-1.5 2.597l-39 22.547c-.93.537-2.07.537-3 0l-39-22.547a3 3 0 0 1-1.5-2.597v-45.101c0-1.071.57-2.061 1.5-2.597z"/><path stroke="#4C1D95" stroke-opacity=".3" d="M1255.75 214.676a2.49 2.49 0 0 1 2.5 0l39 22.547a2.5 2.5 0 0 1 1.25 2.164v45.101c0 .893-.48 1.717-1.25 2.164l-39 22.547c-.77.448-1.73.448-2.5 0l-39-22.547a2.5 2.5 0 0 1-1.25-2.164v-45.101c0-.893.48-1.717 1.25-2.164z"/><path fill="#171717" d="M1338.5 214.243a3 3 0 0 1 3 0l39 22.547c.93.536 1.5 1.526 1.5 2.597v45.101c0 1.071-.57 2.061-1.5 2.597l-39 22.547c-.93.537-2.07.537-3 0l-39-22.547a3 3 0 0 1-1.5-2.597v-45.101c0-1.071.57-2.061 1.5-2.597z"/><path stroke="#4C1D95" stroke-opacity=".3" d="M1338.75 214.676a2.49 2.49 0 0 1 2.5 0l39 22.547a2.5 2.5 0 0 1 1.25 2.164v45.101c0 .893-.48 1.717-1.25 2.164l-39 22.547c-.77.448-1.73.448-2.5 0l-39-22.547a2.5 2.5 0 0 1-1.25-2.164v-45.101c0-.893.48-1.717 1.25-2.164z"/><path fill="#171717" d="M1421.5 214.243a3 3 0 0 1 3 0l39 22.547c.93.536 1.5 1.526 1.5 2.597v45.101c0 1.071-.57 2.061-1.5 2.597l-39 22.547c-.93.537-2.07.537-3 0l-39-22.547a3 3 0 0 1-1.5-2.597v-45.101c0-1.071.57-2.061 1.5-2.597z"/><path stroke="#4C1D95" stroke-opacity=".3" d="M1421.75 214.676a2.49 2.49 0 0 1 2.5 0l39 22.547a2.5 2.5 0 0 1 1.25 2.164v45.101c0 .893-.48 1.717-1.25 2.164l-39 22.547c-.77.448-1.73.448-2.5 0l-39-22.547a2.5 2.5 0 0 1-1.25-2.164v-45.101c0-.893.48-1.717 1.25-2.164z"/><path fill="#171717" d="M51.999 285.368a3 3 0 0 1 3.002 0l39 22.547a3 3 0 0 1 1.499 2.597v45.101a3 3 0 0 1-1.499 2.597l-39 22.547a3 3 0 0 1-3.002 0l-39-22.547a3 3 0 0 1-1.499-2.597v-45.101a3 3 0 0 1 1.499-2.597z"/><path stroke="#4C1D95" stroke-opacity=".3" d="M52.249 285.801a2.5 2.5 0 0 1 2.502 0l39 22.547A2.5 2.5 0 0 1 95 310.512v45.101a2.5 2.5 0 0 1-1.249 2.164l-39 22.547a2.5 2.5 0 0 1-2.502 0l-39-22.547A2.5 2.5 0 0 1 12 355.613v-45.101a2.5 2.5 0 0 1 1.249-2.164z"/><path fill="#171717" d="M134.998 285.368a3 3 0 0 1 3.004 0l39 22.547a3 3 0 0 1 1.498 2.597v45.101a3 3 0 0 1-1.498 2.597l-39 22.547a3 3 0 0 1-3.004 0l-39-22.547a3 3 0 0 1-1.498-2.597v-45.101a3 3 0 0 1 1.499-2.597z"/><path stroke="#4C1D95" stroke-opacity=".3" d="M135.249 285.801a2.5 2.5 0 0 1 2.502 0l39 22.547a2.5 2.5 0 0 1 1.249 2.164v45.101a2.5 2.5 0 0 1-1.249 2.164l-39 22.547a2.5 2.5 0 0 1-2.502 0l-39-22.547A2.5 2.5 0 0 1 95 355.613v-45.101a2.5 2.5 0 0 1 1.249-2.164z"/><path fill="#171717" d="M217.998 285.368a3 3 0 0 1 3.004 0l39 22.547a3 3 0 0 1 1.498 2.597v45.101a3 3 0 0 1-1.498 2.597l-39 22.547a3 3 0 0 1-3.004 0l-39-22.547a3 3 0 0 1-1.498-2.597v-45.101a3 3 0 0 1 1.498-2.597z"/><path stroke="#4C1D95" stroke-opacity=".3" d="M218.249 285.801a2.5 2.5 0 0 1 2.502 0l39 22.547a2.5 2.5 0 0 1 1.249 2.164v45.101a2.5 2.5 0 0 1-1.249 2.164l-39 22.547a2.5 2.5 0 0 1-2.502 0l-39-22.547a2.5 2.5 0 0 1-1.249-2.164v-45.101a2.5 2.5 0 0 1 1.249-2.164z"/><path fill="#171717" d="M300.998 285.368a3 3 0 0 1 3.004 0l39 22.547a3 3 0 0 1 1.498 2.597v45.101a3 3 0 0 1-1.498 2.597l-39 22.547a3 3 0 0 1-3.004 0l-39-22.547a3 3 0 0 1-1.498-2.597v-45.101a3 3 0 0 1 1.498-2.597z"/><path stroke="#4C1D95" stroke-opacity=".3" d="M301.249 285.801a2.5 2.5 0 0 1 2.502 0l39 22.547a2.5 2.5 0 0 1 1.249 2.164v45.101a2.5 2.5 0 0 1-1.249 2.164l-39 22.547a2.5 2.5 0 0 1-2.502 0l-39-22.547a2.5 2.5 0 0 1-1.249-2.164v-45.101a2.5 2.5 0 0 1 1.249-2.164z"/><path fill="#171717" d="M383.998 285.368a3 3 0 0 1 3.004 0l39 22.547a3 3 0 0 1 1.498 2.597v45.101a3 3 0 0 1-1.498 2.597l-39 22.547a3 3 0 0 1-3.004 0l-39-22.547a3 3 0 0 1-1.498-2.597v-45.101a3 3 0 0 1 1.498-2.597z"/><path stroke="#4C1D95" stroke-opacity=".3" d="M384.249 285.801a2.5 2.5 0 0 1 2.502 0l39 22.547a2.5 2.5 0 0 1 1.249 2.164v45.101a2.5 2.5 0 0 1-1.249 2.164l-39 22.547a2.5 2.5 0 0 1-2.502 0l-39-22.547a2.5 2.5 0 0 1-1.249-2.164v-45.101a2.5 2.5 0 0 1 1.249-2.164z"/><path fill="#171717" d="M466.998 285.368a3 3 0 0 1 3.004 0l39 22.547a3 3 0 0 1 1.498 2.597v45.101a3 3 0 0 1-1.498 2.597l-39 22.547a3 3 0 0 1-3.004 0l-39-22.547a3 3 0 0 1-1.498-2.597v-45.101a3 3 0 0 1 1.498-2.597z"/><path stroke="#4C1D95" stroke-opacity=".3" d="M467.249 285.801a2.5 2.5 0 0 1 2.502 0l39 22.547a2.5 2.5 0 0 1 1.249 2.164v45.101a2.5 2.5 0 0 1-1.249 2.164l-39 22.547a2.5 2.5 0 0 1-2.502 0l-39-22.547a2.5 2.5 0 0 1-1.249-2.164v-45.101a2.5 2.5 0 0 1 1.249-2.164z"/><path fill="#4C1D95" fill-opacity=".12" d="M549.998 285.368a3 3 0 0 1 3.004 0l39 22.547a3 3 0 0 1 1.498 2.597v45.101a3 3 0 0 1-1.498 2.597l-39 22.547a3 3 0 0 1-3.004 0l-39-22.547a3 3 0 0 1-1.498-2.597v-45.101a3 3 0 0 1 1.498-2.597z"/><path stroke="#4C1D95" stroke-opacity=".3" d="M550.249 285.801a2.5 2.5 0 0 1 2.502 0l39 22.547a2.5 2.5 0 0 1 1.249 2.164v45.101a2.5 2.5 0 0 1-1.249 2.164l-39 22.547a2.5 2.5 0 0 1-2.502 0l-39-22.547a2.5 2.5 0 0 1-1.249-2.164v-45.101a2.5 2.5 0 0 1 1.249-2.164z"/><path fill="#171717" d="M632.998 285.368a3 3 0 0 1 3.004 0l39 22.547a3 3 0 0 1 1.498 2.597v45.101a3 3 0 0 1-1.498 2.597l-39 22.547a3 3 0 0 1-3.004 0l-39-22.547a3 3 0 0 1-1.498-2.597v-45.101a3 3 0 0 1 1.498-2.597z"/><path stroke="#4C1D95" stroke-opacity=".3" d="M633.249 285.801a2.5 2.5 0 0 1 2.502 0l39 22.547a2.5 2.5 0 0 1 1.249 2.164v45.101a2.5 2.5 0 0 1-1.249 2.164l-39 22.547a2.5 2.5 0 0 1-2.502 0l-39-22.547a2.5 2.5 0 0 1-1.249-2.164v-45.101a2.5 2.5 0 0 1 1.249-2.164z"/><path fill="#171717" d="M715.998 285.368a3 3 0 0 1 3.004 0l39 22.547a3 3 0 0 1 1.498 2.597v45.101a3 3 0 0 1-1.498 2.597l-39 22.547a3 3 0 0 1-3.004 0l-39-22.547a3 3 0 0 1-1.498-2.597v-45.101a3 3 0 0 1 1.498-2.597z"/><path stroke="#4C1D95" stroke-opacity=".3" d="M716.249 285.801a2.5 2.5 0 0 1 2.502 0l39 22.547a2.5 2.5 0 0 1 1.249 2.164v45.101a2.5 2.5 0 0 1-1.249 2.164l-39 22.547a2.5 2.5 0 0 1-2.502 0l-39-22.547a2.5 2.5 0 0 1-1.249-2.164v-45.101a2.5 2.5 0 0 1 1.249-2.164z"/><path fill="#171717" d="M798.998 285.368a3 3 0 0 1 3.004 0l39 22.547a3 3 0 0 1 1.498 2.597v45.101a3 3 0 0 1-1.498 2.597l-39 22.547a3 3 0 0 1-3.004 0l-39-22.547a3 3 0 0 1-1.498-2.597v-45.101a3 3 0 0 1 1.498-2.597z"/><path stroke="#4C1D95" stroke-opacity=".3" d="M799.249 285.801a2.5 2.5 0 0 1 2.502 0l39 22.547a2.5 2.5 0 0 1 1.249 2.164v45.101a2.5 2.5 0 0 1-1.249 2.164l-39 22.547a2.5 2.5 0 0 1-2.502 0l-39-22.547a2.5 2.5 0 0 1-1.249-2.164v-45.101a2.5 2.5 0 0 1 1.249-2.164z"/><path fill="#171717" d="M881.998 285.368a3 3 0 0 1 3.004 0l39 22.547a3 3 0 0 1 1.498 2.597v45.101a3 3 0 0 1-1.498 2.597l-39 22.547a3 3 0 0 1-3.004 0l-39-22.547a3 3 0 0 1-1.498-2.597v-45.101a3 3 0 0 1 1.498-2.597z"/><path stroke="#4C1D95" stroke-opacity=".3" d="M882.249 285.801a2.5 2.5 0 0 1 2.502 0l39 22.547a2.5 2.5 0 0 1 1.249 2.164v45.101a2.5 2.5 0 0 1-1.249 2.164l-39 22.547a2.5 2.5 0 0 1-2.502 0l-39-22.547a2.5 2.5 0 0 1-1.249-2.164v-45.101a2.5 2.5 0 0 1 1.249-2.164z"/><path fill="#171717" d="M964.998 285.368a3 3 0 0 1 3.004 0L1007 307.915c.93.536 1.5 1.526 1.5 2.597v45.101c0 1.071-.57 2.061-1.5 2.597l-38.998 22.547a3 3 0 0 1-3.004 0l-39-22.547a3 3 0 0 1-1.498-2.597v-45.101a3 3 0 0 1 1.498-2.597z"/><path stroke="#4C1D95" stroke-opacity=".3" d="M965.249 285.801a2.5 2.5 0 0 1 2.502 0l38.999 22.547a2.5 2.5 0 0 1 1.25 2.164v45.101c0 .893-.48 1.717-1.25 2.164l-38.999 22.547a2.5 2.5 0 0 1-2.502 0l-39-22.547a2.5 2.5 0 0 1-1.249-2.164v-45.101a2.5 2.5 0 0 1 1.249-2.164z"/><path fill="#171717" d="M1048 285.368a3 3 0 0 1 3 0l39 22.547c.93.536 1.5 1.526 1.5 2.597v45.101c0 1.071-.57 2.061-1.5 2.597l-39 22.547c-.93.537-2.07.537-3 0l-39-22.547a3 3 0 0 1-1.5-2.597v-45.101c0-1.071.57-2.061 1.5-2.597z"/><path stroke="#4C1D95" stroke-opacity=".3" d="M1048.25 285.801a2.49 2.49 0 0 1 2.5 0l39 22.547a2.5 2.5 0 0 1 1.25 2.164v45.101c0 .893-.48 1.717-1.25 2.164l-39 22.547c-.77.448-1.73.448-2.5 0l-39-22.547a2.5 2.5 0 0 1-1.25-2.164v-45.101c0-.893.48-1.717 1.25-2.164z"/><path fill="#171717" d="M1131 285.368a3 3 0 0 1 3 0l39 22.547c.93.536 1.5 1.526 1.5 2.597v45.101c0 1.071-.57 2.061-1.5 2.597l-39 22.547c-.93.537-2.07.537-3 0l-39-22.547a3 3 0 0 1-1.5-2.597v-45.101c0-1.071.57-2.061 1.5-2.597z"/><path stroke="#4C1D95" stroke-opacity=".3" d="M1131.25 285.801a2.49 2.49 0 0 1 2.5 0l39 22.547a2.5 2.5 0 0 1 1.25 2.164v45.101c0 .893-.48 1.717-1.25 2.164l-39 22.547c-.77.448-1.73.448-2.5 0l-39-22.547a2.5 2.5 0 0 1-1.25-2.164v-45.101c0-.893.48-1.717 1.25-2.164z"/><path fill="#171717" d="M1214 285.368a3 3 0 0 1 3 0l39 22.547c.93.536 1.5 1.526 1.5 2.597v45.101c0 1.071-.57 2.061-1.5 2.597l-39 22.547c-.93.537-2.07.537-3 0l-39-22.547a3 3 0 0 1-1.5-2.597v-45.101c0-1.071.57-2.061 1.5-2.597z"/><path stroke="#4C1D95" stroke-opacity=".3" d="M1214.25 285.801a2.49 2.49 0 0 1 2.5 0l39 22.547a2.5 2.5 0 0 1 1.25 2.164v45.101c0 .893-.48 1.717-1.25 2.164l-39 22.547c-.77.448-1.73.448-2.5 0l-39-22.547a2.5 2.5 0 0 1-1.25-2.164v-45.101c0-.893.48-1.717 1.25-2.164z"/><path fill="#171717" d="M1297 285.368a3 3 0 0 1 3 0l39 22.547c.93.536 1.5 1.526 1.5 2.597v45.101c0 1.071-.57 2.061-1.5 2.597l-39 22.547c-.93.537-2.07.537-3 0l-39-22.547a3 3 0 0 1-1.5-2.597v-45.101c0-1.071.57-2.061 1.5-2.597z"/><path stroke="#4C1D95" stroke-opacity=".3" d="M1297.25 285.801a2.49 2.49 0 0 1 2.5 0l39 22.547a2.5 2.5 0 0 1 1.25 2.164v45.101c0 .893-.48 1.717-1.25 2.164l-39 22.547c-.77.448-1.73.448-2.5 0l-39-22.547a2.5 2.5 0 0 1-1.25-2.164v-45.101c0-.893.48-1.717 1.25-2.164z"/><path fill="#171717" d="M1380 285.368a3 3 0 0 1 3 0l39 22.547c.93.536 1.5 1.526 1.5 2.597v45.101c0 1.071-.57 2.061-1.5 2.597l-39 22.547c-.93.537-2.07.537-3 0l-39-22.547a3 3 0 0 1-1.5-2.597v-45.101c0-1.071.57-2.061 1.5-2.597z"/><path stroke="#4C1D95" stroke-opacity=".3" d="M1380.25 285.801a2.49 2.49 0 0 1 2.5 0l39 22.547a2.5 2.5 0 0 1 1.25 2.164v45.101c0 .893-.48 1.717-1.25 2.164l-39 22.547c-.77.448-1.73.448-2.5 0l-39-22.547a2.5 2.5 0 0 1-1.25-2.164v-45.101c0-.893.48-1.717 1.25-2.164z"/><path fill="#171717" d="M1463 285.368a3 3 0 0 1 3 0l39 22.547c.93.536 1.5 1.526 1.5 2.597v45.101c0 1.071-.57 2.061-1.5 2.597l-39 22.547c-.93.537-2.07.537-3 0l-39-22.547a3 3 0 0 1-1.5-2.597v-45.101c0-1.071.57-2.061 1.5-2.597z"/><path stroke="#4C1D95" stroke-opacity=".3" d="M1463.25 285.801a2.49 2.49 0 0 1 2.5 0l39 22.547a2.5 2.5 0 0 1 1.25 2.164v45.101c0 .893-.48 1.717-1.25 2.164l-39 22.547c-.77.448-1.73.448-2.5 0l-39-22.547a2.5 2.5 0 0 1-1.25-2.164v-45.101c0-.893.48-1.717 1.25-2.164z"/><path fill="#171717" d="M10.499 356.493a3 3 0 0 1 3.002 0l39 22.547A3 3 0 0 1 54 381.637v45.101a3 3 0 0 1-1.498 2.597l-39 22.547a3 3 0 0 1-3.004 0l-39-22.547A3 3 0 0 1-30 426.738v-45.101a3 3 0 0 1 1.499-2.597z"/><path stroke="#4C1D95" stroke-opacity=".3" d="M10.749 356.926a2.5 2.5 0 0 1 2.502 0l39 22.547a2.5 2.5 0 0 1 1.249 2.164v45.101a2.5 2.5 0 0 1-1.249 2.164l-39 22.547a2.5 2.5 0 0 1-2.502 0l-39-22.547a2.5 2.5 0 0 1-1.249-2.164v-45.101a2.5 2.5 0 0 1 1.249-2.164z"/><path fill="#171717" d="M93.499 356.493a3 3 0 0 1 3.002 0l39.001 22.547a3 3 0 0 1 1.498 2.597v45.101a3 3 0 0 1-1.498 2.597l-39 22.547a3 3 0 0 1-3.003 0l-39-22.547A3 3 0 0 1 53 426.738v-45.101a3 3 0 0 1 1.499-2.597z"/><path stroke="#4C1D95" stroke-opacity=".3" d="M93.749 356.926a2.5 2.5 0 0 1 2.502 0l39 22.547a2.5 2.5 0 0 1 1.249 2.164v45.101a2.5 2.5 0 0 1-1.249 2.164l-39 22.547a2.5 2.5 0 0 1-2.502 0l-39-22.547a2.5 2.5 0 0 1-1.249-2.164v-45.101a2.5 2.5 0 0 1 1.249-2.164z"/><path fill="#171717" d="M176.498 356.493a3 3 0 0 1 3.004 0l39 22.547a3 3 0 0 1 1.498 2.597v45.101a3 3 0 0 1-1.498 2.597l-39 22.547a3 3 0 0 1-3.004 0l-39-22.547a3 3 0 0 1-1.498-2.597v-45.101a3 3 0 0 1 1.498-2.597z"/><path stroke="#4C1D95" stroke-opacity=".3" d="M176.749 356.926a2.5 2.5 0 0 1 2.502 0l39 22.547a2.5 2.5 0 0 1 1.249 2.164v45.101a2.5 2.5 0 0 1-1.249 2.164l-39 22.547a2.5 2.5 0 0 1-2.502 0l-39-22.547a2.5 2.5 0 0 1-1.249-2.164v-45.101a2.5 2.5 0 0 1 1.249-2.164z"/><path fill="#171717" d="M259.498 356.493a3 3 0 0 1 3.004 0l39 22.547a3 3 0 0 1 1.498 2.597v45.101a3 3 0 0 1-1.498 2.597l-39 22.547a3 3 0 0 1-3.004 0l-39-22.547a3 3 0 0 1-1.498-2.597v-45.101a3 3 0 0 1 1.498-2.597z"/><path stroke="#4C1D95" stroke-opacity=".3" d="M259.749 356.926a2.5 2.5 0 0 1 2.502 0l39 22.547a2.5 2.5 0 0 1 1.249 2.164v45.101a2.5 2.5 0 0 1-1.249 2.164l-39 22.547a2.5 2.5 0 0 1-2.502 0l-39-22.547a2.5 2.5 0 0 1-1.249-2.164v-45.101a2.5 2.5 0 0 1 1.249-2.164z"/><path fill="#171717" d="M342.498 356.493a3 3 0 0 1 3.004 0l39 22.547a3 3 0 0 1 1.498 2.597v45.101a3 3 0 0 1-1.498 2.597l-39 22.547a3 3 0 0 1-3.004 0l-39-22.547a3 3 0 0 1-1.498-2.597v-45.101a3 3 0 0 1 1.498-2.597z"/><path stroke="#4C1D95" stroke-opacity=".3" d="M342.749 356.926a2.5 2.5 0 0 1 2.502 0l39 22.547a2.5 2.5 0 0 1 1.249 2.164v45.101a2.5 2.5 0 0 1-1.249 2.164l-39 22.547a2.5 2.5 0 0 1-2.502 0l-39-22.547a2.5 2.5 0 0 1-1.249-2.164v-45.101a2.5 2.5 0 0 1 1.249-2.164z"/><path fill="#171717" d="M425.498 356.493a3 3 0 0 1 3.004 0l39 22.547a3 3 0 0 1 1.498 2.597v45.101a3 3 0 0 1-1.498 2.597l-39 22.547a3 3 0 0 1-3.004 0l-39-22.547a3 3 0 0 1-1.498-2.597v-45.101a3 3 0 0 1 1.498-2.597z"/><path stroke="#4C1D95" stroke-opacity=".3" d="M425.749 356.926a2.5 2.5 0 0 1 2.502 0l39 22.547a2.5 2.5 0 0 1 1.249 2.164v45.101a2.5 2.5 0 0 1-1.249 2.164l-39 22.547a2.5 2.5 0 0 1-2.502 0l-39-22.547a2.5 2.5 0 0 1-1.249-2.164v-45.101a2.5 2.5 0 0 1 1.249-2.164z"/><path fill="#171717" d="M508.498 356.493a3 3 0 0 1 3.004 0l39 22.547a3 3 0 0 1 1.498 2.597v45.101a3 3 0 0 1-1.498 2.597l-39 22.547a3 3 0 0 1-3.004 0l-39-22.547a3 3 0 0 1-1.498-2.597v-45.101a3 3 0 0 1 1.498-2.597z"/><path stroke="#4C1D95" stroke-opacity=".3" d="M508.749 356.926a2.5 2.5 0 0 1 2.502 0l39 22.547a2.5 2.5 0 0 1 1.249 2.164v45.101a2.5 2.5 0 0 1-1.249 2.164l-39 22.547a2.5 2.5 0 0 1-2.502 0l-39-22.547a2.5 2.5 0 0 1-1.249-2.164v-45.101a2.5 2.5 0 0 1 1.249-2.164z"/><path fill="#171717" d="M591.498 356.493a3 3 0 0 1 3.004 0l39 22.547a3 3 0 0 1 1.498 2.597v45.101a3 3 0 0 1-1.498 2.597l-39 22.547a3 3 0 0 1-3.004 0l-39-22.547a3 3 0 0 1-1.498-2.597v-45.101a3 3 0 0 1 1.498-2.597z"/><path stroke="#4C1D95" stroke-opacity=".3" d="M591.749 356.926a2.5 2.5 0 0 1 2.502 0l39 22.547a2.5 2.5 0 0 1 1.249 2.164v45.101a2.5 2.5 0 0 1-1.249 2.164l-39 22.547a2.5 2.5 0 0 1-2.502 0l-39-22.547a2.5 2.5 0 0 1-1.249-2.164v-45.101a2.5 2.5 0 0 1 1.249-2.164z"/><path fill="#171717" d="M674.498 356.493a3 3 0 0 1 3.004 0l39 22.547a3 3 0 0 1 1.498 2.597v45.101a3 3 0 0 1-1.498 2.597l-39 22.547a3 3 0 0 1-3.004 0l-39-22.547a3 3 0 0 1-1.498-2.597v-45.101a3 3 0 0 1 1.498-2.597z"/><path stroke="#4C1D95" stroke-opacity=".3" d="M674.749 356.926a2.5 2.5 0 0 1 2.502 0l39 22.547a2.5 2.5 0 0 1 1.249 2.164v45.101a2.5 2.5 0 0 1-1.249 2.164l-39 22.547a2.5 2.5 0 0 1-2.502 0l-39-22.547a2.5 2.5 0 0 1-1.249-2.164v-45.101a2.5 2.5 0 0 1 1.249-2.164z"/><path fill="#171717" d="M757.498 356.493a3 3 0 0 1 3.004 0l39 22.547a3 3 0 0 1 1.498 2.597v45.101a3 3 0 0 1-1.498 2.597l-39 22.547a3 3 0 0 1-3.004 0l-39-22.547a3 3 0 0 1-1.498-2.597v-45.101a3 3 0 0 1 1.498-2.597z"/><path stroke="#4C1D95" stroke-opacity=".3" d="M757.749 356.926a2.5 2.5 0 0 1 2.502 0l39 22.547a2.5 2.5 0 0 1 1.249 2.164v45.101a2.5 2.5 0 0 1-1.249 2.164l-39 22.547a2.5 2.5 0 0 1-2.502 0l-39-22.547a2.5 2.5 0 0 1-1.249-2.164v-45.101a2.5 2.5 0 0 1 1.249-2.164z"/><path fill="#4C1D95" fill-opacity=".12" d="M840.498 356.493a3 3 0 0 1 3.004 0l39 22.547a3 3 0 0 1 1.498 2.597v45.101a3 3 0 0 1-1.498 2.597l-39 22.547a3 3 0 0 1-3.004 0l-39-22.547a3 3 0 0 1-1.498-2.597v-45.101a3 3 0 0 1 1.498-2.597z"/><path stroke="#4C1D95" stroke-opacity=".3" d="M840.749 356.926a2.5 2.5 0 0 1 2.502 0l39 22.547a2.5 2.5 0 0 1 1.249 2.164v45.101a2.5 2.5 0 0 1-1.249 2.164l-39 22.547a2.5 2.5 0 0 1-2.502 0l-39-22.547a2.5 2.5 0 0 1-1.249-2.164v-45.101a2.5 2.5 0 0 1 1.249-2.164z"/><path fill="#4C1D95" fill-opacity=".12" d="M923.498 356.493a3 3 0 0 1 3.004 0l39 22.547a3 3 0 0 1 1.498 2.597v45.101a3 3 0 0 1-1.498 2.597l-39 22.547a3 3 0 0 1-3.004 0l-39-22.547a3 3 0 0 1-1.498-2.597v-45.101a3 3 0 0 1 1.498-2.597z"/><path stroke="#4C1D95" stroke-opacity=".3" d="M923.749 356.926a2.5 2.5 0 0 1 2.502 0l39 22.547a2.5 2.5 0 0 1 1.249 2.164v45.101a2.5 2.5 0 0 1-1.249 2.164l-39 22.547a2.5 2.5 0 0 1-2.502 0l-39-22.547a2.5 2.5 0 0 1-1.249-2.164v-45.101a2.5 2.5 0 0 1 1.249-2.164z"/><path fill="#171717" d="M1006.5 356.493a3 3 0 0 1 3 0l39 22.547c.93.536 1.5 1.526 1.5 2.597v45.101c0 1.071-.57 2.061-1.5 2.597l-39 22.547c-.93.537-2.07.537-3 0l-39.002-22.547a3 3 0 0 1-1.498-2.597v-45.101a3 3 0 0 1 1.498-2.597z"/><path stroke="#4C1D95" stroke-opacity=".3" d="M1006.75 356.926a2.49 2.49 0 0 1 2.5 0l39 22.547a2.5 2.5 0 0 1 1.25 2.164v45.101c0 .893-.48 1.717-1.25 2.164l-39 22.547c-.77.448-1.73.448-2.5 0l-39.001-22.547a2.5 2.5 0 0 1-1.249-2.164v-45.101a2.5 2.5 0 0 1 1.249-2.164z"/><path fill="#171717" d="M1089.5 356.493a3 3 0 0 1 3 0l39 22.547c.93.536 1.5 1.526 1.5 2.597v45.101c0 1.071-.57 2.061-1.5 2.597l-39 22.547c-.93.537-2.07.537-3 0l-39-22.547a3 3 0 0 1-1.5-2.597v-45.101c0-1.071.57-2.061 1.5-2.597z"/><path stroke="#4C1D95" stroke-opacity=".3" d="M1089.75 356.926a2.49 2.49 0 0 1 2.5 0l39 22.547a2.5 2.5 0 0 1 1.25 2.164v45.101c0 .893-.48 1.717-1.25 2.164l-39 22.547c-.77.448-1.73.448-2.5 0l-39-22.547a2.5 2.5 0 0 1-1.25-2.164v-45.101c0-.893.48-1.717 1.25-2.164z"/><path fill="#171717" d="M1172.5 356.493a3 3 0 0 1 3 0l39 22.547c.93.536 1.5 1.526 1.5 2.597v45.101c0 1.071-.57 2.061-1.5 2.597l-39 22.547c-.93.537-2.07.537-3 0l-39-22.547a3 3 0 0 1-1.5-2.597v-45.101c0-1.071.57-2.061 1.5-2.597z"/><path stroke="#4C1D95" stroke-opacity=".3" d="M1172.75 356.926a2.49 2.49 0 0 1 2.5 0l39 22.547a2.5 2.5 0 0 1 1.25 2.164v45.101c0 .893-.48 1.717-1.25 2.164l-39 22.547c-.77.448-1.73.448-2.5 0l-39-22.547a2.5 2.5 0 0 1-1.25-2.164v-45.101c0-.893.48-1.717 1.25-2.164z"/><path fill="#171717" d="M1255.5 356.493a3 3 0 0 1 3 0l39 22.547c.93.536 1.5 1.526 1.5 2.597v45.101c0 1.071-.57 2.061-1.5 2.597l-39 22.547c-.93.537-2.07.537-3 0l-39-22.547a3 3 0 0 1-1.5-2.597v-45.101c0-1.071.57-2.061 1.5-2.597z"/><path stroke="#4C1D95" stroke-opacity=".3" d="M1255.75 356.926a2.49 2.49 0 0 1 2.5 0l39 22.547a2.5 2.5 0 0 1 1.25 2.164v45.101c0 .893-.48 1.717-1.25 2.164l-39 22.547c-.77.448-1.73.448-2.5 0l-39-22.547a2.5 2.5 0 0 1-1.25-2.164v-45.101c0-.893.48-1.717 1.25-2.164z"/><path fill="#171717" d="M1338.5 356.493a3 3 0 0 1 3 0l39 22.547c.93.536 1.5 1.526 1.5 2.597v45.101c0 1.071-.57 2.061-1.5 2.597l-39 22.547c-.93.537-2.07.537-3 0l-39-22.547a3 3 0 0 1-1.5-2.597v-45.101c0-1.071.57-2.061 1.5-2.597z"/><path stroke="#4C1D95" stroke-opacity=".3" d="M1338.75 356.926a2.49 2.49 0 0 1 2.5 0l39 22.547a2.5 2.5 0 0 1 1.25 2.164v45.101c0 .893-.48 1.717-1.25 2.164l-39 22.547c-.77.448-1.73.448-2.5 0l-39-22.547a2.5 2.5 0 0 1-1.25-2.164v-45.101c0-.893.48-1.717 1.25-2.164z"/><path fill="#171717" d="M1421.5 356.493a3 3 0 0 1 3 0l39 22.547c.93.536 1.5 1.526 1.5 2.597v45.101c0 1.071-.57 2.061-1.5 2.597l-39 22.547c-.93.537-2.07.537-3 0l-39-22.547a3 3 0 0 1-1.5-2.597v-45.101c0-1.071.57-2.061 1.5-2.597z"/><path stroke="#4C1D95" stroke-opacity=".3" d="M1421.75 356.926a2.49 2.49 0 0 1 2.5 0l39 22.547a2.5 2.5 0 0 1 1.25 2.164v45.101c0 .893-.48 1.717-1.25 2.164l-39 22.547c-.77.448-1.73.448-2.5 0l-39-22.547a2.5 2.5 0 0 1-1.25-2.164v-45.101c0-.893.48-1.717 1.25-2.164z"/><path fill="#171717" d="M51.999 427.618a3 3 0 0 1 3.002 0l39 22.547a3 3 0 0 1 1.499 2.597v45.101a3 3 0 0 1-1.499 2.597l-39 22.547a3 3 0 0 1-3.002 0l-39-22.547a3 3 0 0 1-1.499-2.597v-45.101a3 3 0 0 1 1.499-2.597z"/><path stroke="#4C1D95" stroke-opacity=".3" d="M52.249 428.051a2.5 2.5 0 0 1 2.502 0l39 22.547A2.5 2.5 0 0 1 95 452.762v45.101a2.5 2.5 0 0 1-1.249 2.164l-39 22.547a2.5 2.5 0 0 1-2.502 0l-39-22.547A2.5 2.5 0 0 1 12 497.863v-45.101a2.5 2.5 0 0 1 1.249-2.164z"/><path fill="#171717" d="M134.998 427.618a3 3 0 0 1 3.004 0l39 22.547a3 3 0 0 1 1.498 2.597v45.101a3 3 0 0 1-1.498 2.597l-39 22.547a3 3 0 0 1-3.004 0l-39-22.547a3 3 0 0 1-1.498-2.597v-45.101a3 3 0 0 1 1.499-2.597z"/><path stroke="#4C1D95" stroke-opacity=".3" d="M135.249 428.051a2.5 2.5 0 0 1 2.502 0l39 22.547a2.5 2.5 0 0 1 1.249 2.164v45.101a2.5 2.5 0 0 1-1.249 2.164l-39 22.547a2.5 2.5 0 0 1-2.502 0l-39-22.547A2.5 2.5 0 0 1 95 497.863v-45.101a2.5 2.5 0 0 1 1.249-2.164z"/><path fill="#171717" d="M217.998 427.618a3 3 0 0 1 3.004 0l39 22.547a3 3 0 0 1 1.498 2.597v45.101a3 3 0 0 1-1.498 2.597l-39 22.547a3 3 0 0 1-3.004 0l-39-22.547a3 3 0 0 1-1.498-2.597v-45.101a3 3 0 0 1 1.498-2.597z"/><path stroke="#4C1D95" stroke-opacity=".3" d="M218.249 428.051a2.5 2.5 0 0 1 2.502 0l39 22.547a2.5 2.5 0 0 1 1.249 2.164v45.101a2.5 2.5 0 0 1-1.249 2.164l-39 22.547a2.5 2.5 0 0 1-2.502 0l-39-22.547a2.5 2.5 0 0 1-1.249-2.164v-45.101a2.5 2.5 0 0 1 1.249-2.164z"/><path fill="#171717" d="M300.998 427.618a3 3 0 0 1 3.004 0l39 22.547a3 3 0 0 1 1.498 2.597v45.101a3 3 0 0 1-1.498 2.597l-39 22.547a3 3 0 0 1-3.004 0l-39-22.547a3 3 0 0 1-1.498-2.597v-45.101a3 3 0 0 1 1.498-2.597z"/><path stroke="#4C1D95" stroke-opacity=".3" d="M301.249 428.051a2.5 2.5 0 0 1 2.502 0l39 22.547a2.5 2.5 0 0 1 1.249 2.164v45.101a2.5 2.5 0 0 1-1.249 2.164l-39 22.547a2.5 2.5 0 0 1-2.502 0l-39-22.547a2.5 2.5 0 0 1-1.249-2.164v-45.101a2.5 2.5 0 0 1 1.249-2.164z"/><path fill="#171717" d="M383.998 427.618a3 3 0 0 1 3.004 0l39 22.547a3 3 0 0 1 1.498 2.597v45.101a3 3 0 0 1-1.498 2.597l-39 22.547a3 3 0 0 1-3.004 0l-39-22.547a3 3 0 0 1-1.498-2.597v-45.101a3 3 0 0 1 1.498-2.597z"/><path stroke="#4C1D95" stroke-opacity=".3" d="M384.249 428.051a2.5 2.5 0 0 1 2.502 0l39 22.547a2.5 2.5 0 0 1 1.249 2.164v45.101a2.5 2.5 0 0 1-1.249 2.164l-39 22.547a2.5 2.5 0 0 1-2.502 0l-39-22.547a2.5 2.5 0 0 1-1.249-2.164v-45.101a2.5 2.5 0 0 1 1.249-2.164z"/><path fill="#171717" d="M466.998 427.618a3 3 0 0 1 3.004 0l39 22.547a3 3 0 0 1 1.498 2.597v45.101a3 3 0 0 1-1.498 2.597l-39 22.547a3 3 0 0 1-3.004 0l-39-22.547a3 3 0 0 1-1.498-2.597v-45.101a3 3 0 0 1 1.498-2.597z"/><path stroke="#4C1D95" stroke-opacity=".3" d="M467.249 428.051a2.5 2.5 0 0 1 2.502 0l39 22.547a2.5 2.5 0 0 1 1.249 2.164v45.101a2.5 2.5 0 0 1-1.249 2.164l-39 22.547a2.5 2.5 0 0 1-2.502 0l-39-22.547a2.5 2.5 0 0 1-1.249-2.164v-45.101a2.5 2.5 0 0 1 1.249-2.164z"/><path fill="#171717" d="M549.998 427.618a3 3 0 0 1 3.004 0l39 22.547a3 3 0 0 1 1.498 2.597v45.101a3 3 0 0 1-1.498 2.597l-39 22.547a3 3 0 0 1-3.004 0l-39-22.547a3 3 0 0 1-1.498-2.597v-45.101a3 3 0 0 1 1.498-2.597z"/><path stroke="#4C1D95" stroke-opacity=".3" d="M550.249 428.051a2.5 2.5 0 0 1 2.502 0l39 22.547a2.5 2.5 0 0 1 1.249 2.164v45.101a2.5 2.5 0 0 1-1.249 2.164l-39 22.547a2.5 2.5 0 0 1-2.502 0l-39-22.547a2.5 2.5 0 0 1-1.249-2.164v-45.101a2.5 2.5 0 0 1 1.249-2.164z"/><path fill="#171717" d="M632.998 427.618a3 3 0 0 1 3.004 0l39 22.547a3 3 0 0 1 1.498 2.597v45.101a3 3 0 0 1-1.498 2.597l-39 22.547a3 3 0 0 1-3.004 0l-39-22.547a3 3 0 0 1-1.498-2.597v-45.101a3 3 0 0 1 1.498-2.597z"/><path stroke="#4C1D95" stroke-opacity=".3" d="M633.249 428.051a2.5 2.5 0 0 1 2.502 0l39 22.547a2.5 2.5 0 0 1 1.249 2.164v45.101a2.5 2.5 0 0 1-1.249 2.164l-39 22.547a2.5 2.5 0 0 1-2.502 0l-39-22.547a2.5 2.5 0 0 1-1.249-2.164v-45.101a2.5 2.5 0 0 1 1.249-2.164z"/><path fill="#171717" d="M715.998 427.618a3 3 0 0 1 3.004 0l39 22.547a3 3 0 0 1 1.498 2.597v45.101a3 3 0 0 1-1.498 2.597l-39 22.547a3 3 0 0 1-3.004 0l-39-22.547a3 3 0 0 1-1.498-2.597v-45.101a3 3 0 0 1 1.498-2.597z"/><path stroke="#4C1D95" stroke-opacity=".3" d="M716.249 428.051a2.5 2.5 0 0 1 2.502 0l39 22.547a2.5 2.5 0 0 1 1.249 2.164v45.101a2.5 2.5 0 0 1-1.249 2.164l-39 22.547a2.5 2.5 0 0 1-2.502 0l-39-22.547a2.5 2.5 0 0 1-1.249-2.164v-45.101a2.5 2.5 0 0 1 1.249-2.164z"/><path fill="#171717" d="M798.998 427.618a3 3 0 0 1 3.004 0l39 22.547a3 3 0 0 1 1.498 2.597v45.101a3 3 0 0 1-1.498 2.597l-39 22.547a3 3 0 0 1-3.004 0l-39-22.547a3 3 0 0 1-1.498-2.597v-45.101a3 3 0 0 1 1.498-2.597z"/><path stroke="#4C1D95" stroke-opacity=".3" d="M799.249 428.051a2.5 2.5 0 0 1 2.502 0l39 22.547a2.5 2.5 0 0 1 1.249 2.164v45.101a2.5 2.5 0 0 1-1.249 2.164l-39 22.547a2.5 2.5 0 0 1-2.502 0l-39-22.547a2.5 2.5 0 0 1-1.249-2.164v-45.101a2.5 2.5 0 0 1 1.249-2.164z"/><path fill="#171717" d="M881.998 427.618a3 3 0 0 1 3.004 0l39 22.547a3 3 0 0 1 1.498 2.597v45.101a3 3 0 0 1-1.498 2.597l-39 22.547a3 3 0 0 1-3.004 0l-39-22.547a3 3 0 0 1-1.498-2.597v-45.101a3 3 0 0 1 1.498-2.597z"/><path stroke="#4C1D95" stroke-opacity=".3" d="M882.249 428.051a2.5 2.5 0 0 1 2.502 0l39 22.547a2.5 2.5 0 0 1 1.249 2.164v45.101a2.5 2.5 0 0 1-1.249 2.164l-39 22.547a2.5 2.5 0 0 1-2.502 0l-39-22.547a2.5 2.5 0 0 1-1.249-2.164v-45.101a2.5 2.5 0 0 1 1.249-2.164z"/><path fill="#171717" d="M964.998 427.618a3 3 0 0 1 3.004 0L1007 450.165c.93.536 1.5 1.526 1.5 2.597v45.101c0 1.071-.57 2.061-1.5 2.597l-38.998 22.547a3 3 0 0 1-3.004 0l-39-22.547a3 3 0 0 1-1.498-2.597v-45.101a3 3 0 0 1 1.498-2.597z"/><path stroke="#4C1D95" stroke-opacity=".3" d="M965.249 428.051a2.5 2.5 0 0 1 2.502 0l38.999 22.547a2.5 2.5 0 0 1 1.25 2.164v45.101c0 .893-.48 1.717-1.25 2.164l-38.999 22.547a2.5 2.5 0 0 1-2.502 0l-39-22.547a2.5 2.5 0 0 1-1.249-2.164v-45.101a2.5 2.5 0 0 1 1.249-2.164z"/><path fill="#171717" d="M1048 427.618a3 3 0 0 1 3 0l39 22.547c.93.536 1.5 1.526 1.5 2.597v45.101c0 1.071-.57 2.061-1.5 2.597l-39 22.547c-.93.537-2.07.537-3 0l-39-22.547a3 3 0 0 1-1.5-2.597v-45.101c0-1.071.57-2.061 1.5-2.597z"/><path stroke="#4C1D95" stroke-opacity=".3" d="M1048.25 428.051a2.49 2.49 0 0 1 2.5 0l39 22.547a2.5 2.5 0 0 1 1.25 2.164v45.101c0 .893-.48 1.717-1.25 2.164l-39 22.547c-.77.448-1.73.448-2.5 0l-39-22.547a2.5 2.5 0 0 1-1.25-2.164v-45.101c0-.893.48-1.717 1.25-2.164z"/><path fill="#171717" d="M1131 427.618a3 3 0 0 1 3 0l39 22.547c.93.536 1.5 1.526 1.5 2.597v45.101c0 1.071-.57 2.061-1.5 2.597l-39 22.547c-.93.537-2.07.537-3 0l-39-22.547a3 3 0 0 1-1.5-2.597v-45.101c0-1.071.57-2.061 1.5-2.597z"/><path stroke="#4C1D95" stroke-opacity=".3" d="M1131.25 428.051a2.49 2.49 0 0 1 2.5 0l39 22.547a2.5 2.5 0 0 1 1.25 2.164v45.101c0 .893-.48 1.717-1.25 2.164l-39 22.547c-.77.448-1.73.448-2.5 0l-39-22.547a2.5 2.5 0 0 1-1.25-2.164v-45.101c0-.893.48-1.717 1.25-2.164z"/><path fill="#171717" d="M1214 427.618a3 3 0 0 1 3 0l39 22.547c.93.536 1.5 1.526 1.5 2.597v45.101c0 1.071-.57 2.061-1.5 2.597l-39 22.547c-.93.537-2.07.537-3 0l-39-22.547a3 3 0 0 1-1.5-2.597v-45.101c0-1.071.57-2.061 1.5-2.597z"/><path stroke="#4C1D95" stroke-opacity=".3" d="M1214.25 428.051a2.49 2.49 0 0 1 2.5 0l39 22.547a2.5 2.5 0 0 1 1.25 2.164v45.101c0 .893-.48 1.717-1.25 2.164l-39 22.547c-.77.448-1.73.448-2.5 0l-39-22.547a2.5 2.5 0 0 1-1.25-2.164v-45.101c0-.893.48-1.717 1.25-2.164z"/><path fill="#171717" d="M1297 427.618a3 3 0 0 1 3 0l39 22.547c.93.536 1.5 1.526 1.5 2.597v45.101c0 1.071-.57 2.061-1.5 2.597l-39 22.547c-.93.537-2.07.537-3 0l-39-22.547a3 3 0 0 1-1.5-2.597v-45.101c0-1.071.57-2.061 1.5-2.597z"/><path stroke="#4C1D95" stroke-opacity=".3" d="M1297.25 428.051a2.49 2.49 0 0 1 2.5 0l39 22.547a2.5 2.5 0 0 1 1.25 2.164v45.101c0 .893-.48 1.717-1.25 2.164l-39 22.547c-.77.448-1.73.448-2.5 0l-39-22.547a2.5 2.5 0 0 1-1.25-2.164v-45.101c0-.893.48-1.717 1.25-2.164z"/><path fill="#171717" d="M1380 427.618a3 3 0 0 1 3 0l39 22.547c.93.536 1.5 1.526 1.5 2.597v45.101c0 1.071-.57 2.061-1.5 2.597l-39 22.547c-.93.537-2.07.537-3 0l-39-22.547a3 3 0 0 1-1.5-2.597v-45.101c0-1.071.57-2.061 1.5-2.597z"/><path stroke="#4C1D95" stroke-opacity=".3" d="M1380.25 428.051a2.49 2.49 0 0 1 2.5 0l39 22.547a2.5 2.5 0 0 1 1.25 2.164v45.101c0 .893-.48 1.717-1.25 2.164l-39 22.547c-.77.448-1.73.448-2.5 0l-39-22.547a2.5 2.5 0 0 1-1.25-2.164v-45.101c0-.893.48-1.717 1.25-2.164z"/><path fill="#171717" d="M1463 427.618a3 3 0 0 1 3 0l39 22.547c.93.536 1.5 1.526 1.5 2.597v45.101c0 1.071-.57 2.061-1.5 2.597l-39 22.547c-.93.537-2.07.537-3 0l-39-22.547a3 3 0 0 1-1.5-2.597v-45.101c0-1.071.57-2.061 1.5-2.597z"/><path stroke="#4C1D95" stroke-opacity=".3" d="M1463.25 428.051a2.49 2.49 0 0 1 2.5 0l39 22.547a2.5 2.5 0 0 1 1.25 2.164v45.101c0 .893-.48 1.717-1.25 2.164l-39 22.547c-.77.448-1.73.448-2.5 0l-39-22.547a2.5 2.5 0 0 1-1.25-2.164v-45.101c0-.893.48-1.717 1.25-2.164z"/><path fill="#171717" d="M10.499 498.743a3 3 0 0 1 3.002 0l39 22.547A3 3 0 0 1 54 523.887v45.101a3 3 0 0 1-1.498 2.597l-39 22.547a3 3 0 0 1-3.004 0l-39-22.547A3 3 0 0 1-30 568.988v-45.101a3 3 0 0 1 1.499-2.597z"/><path stroke="#4C1D95" stroke-opacity=".3" d="M10.749 499.176a2.5 2.5 0 0 1 2.502 0l39 22.547a2.5 2.5 0 0 1 1.249 2.164v45.101a2.5 2.5 0 0 1-1.249 2.164l-39 22.547a2.5 2.5 0 0 1-2.502 0l-39-22.547a2.5 2.5 0 0 1-1.249-2.164v-45.101a2.5 2.5 0 0 1 1.249-2.164z"/><path fill="#171717" d="M93.499 498.743a3 3 0 0 1 3.002 0l39.001 22.547a3 3 0 0 1 1.498 2.597v45.101a3 3 0 0 1-1.498 2.597l-39 22.547a3 3 0 0 1-3.003 0l-39-22.547A3 3 0 0 1 53 568.988v-45.101a3 3 0 0 1 1.499-2.597z"/><path stroke="#4C1D95" stroke-opacity=".3" d="M93.749 499.176a2.5 2.5 0 0 1 2.502 0l39 22.547a2.5 2.5 0 0 1 1.249 2.164v45.101a2.5 2.5 0 0 1-1.249 2.164l-39 22.547a2.5 2.5 0 0 1-2.502 0l-39-22.547a2.5 2.5 0 0 1-1.249-2.164v-45.101a2.5 2.5 0 0 1 1.249-2.164z"/><path fill="#171717" d="M176.498 498.743a3 3 0 0 1 3.004 0l39 22.547a3 3 0 0 1 1.498 2.597v45.101a3 3 0 0 1-1.498 2.597l-39 22.547a3 3 0 0 1-3.004 0l-39-22.547a3 3 0 0 1-1.498-2.597v-45.101a3 3 0 0 1 1.498-2.597z"/><path stroke="#4C1D95" stroke-opacity=".3" d="M176.749 499.176a2.5 2.5 0 0 1 2.502 0l39 22.547a2.5 2.5 0 0 1 1.249 2.164v45.101a2.5 2.5 0 0 1-1.249 2.164l-39 22.547a2.5 2.5 0 0 1-2.502 0l-39-22.547a2.5 2.5 0 0 1-1.249-2.164v-45.101a2.5 2.5 0 0 1 1.249-2.164z"/><path fill="#171717" d="M259.498 498.743a3 3 0 0 1 3.004 0l39 22.547a3 3 0 0 1 1.498 2.597v45.101a3 3 0 0 1-1.498 2.597l-39 22.547a3 3 0 0 1-3.004 0l-39-22.547a3 3 0 0 1-1.498-2.597v-45.101a3 3 0 0 1 1.498-2.597z"/><path stroke="#4C1D95" stroke-opacity=".3" d="M259.749 499.176a2.5 2.5 0 0 1 2.502 0l39 22.547a2.5 2.5 0 0 1 1.249 2.164v45.101a2.5 2.5 0 0 1-1.249 2.164l-39 22.547a2.5 2.5 0 0 1-2.502 0l-39-22.547a2.5 2.5 0 0 1-1.249-2.164v-45.101a2.5 2.5 0 0 1 1.249-2.164z"/><path fill="#171717" d="M342.498 498.743a3 3 0 0 1 3.004 0l39 22.547a3 3 0 0 1 1.498 2.597v45.101a3 3 0 0 1-1.498 2.597l-39 22.547a3 3 0 0 1-3.004 0l-39-22.547a3 3 0 0 1-1.498-2.597v-45.101a3 3 0 0 1 1.498-2.597z"/><path stroke="#4C1D95" stroke-opacity=".3" d="M342.749 499.176a2.5 2.5 0 0 1 2.502 0l39 22.547a2.5 2.5 0 0 1 1.249 2.164v45.101a2.5 2.5 0 0 1-1.249 2.164l-39 22.547a2.5 2.5 0 0 1-2.502 0l-39-22.547a2.5 2.5 0 0 1-1.249-2.164v-45.101a2.5 2.5 0 0 1 1.249-2.164z"/><path fill="#171717" d="M425.498 498.743a3 3 0 0 1 3.004 0l39 22.547a3 3 0 0 1 1.498 2.597v45.101a3 3 0 0 1-1.498 2.597l-39 22.547a3 3 0 0 1-3.004 0l-39-22.547a3 3 0 0 1-1.498-2.597v-45.101a3 3 0 0 1 1.498-2.597z"/><path stroke="#4C1D95" stroke-opacity=".3" d="M425.749 499.176a2.5 2.5 0 0 1 2.502 0l39 22.547a2.5 2.5 0 0 1 1.249 2.164v45.101a2.5 2.5 0 0 1-1.249 2.164l-39 22.547a2.5 2.5 0 0 1-2.502 0l-39-22.547a2.5 2.5 0 0 1-1.249-2.164v-45.101a2.5 2.5 0 0 1 1.249-2.164z"/><path fill="#171717" d="M508.498 498.743a3 3 0 0 1 3.004 0l39 22.547a3 3 0 0 1 1.498 2.597v45.101a3 3 0 0 1-1.498 2.597l-39 22.547a3 3 0 0 1-3.004 0l-39-22.547a3 3 0 0 1-1.498-2.597v-45.101a3 3 0 0 1 1.498-2.597z"/><path stroke="#4C1D95" stroke-opacity=".3" d="M508.749 499.176a2.5 2.5 0 0 1 2.502 0l39 22.547a2.5 2.5 0 0 1 1.249 2.164v45.101a2.5 2.5 0 0 1-1.249 2.164l-39 22.547a2.5 2.5 0 0 1-2.502 0l-39-22.547a2.5 2.5 0 0 1-1.249-2.164v-45.101a2.5 2.5 0 0 1 1.249-2.164z"/><path fill="#171717" d="M591.498 498.743a3 3 0 0 1 3.004 0l39 22.547a3 3 0 0 1 1.498 2.597v45.101a3 3 0 0 1-1.498 2.597l-39 22.547a3 3 0 0 1-3.004 0l-39-22.547a3 3 0 0 1-1.498-2.597v-45.101a3 3 0 0 1 1.498-2.597z"/><path stroke="#4C1D95" stroke-opacity=".3" d="M591.749 499.176a2.5 2.5 0 0 1 2.502 0l39 22.547a2.5 2.5 0 0 1 1.249 2.164v45.101a2.5 2.5 0 0 1-1.249 2.164l-39 22.547a2.5 2.5 0 0 1-2.502 0l-39-22.547a2.5 2.5 0 0 1-1.249-2.164v-45.101a2.5 2.5 0 0 1 1.249-2.164z"/><path fill="#171717" d="M674.498 498.743a3 3 0 0 1 3.004 0l39 22.547a3 3 0 0 1 1.498 2.597v45.101a3 3 0 0 1-1.498 2.597l-39 22.547a3 3 0 0 1-3.004 0l-39-22.547a3 3 0 0 1-1.498-2.597v-45.101a3 3 0 0 1 1.498-2.597z"/><path stroke="#4C1D95" stroke-opacity=".3" d="M674.749 499.176a2.5 2.5 0 0 1 2.502 0l39 22.547a2.5 2.5 0 0 1 1.249 2.164v45.101a2.5 2.5 0 0 1-1.249 2.164l-39 22.547a2.5 2.5 0 0 1-2.502 0l-39-22.547a2.5 2.5 0 0 1-1.249-2.164v-45.101a2.5 2.5 0 0 1 1.249-2.164z"/><path fill="#171717" d="M757.498 498.743a3 3 0 0 1 3.004 0l39 22.547a3 3 0 0 1 1.498 2.597v45.101a3 3 0 0 1-1.498 2.597l-39 22.547a3 3 0 0 1-3.004 0l-39-22.547a3 3 0 0 1-1.498-2.597v-45.101a3 3 0 0 1 1.498-2.597z"/><path stroke="#4C1D95" stroke-opacity=".3" d="M757.749 499.176a2.5 2.5 0 0 1 2.502 0l39 22.547a2.5 2.5 0 0 1 1.249 2.164v45.101a2.5 2.5 0 0 1-1.249 2.164l-39 22.547a2.5 2.5 0 0 1-2.502 0l-39-22.547a2.5 2.5 0 0 1-1.249-2.164v-45.101a2.5 2.5 0 0 1 1.249-2.164z"/><path fill="#171717" d="M840.498 498.743a3 3 0 0 1 3.004 0l39 22.547a3 3 0 0 1 1.498 2.597v45.101a3 3 0 0 1-1.498 2.597l-39 22.547a3 3 0 0 1-3.004 0l-39-22.547a3 3 0 0 1-1.498-2.597v-45.101a3 3 0 0 1 1.498-2.597z"/><path stroke="#4C1D95" stroke-opacity=".3" d="M840.749 499.176a2.5 2.5 0 0 1 2.502 0l39 22.547a2.5 2.5 0 0 1 1.249 2.164v45.101a2.5 2.5 0 0 1-1.249 2.164l-39 22.547a2.5 2.5 0 0 1-2.502 0l-39-22.547a2.5 2.5 0 0 1-1.249-2.164v-45.101a2.5 2.5 0 0 1 1.249-2.164z"/><path fill="#171717" d="M923.498 498.743a3 3 0 0 1 3.004 0l39 22.547a3 3 0 0 1 1.498 2.597v45.101a3 3 0 0 1-1.498 2.597l-39 22.547a3 3 0 0 1-3.004 0l-39-22.547a3 3 0 0 1-1.498-2.597v-45.101a3 3 0 0 1 1.498-2.597z"/><path stroke="#4C1D95" stroke-opacity=".3" d="M923.749 499.176a2.5 2.5 0 0 1 2.502 0l39 22.547a2.5 2.5 0 0 1 1.249 2.164v45.101a2.5 2.5 0 0 1-1.249 2.164l-39 22.547a2.5 2.5 0 0 1-2.502 0l-39-22.547a2.5 2.5 0 0 1-1.249-2.164v-45.101a2.5 2.5 0 0 1 1.249-2.164z"/><path fill="#171717" d="M1006.5 498.743a3 3 0 0 1 3 0l39 22.547c.93.536 1.5 1.526 1.5 2.597v45.101c0 1.071-.57 2.061-1.5 2.597l-39 22.547c-.93.537-2.07.537-3 0l-39.002-22.547a3 3 0 0 1-1.498-2.597v-45.101a3 3 0 0 1 1.498-2.597z"/><path stroke="#4C1D95" stroke-opacity=".3" d="M1006.75 499.176a2.49 2.49 0 0 1 2.5 0l39 22.547a2.5 2.5 0 0 1 1.25 2.164v45.101c0 .893-.48 1.717-1.25 2.164l-39 22.547c-.77.448-1.73.448-2.5 0l-39.001-22.547a2.5 2.5 0 0 1-1.249-2.164v-45.101a2.5 2.5 0 0 1 1.249-2.164z"/><path fill="#171717" d="M1089.5 498.743a3 3 0 0 1 3 0l39 22.547c.93.536 1.5 1.526 1.5 2.597v45.101c0 1.071-.57 2.061-1.5 2.597l-39 22.547c-.93.537-2.07.537-3 0l-39-22.547a3 3 0 0 1-1.5-2.597v-45.101c0-1.071.57-2.061 1.5-2.597z"/><path stroke="#4C1D95" stroke-opacity=".3" d="M1089.75 499.176a2.49 2.49 0 0 1 2.5 0l39 22.547a2.5 2.5 0 0 1 1.25 2.164v45.101c0 .893-.48 1.717-1.25 2.164l-39 22.547c-.77.448-1.73.448-2.5 0l-39-22.547a2.5 2.5 0 0 1-1.25-2.164v-45.101c0-.893.48-1.717 1.25-2.164z"/><path fill="#171717" d="M1172.5 498.743a3 3 0 0 1 3 0l39 22.547c.93.536 1.5 1.526 1.5 2.597v45.101c0 1.071-.57 2.061-1.5 2.597l-39 22.547c-.93.537-2.07.537-3 0l-39-22.547a3 3 0 0 1-1.5-2.597v-45.101c0-1.071.57-2.061 1.5-2.597z"/><path stroke="#4C1D95" stroke-opacity=".3" d="M1172.75 499.176a2.49 2.49 0 0 1 2.5 0l39 22.547a2.5 2.5 0 0 1 1.25 2.164v45.101c0 .893-.48 1.717-1.25 2.164l-39 22.547c-.77.448-1.73.448-2.5 0l-39-22.547a2.5 2.5 0 0 1-1.25-2.164v-45.101c0-.893.48-1.717 1.25-2.164z"/><path fill="#171717" d="M1255.5 498.743a3 3 0 0 1 3 0l39 22.547c.93.536 1.5 1.526 1.5 2.597v45.101c0 1.071-.57 2.061-1.5 2.597l-39 22.547c-.93.537-2.07.537-3 0l-39-22.547a3 3 0 0 1-1.5-2.597v-45.101c0-1.071.57-2.061 1.5-2.597z"/><path stroke="#4C1D95" stroke-opacity=".3" d="M1255.75 499.176a2.49 2.49 0 0 1 2.5 0l39 22.547a2.5 2.5 0 0 1 1.25 2.164v45.101c0 .893-.48 1.717-1.25 2.164l-39 22.547c-.77.448-1.73.448-2.5 0l-39-22.547a2.5 2.5 0 0 1-1.25-2.164v-45.101c0-.893.48-1.717 1.25-2.164z"/><path fill="#171717" d="M1338.5 498.743a3 3 0 0 1 3 0l39 22.547c.93.536 1.5 1.526 1.5 2.597v45.101c0 1.071-.57 2.061-1.5 2.597l-39 22.547c-.93.537-2.07.537-3 0l-39-22.547a3 3 0 0 1-1.5-2.597v-45.101c0-1.071.57-2.061 1.5-2.597z"/><path stroke="#4C1D95" stroke-opacity=".3" d="M1338.75 499.176a2.49 2.49 0 0 1 2.5 0l39 22.547a2.5 2.5 0 0 1 1.25 2.164v45.101c0 .893-.48 1.717-1.25 2.164l-39 22.547c-.77.448-1.73.448-2.5 0l-39-22.547a2.5 2.5 0 0 1-1.25-2.164v-45.101c0-.893.48-1.717 1.25-2.164z"/><path fill="#171717" d="M1421.5 498.743a3 3 0 0 1 3 0l39 22.547c.93.536 1.5 1.526 1.5 2.597v45.101c0 1.071-.57 2.061-1.5 2.597l-39 22.547c-.93.537-2.07.537-3 0l-39-22.547a3 3 0 0 1-1.5-2.597v-45.101c0-1.071.57-2.061 1.5-2.597z"/><path stroke="#4C1D95" stroke-opacity=".3" d="M1421.75 499.176a2.49 2.49 0 0 1 2.5 0l39 22.547a2.5 2.5 0 0 1 1.25 2.164v45.101c0 .893-.48 1.717-1.25 2.164l-39 22.547c-.77.448-1.73.448-2.5 0l-39-22.547a2.5 2.5 0 0 1-1.25-2.164v-45.101c0-.893.48-1.717 1.25-2.164z"/><path fill="#171717" d="M51.999 569.868a3 3 0 0 1 3.002 0l39 22.547a3 3 0 0 1 1.499 2.597v45.101a3 3 0 0 1-1.499 2.597l-39 22.547a3 3 0 0 1-3.002 0l-39-22.547a3 3 0 0 1-1.499-2.597v-45.101a3 3 0 0 1 1.499-2.597z"/><path stroke="#4C1D95" stroke-opacity=".3" d="M52.249 570.301a2.5 2.5 0 0 1 2.502 0l39 22.547A2.5 2.5 0 0 1 95 595.012v45.101a2.5 2.5 0 0 1-1.249 2.164l-39 22.547a2.5 2.5 0 0 1-2.502 0l-39-22.547A2.5 2.5 0 0 1 12 640.113v-45.101a2.5 2.5 0 0 1 1.249-2.164z"/><path fill="#171717" d="M134.998 569.868a3 3 0 0 1 3.004 0l39 22.547a3 3 0 0 1 1.498 2.597v45.101a3 3 0 0 1-1.498 2.597l-39 22.547a3 3 0 0 1-3.004 0l-39-22.547a3 3 0 0 1-1.498-2.597v-45.101a3 3 0 0 1 1.499-2.597z"/><path stroke="#4C1D95" stroke-opacity=".3" d="M135.249 570.301a2.5 2.5 0 0 1 2.502 0l39 22.547a2.5 2.5 0 0 1 1.249 2.164v45.101a2.5 2.5 0 0 1-1.249 2.164l-39 22.547a2.5 2.5 0 0 1-2.502 0l-39-22.547A2.5 2.5 0 0 1 95 640.113v-45.101a2.5 2.5 0 0 1 1.249-2.164z"/><path fill="#171717" d="M217.998 569.868a3 3 0 0 1 3.004 0l39 22.547a3 3 0 0 1 1.498 2.597v45.101a3 3 0 0 1-1.498 2.597l-39 22.547a3 3 0 0 1-3.004 0l-39-22.547a3 3 0 0 1-1.498-2.597v-45.101a3 3 0 0 1 1.498-2.597z"/><path stroke="#4C1D95" stroke-opacity=".3" d="M218.249 570.301a2.5 2.5 0 0 1 2.502 0l39 22.547a2.5 2.5 0 0 1 1.249 2.164v45.101a2.5 2.5 0 0 1-1.249 2.164l-39 22.547a2.5 2.5 0 0 1-2.502 0l-39-22.547a2.5 2.5 0 0 1-1.249-2.164v-45.101a2.5 2.5 0 0 1 1.249-2.164z"/><path fill="#171717" d="M300.998 569.868a3 3 0 0 1 3.004 0l39 22.547a3 3 0 0 1 1.498 2.597v45.101a3 3 0 0 1-1.498 2.597l-39 22.547a3 3 0 0 1-3.004 0l-39-22.547a3 3 0 0 1-1.498-2.597v-45.101a3 3 0 0 1 1.498-2.597z"/><path stroke="#4C1D95" stroke-opacity=".3" d="M301.249 570.301a2.5 2.5 0 0 1 2.502 0l39 22.547a2.5 2.5 0 0 1 1.249 2.164v45.101a2.5 2.5 0 0 1-1.249 2.164l-39 22.547a2.5 2.5 0 0 1-2.502 0l-39-22.547a2.5 2.5 0 0 1-1.249-2.164v-45.101a2.5 2.5 0 0 1 1.249-2.164z"/><path fill="#171717" d="M383.998 569.868a3 3 0 0 1 3.004 0l39 22.547a3 3 0 0 1 1.498 2.597v45.101a3 3 0 0 1-1.498 2.597l-39 22.547a3 3 0 0 1-3.004 0l-39-22.547a3 3 0 0 1-1.498-2.597v-45.101a3 3 0 0 1 1.498-2.597z"/><path stroke="#4C1D95" stroke-opacity=".3" d="M384.249 570.301a2.5 2.5 0 0 1 2.502 0l39 22.547a2.5 2.5 0 0 1 1.249 2.164v45.101a2.5 2.5 0 0 1-1.249 2.164l-39 22.547a2.5 2.5 0 0 1-2.502 0l-39-22.547a2.5 2.5 0 0 1-1.249-2.164v-45.101a2.5 2.5 0 0 1 1.249-2.164z"/><path fill="#171717" d="M466.998 569.868a3 3 0 0 1 3.004 0l39 22.547a3 3 0 0 1 1.498 2.597v45.101a3 3 0 0 1-1.498 2.597l-39 22.547a3 3 0 0 1-3.004 0l-39-22.547a3 3 0 0 1-1.498-2.597v-45.101a3 3 0 0 1 1.498-2.597z"/><path stroke="#4C1D95" stroke-opacity=".3" d="M467.249 570.301a2.5 2.5 0 0 1 2.502 0l39 22.547a2.5 2.5 0 0 1 1.249 2.164v45.101a2.5 2.5 0 0 1-1.249 2.164l-39 22.547a2.5 2.5 0 0 1-2.502 0l-39-22.547a2.5 2.5 0 0 1-1.249-2.164v-45.101a2.5 2.5 0 0 1 1.249-2.164z"/><path fill="#171717" d="M549.998 569.868a3 3 0 0 1 3.004 0l39 22.547a3 3 0 0 1 1.498 2.597v45.101a3 3 0 0 1-1.498 2.597l-39 22.547a3 3 0 0 1-3.004 0l-39-22.547a3 3 0 0 1-1.498-2.597v-45.101a3 3 0 0 1 1.498-2.597z"/><path stroke="#4C1D95" stroke-opacity=".3" d="M550.249 570.301a2.5 2.5 0 0 1 2.502 0l39 22.547a2.5 2.5 0 0 1 1.249 2.164v45.101a2.5 2.5 0 0 1-1.249 2.164l-39 22.547a2.5 2.5 0 0 1-2.502 0l-39-22.547a2.5 2.5 0 0 1-1.249-2.164v-45.101a2.5 2.5 0 0 1 1.249-2.164z"/><path fill="#171717" d="M632.998 569.868a3 3 0 0 1 3.004 0l39 22.547a3 3 0 0 1 1.498 2.597v45.101a3 3 0 0 1-1.498 2.597l-39 22.547a3 3 0 0 1-3.004 0l-39-22.547a3 3 0 0 1-1.498-2.597v-45.101a3 3 0 0 1 1.498-2.597z"/><path stroke="#4C1D95" stroke-opacity=".3" d="M633.249 570.301a2.5 2.5 0 0 1 2.502 0l39 22.547a2.5 2.5 0 0 1 1.249 2.164v45.101a2.5 2.5 0 0 1-1.249 2.164l-39 22.547a2.5 2.5 0 0 1-2.502 0l-39-22.547a2.5 2.5 0 0 1-1.249-2.164v-45.101a2.5 2.5 0 0 1 1.249-2.164z"/><path fill="#171717" d="M715.998 569.868a3 3 0 0 1 3.004 0l39 22.547a3 3 0 0 1 1.498 2.597v45.101a3 3 0 0 1-1.498 2.597l-39 22.547a3 3 0 0 1-3.004 0l-39-22.547a3 3 0 0 1-1.498-2.597v-45.101a3 3 0 0 1 1.498-2.597z"/><path stroke="#4C1D95" stroke-opacity=".3" d="M716.249 570.301a2.5 2.5 0 0 1 2.502 0l39 22.547a2.5 2.5 0 0 1 1.249 2.164v45.101a2.5 2.5 0 0 1-1.249 2.164l-39 22.547a2.5 2.5 0 0 1-2.502 0l-39-22.547a2.5 2.5 0 0 1-1.249-2.164v-45.101a2.5 2.5 0 0 1 1.249-2.164z"/><path fill="#171717" d="M798.998 569.868a3 3 0 0 1 3.004 0l39 22.547a3 3 0 0 1 1.498 2.597v45.101a3 3 0 0 1-1.498 2.597l-39 22.547a3 3 0 0 1-3.004 0l-39-22.547a3 3 0 0 1-1.498-2.597v-45.101a3 3 0 0 1 1.498-2.597z"/><path stroke="#4C1D95" stroke-opacity=".3" d="M799.249 570.301a2.5 2.5 0 0 1 2.502 0l39 22.547a2.5 2.5 0 0 1 1.249 2.164v45.101a2.5 2.5 0 0 1-1.249 2.164l-39 22.547a2.5 2.5 0 0 1-2.502 0l-39-22.547a2.5 2.5 0 0 1-1.249-2.164v-45.101a2.5 2.5 0 0 1 1.249-2.164z"/><path fill="#171717" d="M881.998 569.868a3 3 0 0 1 3.004 0l39 22.547a3 3 0 0 1 1.498 2.597v45.101a3 3 0 0 1-1.498 2.597l-39 22.547a3 3 0 0 1-3.004 0l-39-22.547a3 3 0 0 1-1.498-2.597v-45.101a3 3 0 0 1 1.498-2.597z"/><path stroke="#4C1D95" stroke-opacity=".3" d="M882.249 570.301a2.5 2.5 0 0 1 2.502 0l39 22.547a2.5 2.5 0 0 1 1.249 2.164v45.101a2.5 2.5 0 0 1-1.249 2.164l-39 22.547a2.5 2.5 0 0 1-2.502 0l-39-22.547a2.5 2.5 0 0 1-1.249-2.164v-45.101a2.5 2.5 0 0 1 1.249-2.164z"/><path fill="#171717" d="M964.998 569.868a3 3 0 0 1 3.004 0L1007 592.415c.93.536 1.5 1.526 1.5 2.597v45.101c0 1.071-.57 2.061-1.5 2.597l-38.998 22.547a3 3 0 0 1-3.004 0l-39-22.547a3 3 0 0 1-1.498-2.597v-45.101a3 3 0 0 1 1.498-2.597z"/><path stroke="#4C1D95" stroke-opacity=".3" d="M965.249 570.301a2.5 2.5 0 0 1 2.502 0l38.999 22.547a2.5 2.5 0 0 1 1.25 2.164v45.101c0 .893-.48 1.717-1.25 2.164l-38.999 22.547a2.5 2.5 0 0 1-2.502 0l-39-22.547a2.5 2.5 0 0 1-1.249-2.164v-45.101a2.5 2.5 0 0 1 1.249-2.164z"/><path fill="#171717" d="M1048 569.868a3 3 0 0 1 3 0l39 22.547c.93.536 1.5 1.526 1.5 2.597v45.101c0 1.071-.57 2.061-1.5 2.597l-39 22.547c-.93.537-2.07.537-3 0l-39-22.547a3 3 0 0 1-1.5-2.597v-45.101c0-1.071.57-2.061 1.5-2.597z"/><path stroke="#4C1D95" stroke-opacity=".3" d="M1048.25 570.301a2.49 2.49 0 0 1 2.5 0l39 22.547a2.5 2.5 0 0 1 1.25 2.164v45.101c0 .893-.48 1.717-1.25 2.164l-39 22.547c-.77.448-1.73.448-2.5 0l-39-22.547a2.5 2.5 0 0 1-1.25-2.164v-45.101c0-.893.48-1.717 1.25-2.164z"/><path fill="#171717" d="M1131 569.868a3 3 0 0 1 3 0l39 22.547c.93.536 1.5 1.526 1.5 2.597v45.101c0 1.071-.57 2.061-1.5 2.597l-39 22.547c-.93.537-2.07.537-3 0l-39-22.547a3 3 0 0 1-1.5-2.597v-45.101c0-1.071.57-2.061 1.5-2.597z"/><path stroke="#4C1D95" stroke-opacity=".3" d="M1131.25 570.301a2.49 2.49 0 0 1 2.5 0l39 22.547a2.5 2.5 0 0 1 1.25 2.164v45.101c0 .893-.48 1.717-1.25 2.164l-39 22.547c-.77.448-1.73.448-2.5 0l-39-22.547a2.5 2.5 0 0 1-1.25-2.164v-45.101c0-.893.48-1.717 1.25-2.164z"/><path fill="#171717" d="M1214 569.868a3 3 0 0 1 3 0l39 22.547c.93.536 1.5 1.526 1.5 2.597v45.101c0 1.071-.57 2.061-1.5 2.597l-39 22.547c-.93.537-2.07.537-3 0l-39-22.547a3 3 0 0 1-1.5-2.597v-45.101c0-1.071.57-2.061 1.5-2.597z"/><path stroke="#4C1D95" stroke-opacity=".3" d="M1214.25 570.301a2.49 2.49 0 0 1 2.5 0l39 22.547a2.5 2.5 0 0 1 1.25 2.164v45.101c0 .893-.48 1.717-1.25 2.164l-39 22.547c-.77.448-1.73.448-2.5 0l-39-22.547a2.5 2.5 0 0 1-1.25-2.164v-45.101c0-.893.48-1.717 1.25-2.164z"/><path fill="#171717" d="M1297 569.868a3 3 0 0 1 3 0l39 22.547c.93.536 1.5 1.526 1.5 2.597v45.101c0 1.071-.57 2.061-1.5 2.597l-39 22.547c-.93.537-2.07.537-3 0l-39-22.547a3 3 0 0 1-1.5-2.597v-45.101c0-1.071.57-2.061 1.5-2.597z"/><path stroke="#4C1D95" stroke-opacity=".3" d="M1297.25 570.301a2.49 2.49 0 0 1 2.5 0l39 22.547a2.5 2.5 0 0 1 1.25 2.164v45.101c0 .893-.48 1.717-1.25 2.164l-39 22.547c-.77.448-1.73.448-2.5 0l-39-22.547a2.5 2.5 0 0 1-1.25-2.164v-45.101c0-.893.48-1.717 1.25-2.164z"/><path fill="#171717" d="M1380 569.868a3 3 0 0 1 3 0l39 22.547c.93.536 1.5 1.526 1.5 2.597v45.101c0 1.071-.57 2.061-1.5 2.597l-39 22.547c-.93.537-2.07.537-3 0l-39-22.547a3 3 0 0 1-1.5-2.597v-45.101c0-1.071.57-2.061 1.5-2.597z"/><path stroke="#4C1D95" stroke-opacity=".3" d="M1380.25 570.301a2.49 2.49 0 0 1 2.5 0l39 22.547a2.5 2.5 0 0 1 1.25 2.164v45.101c0 .893-.48 1.717-1.25 2.164l-39 22.547c-.77.448-1.73.448-2.5 0l-39-22.547a2.5 2.5 0 0 1-1.25-2.164v-45.101c0-.893.48-1.717 1.25-2.164z"/><path fill="#171717" d="M1463 569.868a3 3 0 0 1 3 0l39 22.547c.93.536 1.5 1.526 1.5 2.597v45.101c0 1.071-.57 2.061-1.5 2.597l-39 22.547c-.93.537-2.07.537-3 0l-39-22.547a3 3 0 0 1-1.5-2.597v-45.101c0-1.071.57-2.061 1.5-2.597z"/><path stroke="#4C1D95" stroke-opacity=".3" d="M1463.25 570.301a2.49 2.49 0 0 1 2.5 0l39 22.547a2.5 2.5 0 0 1 1.25 2.164v45.101c0 .893-.48 1.717-1.25 2.164l-39 22.547c-.77.448-1.73.448-2.5 0l-39-22.547a2.5 2.5 0 0 1-1.25-2.164v-45.101c0-.893.48-1.717 1.25-2.164z"/></g><defs><linearGradient id="a" x1="726.5" x2="726.5" y1="0" y2="630" gradientUnits="userSpaceOnUse"><stop stop-color="#2563EB"/><stop offset=".706" stop-color="#6246EC" stop-opacity="0"/><stop offset="1" stop-color="#7C3AED" stop-opacity="0"/></linearGradient></defs></svg>