<svg xmlns="http://www.w3.org/2000/svg" width="530" height="84" fill="none" viewBox="0 0 530 84"><path fill="#141414" d="M62.928 54.293a22.27 22.27 0 0 1-8.163 10.024 22.3 22.3 0 0 1-12.362 3.808c-13.932 0-23.84-10.804-23.84-26.128s9.825-26.111 23.84-26.111a21.84 21.84 0 0 1 11.043 2.98 21.8 21.8 0 0 1 8.016 8.153h18.78C75.918 11.12 60.464 0 41.94 0 17.66 0 0 17.634 0 41.997 0 66.361 17.66 84 41.94 84 62.003 84 78.32 71.57 81 54.293z"/><g clip-path="url(#a)"><path fill="#141414" d="M408.949 38h-41.035v11h40.933c.421-3.653.455-7.34.102-11"/></g><path fill="#141414" d="M382.25 65.294a25.05 25.05 0 0 1-12.462 3.208c-9.34 0-16.953-4.534-21.162-11.71a25.7 25.7 0 0 1-2.99-7.937 29.3 29.3 0 0 1-.567-5.855c0-14.851 10.111-25.508 24.198-25.508a22.3 22.3 0 0 1 12.377 3.747 20.07 20.07 0 0 1 6.893 7.777h17.905a31.6 31.6 0 0 0-7.205-14.234C392.344 6.91 381.553 2 369.369 2 344.741 2 327 19.22 327 43c.002 1.958.129 3.914.38 5.855a42 42 0 0 0 1.806 7.936C334.63 73.151 349.827 84 369.369 84c12.683 0 23.258-4.688 30.446-12.63A38.5 38.5 0 0 0 408 56.792h-17.559a20.2 20.2 0 0 1-8.191 8.503M89 42.5C89 17.991 106.461 1 131.997 1 157.426 1 175 17.969 175 42.5c0 24.616-17.568 41.5-43.003 41.5C106.461 84 89 67.116 89 42.5m18.333 0c0 15.136 10.15 25.702 24.664 25.815 14.52 0 24.67-10.679 24.67-25.815s-10.15-25.815-24.67-25.815c-14.519 0-24.664 10.673-24.664 25.815M183 4h28.792C238.317 4 256 19.36 256 42.503S238.317 81 211.792 81H183zm28.792 14.169h-11.109v48.668h11.109c15.634 0 26.2-9.413 26.2-24.334 0-14.922-10.572-24.334-26.205-24.334zm69.683 48.23H319V81h-55V4h53.93v14.601h-36.455V35.04h32.143v12.984h-32.143zM436.181 4v77h-19V4zm8 38.5c0-24.509 17.263-41.5 42.503-41.5 25.133 0 42.497 16.969 42.497 41.5 0 24.616-17.364 41.5-42.497 41.5-25.24 0-42.503-16.884-42.503-41.5m18.126 0c0 15.136 10.032 25.702 24.377 25.815 14.345 0 24.377-10.679 24.377-25.815s-10.032-25.815-24.377-25.815-24.377 10.673-24.377 25.815"/><defs><clipPath id="a"><path fill="#fff" d="M367.914 38h41.267v11h-41.267z"/></clipPath></defs></svg>