<svg xmlns="http://www.w3.org/2000/svg" viewBox="0 0 24 24"><title>Svelte Table - Humanspeak</title><rect width="24" height="24" fill="#54dbbc" rx="4" ry="4"/><path fill="#fff" d="M18.24 4.512c.69 0 1.248.558 1.248 1.248v2.496H4.512V5.76c0-.69.558-1.248 1.248-1.248zM8.256 9.504h11.232v8.736c0 .69-.558 1.248-1.248 1.248H5.76c-.69 0-1.248-.558-1.248-1.248V9.504h2.496v5.616c0 1.034.838 1.872 1.872 1.872h2.496c.343 0 .624-.28.624-.624a.626.626 0 0 0-.624-.624H8.88a.626.626 0 0 1-.624-.624v-1.977c.195.07.406.105.624.105h1.248c.343 0 .624-.28.624-.624a.626.626 0 0 0-.624-.624H8.88a.626.626 0 0 1-.624-.624zM5.76 3.264A2.5 2.5 0 0 0 3.264 5.76v12.48a2.5 2.5 0 0 0 2.496 2.496h12.48a2.5 2.5 0 0 0 2.496-2.496V5.76a2.5 2.5 0 0 0-2.496-2.496zm7.488 9.36c0 .343.28.624.624.624h2.496c.343 0 .624-.28.624-.624a.626.626 0 0 0-.624-.624h-2.496a.626.626 0 0 0-.624.624m1.248 3.744c0 .343.28.624.624.624h1.248c.343 0 .624-.28.624-.624a.626.626 0 0 0-.624-.624H15.12a.626.626 0 0 0-.624.624"/></svg>