<svg xmlns="http://www.w3.org/2000/svg" viewBox="0 0 118 118"><path d="M101.774 15.6c-10.9-15.7-32.6-20.3-48.2-10.4l-27.5 17.6c-7.5 4.7-12.7 12.4-14.2 21.1-1.3 7.3-.2 14.8 3.3 21.3-2.4 3.6-4 7.6-4.7 11.8-1.6 8.9.5 18.1 5.7 25.4 11 15.7 32.6 20.3 48.2 10.4l27.5-17.5c7.5-4.7 12.7-12.4 14.2-21.1 1.3-7.3.2-14.8-3.3-21.3 2.4-3.6 4-7.6 4.7-11.8 1.7-9-.4-18.2-5.7-25.5" style="fill:#1f1a38"/><path d="M50.874 103.9c-8.9 2.3-18.2-1.2-23.4-8.7-3.2-4.4-4.4-9.9-3.5-15.3.2-.9.382-1.738.6-2.6 1.291-5.095 9.4-7.7 4.2-15.2-3.1-4.4-4.4-9.9-3.4-15.3.9-5.2 4.1-9.9 8.6-12.7l27.5-17.5c1.7-1.1 3.6-1.9 5.6-2.5 8.9-2.3 18.2 1.2 23.4 8.7 3.2 4.4 4.4 9.9 3.5 15.3-.2.9-.464 1.734-.7 2.6-1.383 5.071-9.4 7.7-4.2 15.2 3.2 4.4 4.4 9.9 3.5 15.3-.9 5.2-4.1 9.9-8.6 12.7l-27.5 17.5c-1.7 1.1-3.6 1.9-5.6 2.5" style="fill:#fff"/><path d="m53.689 39.805 32.855-21.336A22 22 0 0 1 90.5 22.8a19.7 19.7 0 0 1 2.826 5.58L60.228 49.874l7.612 11.721 20.254-13.153C87.066 50.425 86.9 52.727 89.1 55.9a19.6 19.6 0 0 1 2.479 4.587L74.375 71.659l8.44 12.995-10.125 6.444-8.379-12.903-32.854 21.336A22 22 0 0 1 27.5 95.2a19.7 19.7 0 0 1-2.824-5.574l33.099-21.495-7.612-11.721-20.467 13.292c1.111-2.015 1.36-4.347-.896-7.602a20.6 20.6 0 0 1-2.421-4.56l17.245-11.199-8.439-12.995 10.125-6.444z" style="fill:#2ec4b6"/></svg>